# Blender v2.79 (sub 3) OBJ File: ''
# www.blender.org
mtllib FixedShaft.mtl
o Stand
v -0.137500 -0.437500 -0.187500
v -0.187500 -0.500000 -0.187500
v -0.187500 -0.500000 0.187500
v 0.137500 -0.437500 -0.187500
v 0.187500 -0.500000 -0.187500
v 0.137500 -0.437500 0.187500
v 0.187500 -0.500000 0.187500
v -0.137500 -0.437500 0.187500
v -0.030000 0.002247 -0.075000
v 0.030000 0.002247 -0.075000
v 0.075000 -0.437500 -0.125000
v 0.075000 -0.437500 0.125000
v -0.075000 -0.437500 -0.125000
v 0.030000 0.002247 0.075000
v -0.075000 -0.437500 0.125000
v -0.030000 0.002247 0.075000
v 0.062500 -0.125000 0.062500
v 0.062500 -0.125000 0.062500
v -0.062500 -0.125000 0.062500
v -0.062500 -0.125000 0.062500
v 0.062500 -0.125000 -0.062500
v 0.062500 -0.125000 -0.062500
v -0.062500 -0.125000 -0.062500
v -0.062500 -0.125000 -0.062500
v 0.015630 -0.125000 0.062500
v 0.015630 -0.125000 0.062500
v 0.015630 -0.125000 -0.062500
v 0.015630 -0.125000 -0.062500
v -0.015630 -0.125000 0.062500
v -0.015630 -0.125000 0.062500
v -0.015630 -0.125000 -0.062500
v -0.015630 -0.125000 -0.062500
vt 0.675781 0.201705
vt 0.675781 0.125000
vt 0.324219 0.125000
vt 0.371094 0.201705
vt 0.628906 0.201705
vt 0.675781 0.125000
vt 0.324219 0.201705
vt 0.324219 0.125000
vt 0.628906 0.201705
vt 0.371094 0.201705
vt 0.324219 0.968750
vt 0.675781 0.968750
vt 0.675781 0.508523
vt 0.628906 0.968750
vt 0.371094 0.968750
vt 0.371094 0.508523
vt 0.448438 0.665178
vt 0.551562 0.665178
vt 0.570313 0.201705
vt 0.570313 0.585227
vt 0.570313 0.892045
vt 0.429688 0.892045
vt 0.617188 0.201705
vt 0.617188 0.665178
vt 0.382812 0.665178
vt 0.382812 0.201705
vt 0.382812 0.665178
vt 0.617188 0.665178
vt 0.551562 0.665178
vt 0.448438 0.665178
vt 0.429688 0.201705
vt 0.551562 0.585227
vt 0.551562 0.892045
vt 0.448438 0.892045
vt 0.324219 0.201705
vt 0.324219 0.125000
vt 0.675781 0.201705
vt 0.675781 0.125000
vt 0.324219 0.508523
vt 0.628906 0.508523
vt 0.429688 0.201705
vt 0.429688 0.585227
vt 0.382812 0.201705
vt 0.617188 0.201705
vt 0.570313 0.201705
vt 0.448438 0.585227
vn -0.7809 0.6247 0.0000
vn 0.0000 0.0000 -1.0000
vn 0.7809 0.6247 0.0000
vn 0.0000 0.0000 1.0000
vn 0.0000 -1.0000 0.0000
vn 0.0000 1.0000 0.0000
vn 0.0000 0.1130 -0.9936
vn 0.9948 0.1018 0.0000
vn -0.9948 0.1018 0.0000
vn 0.0000 0.1130 0.9936
usemtl None_base.png.002
s off
f 1/1/1 2/2/1 3/3/1
f 1/4/2 4/5/2 5/6/2
f 6/7/3 7/8/3 5/6/3
f 6/9/4 8/10/4 3/3/4
f 2/11/5 5/12/5 7/13/5
f 4/14/6 1/15/6 8/16/6
f 9/17/7 10/18/7 11/19/7
f 12/20/6 11/21/6 13/22/6
f 11/23/8 10/24/8 14/25/8
f 15/26/9 16/27/9 9/28/9
f 14/29/10 16/30/10 15/31/10
f 14/32/6 10/33/6 9/34/6
f 8/35/1 1/1/1 3/3/1
f 2/36/2 1/4/2 5/6/2
f 4/37/3 6/7/3 5/6/3
f 7/38/4 6/9/4 3/3/4
f 3/39/5 2/11/5 7/13/5
f 6/40/6 4/14/6 8/16/6
f 13/41/7 9/17/7 11/19/7
f 15/42/6 12/20/6 13/22/6
f 12/43/8 11/23/8 14/25/8
f 13/44/9 15/26/9 9/28/9
f 12/45/10 14/29/10 15/31/10
f 16/46/6 14/32/6 9/34/6
l 23 24
l 25 26
l 17 18
l 27 28
l 19 20
l 29 30
l 21 22
l 31 32
o Shaft
v -0.029981 0.029978 0.499076
v -0.039173 0.016224 0.499076
v -0.016226 -0.039168 0.499076
v -0.029981 -0.029978 -0.499075
v -0.016226 -0.039168 -0.499075
v -0.039173 -0.016224 -0.499075
v -0.029981 -0.029978 0.499076
v -0.042400 0.000000 -0.499075
v -0.039173 -0.016224 0.499076
v -0.039173 0.016224 -0.499075
v -0.042400 -0.000000 0.499076
v -0.029981 0.029978 -0.499075
v -0.016226 0.039168 -0.499075
v 0.000000 0.042395 -0.499075
v -0.016226 0.039168 0.499076
v 0.016226 0.039168 -0.499075
v 0.000000 0.042395 0.499076
v 0.029981 0.029978 -0.499075
v 0.016226 0.039168 0.499076
v 0.039173 0.016224 -0.499075
v 0.029981 0.029978 0.499076
v 0.042400 0.000000 -0.499075
v 0.039173 0.016224 0.499076
v 0.039173 -0.016224 -0.499075
v 0.042400 -0.000000 0.499076
v 0.029981 -0.029978 -0.499075
v 0.039173 -0.016224 0.499076
v 0.016226 -0.039168 -0.499075
v 0.029981 -0.029978 0.499076
v 0.000000 -0.042395 -0.499075
v 0.016226 -0.039168 0.499076
v 0.000000 -0.042395 0.499076
vt 0.000000 0.688050
vt 0.000000 0.601773
vt 0.000000 0.254302
vt 0.388719 0.311952
vt 0.388719 0.254302
vt 0.388719 0.398230
vt 0.000000 0.311952
vt 0.388719 0.500000
vt 0.000000 0.398230
vt 0.388719 0.601773
vt 0.000000 0.500000
vt 0.388719 0.688050
vt 0.388719 0.745699
vt 0.388719 0.765943
vt 0.000000 0.745699
vt 0.388719 0.745699
vt 0.000000 0.765943
vt 0.388719 0.688050
vt 0.000000 0.745699
vt 0.388719 0.601773
vt 0.000000 0.688050
vt 0.388719 0.500000
vt 0.000000 0.601773
vt 0.388719 0.398230
vt 0.000000 0.500000
vt 0.388719 0.311952
vt 0.000000 0.398230
vt 0.388719 0.254302
vt 0.000000 0.311952
vt 0.388719 0.234058
vt 0.000000 0.254302
vt 0.000000 0.234058
vn -0.5276 0.5277 0.6657
vn -0.6894 0.2856 0.6657
vn -0.2855 -0.6894 0.6657
vn -0.5276 -0.5277 -0.6657
vn -0.2855 -0.6894 -0.6657
vn -0.6894 -0.2856 -0.6657
vn -0.5276 -0.5277 0.6657
vn -0.7462 0.0000 -0.6657
vn -0.6894 -0.2856 0.6657
vn -0.6894 0.2856 -0.6657
vn -0.7462 -0.0000 0.6657
vn -0.5276 0.5277 -0.6657
vn -0.2855 0.6894 -0.6657
vn -0.0000 0.7462 -0.6657
vn -0.2855 0.6894 0.6657
vn 0.2855 0.6894 -0.6657
vn 0.0000 0.7462 0.6657
vn 0.5276 0.5277 -0.6657
vn 0.2855 0.6894 0.6657
vn 0.6894 0.2856 -0.6657
vn 0.5276 0.5277 0.6657
vn 0.7462 -0.0000 -0.6657
vn 0.6894 0.2856 0.6657
vn 0.6894 -0.2856 -0.6657
vn 0.7462 0.0000 0.6657
vn 0.5276 -0.5277 -0.6657
vn 0.6894 -0.2856 0.6657
vn 0.2855 -0.6894 -0.6657
vn 0.5276 -0.5277 0.6657
vn 0.0000 -0.7462 -0.6657
vn 0.2855 -0.6894 0.6657
vn 0.0000 -0.7462 0.6657
usemtl None.002
s 1
f 33/47/11 34/48/12 35/49/13
f 36/50/14 37/51/15 35/49/13
f 38/52/16 36/50/14 39/53/17
f 40/54/18 38/52/16 41/55/19
f 42/56/20 40/54/18 43/57/21
f 44/58/22 42/56/20 34/48/12
f 45/59/23 44/58/22 33/47/11
f 46/60/24 45/59/23 47/61/25
f 48/62/26 46/60/24 49/63/27
f 50/64/28 48/62/26 51/65/29
f 52/66/30 50/64/28 53/67/31
f 54/68/32 52/66/30 55/69/33
f 56/70/34 54/68/32 57/71/35
f 58/72/36 56/70/34 59/73/37
f 60/74/38 58/72/36 61/75/39
f 62/76/40 60/74/38 63/77/41
f 35/49/13 37/51/15 62/76/40
f 48/62/26 62/76/40 37/51/15
f 35/49/13 64/78/42 51/65/29
f 63/77/41 61/75/39 51/65/29
f 59/73/37 57/71/35 55/69/33
f 55/69/33 53/67/31 59/73/37
f 51/65/29 49/63/27 35/49/13
f 47/61/25 33/47/11 35/49/13
f 34/48/12 43/57/21 41/55/19
f 41/55/19 39/53/17 34/48/12
f 64/78/42 63/77/41 51/65/29
f 59/73/37 53/67/31 51/65/29
f 49/63/27 47/61/25 35/49/13
f 34/48/12 39/53/17 35/49/13
f 61/75/39 59/73/37 51/65/29
f 39/53/17 36/50/14 35/49/13
f 41/55/19 38/52/16 39/53/17
f 43/57/21 40/54/18 41/55/19
f 34/48/12 42/56/20 43/57/21
f 33/47/11 44/58/22 34/48/12
f 47/61/25 45/59/23 33/47/11
f 49/63/27 46/60/24 47/61/25
f 51/65/29 48/62/26 49/63/27
f 53/67/31 50/64/28 51/65/29
f 55/69/33 52/66/30 53/67/31
f 57/71/35 54/68/32 55/69/33
f 59/73/37 56/70/34 57/71/35
f 61/75/39 58/72/36 59/73/37
f 63/77/41 60/74/38 61/75/39
f 64/78/42 62/76/40 63/77/41
f 64/78/42 35/49/13 62/76/40
f 37/51/15 36/50/14 42/56/20
f 38/52/16 40/54/18 42/56/20
f 42/56/20 44/58/22 37/51/15
f 45/59/23 46/60/24 37/51/15
f 48/62/26 50/64/28 56/70/34
f 52/66/30 54/68/32 56/70/34
f 56/70/34 58/72/36 48/62/26
f 60/74/38 62/76/40 48/62/26
f 36/50/14 38/52/16 42/56/20
f 44/58/22 45/59/23 37/51/15
f 50/64/28 52/66/30 56/70/34
f 58/72/36 60/74/38 48/62/26
f 37/51/15 46/60/24 48/62/26
