# Blender v2.76 (sub 0) OBJ File: 'Tachometer.blend'
# www.blender.org
mtllib Tachometer.mtl
o Shaft
v -0.000000 -0.042395 0.499076
v 0.016226 -0.039168 0.499076
v 0.029981 -0.029978 0.499076
v 0.039173 -0.016224 0.499076
v 0.042400 0.000000 0.499076
v 0.039173 0.016224 0.499076
v 0.029981 0.029978 0.499076
v 0.016226 0.039168 0.499076
v 0.000000 0.042395 0.499076
v -0.016226 0.039168 0.499076
v -0.029981 0.029978 0.499076
v -0.039173 0.016224 0.499076
v -0.042400 0.000000 0.499076
v -0.039173 -0.016224 0.499076
v -0.029981 -0.029978 0.499076
v -0.016226 -0.039168 0.499076
v -0.000000 -0.042395 -0.499075
v 0.016226 -0.039168 -0.499075
v 0.029981 -0.029978 -0.499075
v 0.039173 -0.016224 -0.499075
v 0.042400 -0.000000 -0.499075
v 0.039173 0.016224 -0.499075
v 0.029981 0.029978 -0.499075
v 0.016226 0.039168 -0.499075
v 0.000000 0.042395 -0.499075
v -0.016226 0.039168 -0.499075
v -0.029981 0.029978 -0.499075
v -0.039173 0.016224 -0.499075
v -0.042400 -0.000000 -0.499075
v -0.039173 -0.016224 -0.499075
v -0.029981 -0.029978 -0.499075
v -0.016226 -0.039168 -0.499075
vt 0.000000 0.688050
vt 0.000000 0.601773
vt 0.000000 0.254302
vt 0.388719 0.311952
vt 0.388719 0.254302
vt 0.388719 0.398230
vt 0.000000 0.311952
vt 0.388719 0.500000
vt 0.000000 0.398230
vt 0.388719 0.601773
vt 0.000000 0.500000
vt 0.388719 0.688050
vt 0.388719 0.745699
vt 0.390625 0.781250
vt 0.390625 0.765625
vt 0.000000 0.765625
vt 0.388719 0.765943
vt 0.000000 0.765943
vt 0.000000 0.745699
vt 0.388719 0.234058
vt 0.000000 0.234058
vt 0.000000 0.781250
vn -0.527600 0.527700 0.665700
vn -0.689400 0.285600 0.665700
vn -0.285500 -0.689400 0.665700
vn -0.527600 -0.527700 -0.665700
vn -0.285500 -0.689400 -0.665700
vn -0.689400 -0.285600 -0.665700
vn -0.527600 -0.527700 0.665700
vn -0.746200 0.000000 -0.665700
vn -0.689400 -0.285600 0.665700
vn -0.689400 0.285600 -0.665700
vn -0.746200 0.000000 0.665700
vn -0.527600 0.527700 -0.665700
vn -0.285500 0.689400 -0.665700
vn 0.000000 0.746200 -0.665700
vn -0.285500 0.689400 0.665700
vn 0.285500 0.689400 -0.665700
vn 0.000000 0.746200 0.665700
vn 0.527600 0.527700 -0.665700
vn 0.285500 0.689400 0.665700
vn 0.689400 0.285600 -0.665700
vn 0.527600 0.527700 0.665700
vn 0.746200 0.000000 -0.665700
vn 0.689400 0.285600 0.665700
vn 0.689400 -0.285600 -0.665700
vn 0.746200 0.000000 0.665700
vn 0.527600 -0.527700 -0.665700
vn 0.689400 -0.285600 0.665700
vn 0.285500 -0.689400 -0.665700
vn 0.527600 -0.527700 0.665700
vn 0.000000 -0.746200 -0.665700
vn 0.285500 -0.689400 0.665700
vn 0.000000 -0.746200 0.665700
usemtl None
s 1
f 11/1/1 12/2/2 16/3/3
f 31/4/4 32/5/5 16/3/3
f 30/6/6 31/4/4 15/7/7
f 29/8/8 30/6/6 14/9/9
f 28/10/10 29/8/8 13/11/11
f 27/12/12 28/10/10 12/2/2
f 26/13/13 27/12/12 11/1/1
f 25/14/14 26/15/13 10/16/15
f 24/13/16 25/17/14 9/18/17
f 23/12/18 24/13/16 8/19/19
f 22/10/20 23/12/18 7/1/21
f 21/8/22 22/10/20 6/2/23
f 20/6/24 21/8/22 5/11/25
f 19/4/26 20/6/24 4/9/27
f 18/5/28 19/4/26 3/7/29
f 17/20/30 18/5/28 2/3/31
f 16/3/3 32/5/5 17/20/30
f 24/13/16 17/20/30 32/5/5
f 16/3/3 1/21/32 8/19/19
f 2/3/31 3/7/29 8/19/19
f 4/9/27 5/11/25 6/2/23
f 6/2/23 7/1/21 4/9/27
f 8/19/19 9/18/17 16/3/3
f 10/19/15 11/1/1 16/3/3
f 12/2/2 13/11/11 14/9/9
f 14/9/9 15/7/7 12/2/2
f 1/21/32 2/3/31 8/19/19
f 4/9/27 7/1/21 8/19/19
f 9/18/17 10/19/15 16/3/3
f 12/2/2 15/7/7 16/3/3
f 3/7/29 4/9/27 8/19/19
f 15/7/7 31/4/4 16/3/3
f 14/9/9 30/6/6 15/7/7
f 13/11/11 29/8/8 14/9/9
f 12/2/2 28/10/10 13/11/11
f 11/1/1 27/12/12 12/2/2
f 10/19/15 26/13/13 11/1/1
f 9/22/17 25/14/14 10/16/15
f 8/19/19 24/13/16 9/18/17
f 7/1/21 23/12/18 8/19/19
f 6/2/23 22/10/20 7/1/21
f 5/11/25 21/8/22 6/2/23
f 4/9/27 20/6/24 5/11/25
f 3/7/29 19/4/26 4/9/27
f 2/3/31 18/5/28 3/7/29
f 1/21/32 17/20/30 2/3/31
f 1/21/32 16/3/3 17/20/30
f 32/5/5 31/4/4 28/10/10
f 30/6/6 29/8/8 28/10/10
f 28/10/10 27/12/12 32/5/5
f 26/13/13 25/17/14 32/5/5
f 24/13/16 23/12/18 20/6/24
f 22/10/20 21/8/22 20/6/24
f 20/6/24 19/4/26 24/13/16
f 18/5/28 17/20/30 24/13/16
f 31/4/4 30/6/6 28/10/10
f 27/12/12 26/13/13 32/5/5
f 23/12/18 22/10/20 20/6/24
f 19/4/26 18/5/28 24/13/16
f 32/5/5 25/17/14 24/13/16
o Minecraft_Block_Cube.001
v 0.500000 -0.500000 -0.500000
v 0.500000 -0.500000 0.500000
v -0.500000 -0.500000 0.500000
v -0.500000 -0.500000 -0.500000
v 0.500000 0.500000 -0.500000
v 0.500000 0.500000 0.500000
v -0.500000 0.500000 0.500000
v -0.500000 0.500000 -0.500000
vn 0.000000 -1.000000 0.000000
vn 0.000000 1.000000 0.000000
vn 1.000000 0.000000 0.000000
vn -0.000000 0.000000 1.000000
vn -1.000000 -0.000000 -0.000000
vn 0.000000 0.000000 -1.000000
usemtl Material
s off
f 34//33 35//33 36//33
f 40//34 39//34 38//34
f 37//35 38//35 34//35
f 38//36 39//36 35//36
f 39//37 40//37 36//37
f 33//38 36//38 40//38
f 33//33 34//33 36//33
f 37//34 40//34 38//34
f 33//35 37//35 34//35
f 34//36 38//36 35//36
f 35//37 39//37 36//37
f 37//38 33//38 40//38
o Stand
v -0.187500 -0.500000 0.187500
v -0.187500 -0.500000 -0.187500
v 0.187500 -0.500000 -0.187500
v 0.187500 -0.500000 0.187500
v -0.137500 -0.437500 0.187500
v -0.137500 -0.437500 -0.187500
v 0.137500 -0.437500 -0.187500
v 0.137500 -0.437500 0.187500
v -0.075000 -0.437500 0.125000
v -0.075000 -0.437500 -0.125000
v 0.075000 -0.437500 -0.125000
v 0.075000 -0.437500 0.125000
v -0.062500 -0.125000 0.062500
v -0.062500 -0.125000 -0.062500
v 0.062500 -0.125000 -0.062500
v 0.062500 -0.125000 0.062500
v -0.062500 -0.125000 0.062500
v -0.062500 -0.125000 -0.062500
v 0.062500 -0.125000 -0.062500
v 0.062500 -0.125000 0.062500
v -0.015630 -0.125000 -0.062500
v 0.015630 -0.125000 -0.062500
v -0.015630 -0.125000 0.062500
v 0.015630 -0.125000 0.062500
v -0.015630 -0.125000 -0.062500
v 0.015630 -0.125000 -0.062500
v -0.015630 -0.125000 0.062500
v 0.015630 -0.125000 0.062500
v -0.030000 -0.059855 0.075000
v -0.030000 -0.059855 -0.075000
v 0.030000 -0.059855 -0.075000
v 0.030000 -0.059855 0.075000
v 0.237500 -0.437500 0.046875
v 0.237500 -0.437500 -0.046875
v 0.237500 -0.500000 -0.046875
v 0.237500 -0.500000 0.046875
v 0.137500 -0.437500 -0.046875
v 0.187500 -0.500000 0.046875
v 0.137500 -0.437500 0.046875
v 0.187500 -0.500000 -0.046875
v -0.237500 -0.500000 0.046875
v -0.237500 -0.500000 -0.046875
v -0.237500 -0.437500 -0.046875
v -0.237500 -0.437500 0.046875
v -0.137500 -0.437500 0.046875
v -0.187500 -0.500000 -0.046875
v -0.137500 -0.437500 -0.046875
v -0.187500 -0.500000 0.046875
vt 0.656250 0.250000
vt 0.687500 0.281250
vt 0.625000 0.281250
vt 0.812500 0.484375
vt 0.875000 0.484375
vt 0.875000 0.531250
vt 0.843750 0.250000
vt 0.812500 0.281250
vt 0.875000 0.281250
vt 0.843750 0.531250
vt 0.734375 0.281250
vt 0.734375 0.250000
vt 0.781250 0.250000
vt 0.875000 0.250000
vt 0.625000 0.250000
vt 0.656250 0.484375
vt 0.625000 0.484375
vt 0.625000 0.531250
vt 0.687500 0.531250
vt 0.781250 0.281250
vt 0.812500 0.531250
vt 0.843750 0.484375
vt 0.656250 0.531250
vt 0.687500 0.484375
vt 0.371094 0.201705
vt 0.628906 0.201705
vt 0.675781 0.125000
vt 0.543945 0.201705
vt 0.543945 0.125000
vt 0.324219 0.125000
vt 0.324219 0.968750
vt 0.675781 0.796165
vt 0.324219 0.796165
vt 0.628906 0.796165
vt 0.371094 0.796165
vt 0.371094 0.681108
vt 0.448438 0.665178
vt 0.551562 0.665178
vt 0.570313 0.201705
vt 0.570313 0.585227
vt 0.570313 0.892045
vt 0.429688 0.892045
vt 0.617188 0.201705
vt 0.617188 0.665178
vt 0.382812 0.665178
vt 0.382812 0.201705
vt 0.429688 0.201705
vt 0.551562 0.585227
vt 0.551562 0.892045
vt 0.448438 0.892045
vt 0.324219 0.201705
vt 0.456055 0.125000
vt 0.456055 0.201705
vt 0.675781 0.201705
vt 0.675781 0.508523
vt 0.324219 0.508523
vt 0.324219 0.681108
vt 0.675781 0.968750
vt 0.675781 0.681108
vt 0.371094 0.508523
vt 0.628906 0.508523
vt 0.628906 0.681108
vt 0.628906 0.968750
vt 0.371094 0.968750
vt 0.429688 0.585227
vt 0.448438 0.585227
vn 0.000000 0.000000 1.000000
vn 0.000000 1.000000 0.000000
vn 0.000000 0.000000 -1.000000
vn 0.000000 -1.000000 0.000000
vn 1.000000 -0.000000 0.000000
vn -1.000000 -0.000000 0.000000
vn 0.780900 0.624700 0.000000
vn 0.000000 0.131300 -0.991300
vn 0.993000 0.118300 0.000000
vn -0.993000 0.118300 0.000000
vn 0.000000 0.131300 0.991300
vn -0.780900 0.624700 0.000000
usemtl None_tachometer.png
s off
f 88/23/39 85/24/39 84/25/39
f 79/26/40 73/27/40 74/28/40
f 80/29/41 77/30/41 74/31/41
f 80/32/42 75/28/42 76/27/42
f 73/33/43 76/34/43 75/35/43
f 78/29/39 76/36/39 73/31/39
f 86/23/41 82/37/41 83/25/41
f 88/38/42 81/39/42 82/40/42
f 87/41/40 83/40/40 84/39/40
f 83/42/44 82/35/44 81/34/44
f 81/37/39 88/23/39 84/25/39
f 77/43/40 79/26/40 74/28/40
f 75/36/41 80/29/41 74/31/41
f 78/44/42 80/32/42 76/27/42
f 74/42/43 73/33/43 75/35/43
f 79/30/39 78/29/39 73/31/39
f 87/24/41 86/23/41 83/25/41
f 86/45/42 88/38/42 82/40/42
f 85/46/40 87/41/40 84/39/40
f 84/33/44 83/42/44 81/34/44
usemtl None_base.png
f 46/47/41 47/48/41 43/49/41
f 77/50/45 80/51/45 43/49/45
f 48/48/39 45/47/39 41/52/39
f 42/53/42 80/54/42 86/55/42
f 77/56/40 87/57/40 85/58/40
f 70/59/46 71/60/46 51/61/46
f 52/62/40 51/63/40 50/64/40
f 51/65/47 71/66/47 72/67/47
f 49/68/48 69/67/48 70/66/48
f 72/60/49 69/59/49 49/69/49
f 72/70/40 71/71/40 70/72/40
f 48/73/45 44/52/45 78/74/45
f 85/75/50 88/74/50 41/52/50
f 46/76/50 42/49/50 86/51/50
f 42/52/41 46/47/41 43/49/41
f 47/76/45 77/50/45 43/49/45
f 44/49/39 48/48/39 41/52/39
f 44/77/42 41/78/42 88/79/42
f 88/79/42 86/55/42 80/54/42
f 42/53/42 43/80/42 80/54/42
f 80/54/42 78/81/42 88/79/42
f 44/77/42 88/79/42 78/81/42
f 45/82/40 48/83/40 79/84/40
f 77/56/40 47/85/40 46/86/40
f 45/82/40 79/84/40 85/58/40
f 77/56/40 46/86/40 87/57/40
f 85/58/40 79/84/40 77/56/40
f 50/69/46 70/59/46 51/61/46
f 49/87/40 52/62/40 50/64/40
f 52/68/47 51/65/47 72/67/47
f 50/65/48 49/68/48 70/66/48
f 52/61/49 72/60/49 49/69/49
f 69/88/40 72/70/40 70/72/40
f 79/75/45 48/73/45 78/74/45
f 45/73/50 85/75/50 41/52/50
f 87/50/50 46/76/50 86/51/50
l 56 60
l 57 53
l 55 59
l 54 58
l 68 64
l 62 66
l 67 63
l 61 65
o Cowl
v 0.035877 -0.086614 0.140625
v -0.035877 -0.086614 0.140625
v -0.086614 -0.035877 0.140625
v -0.086614 0.035876 0.140625
v -0.086614 0.035877 -0.140625
v -0.086614 -0.035877 -0.140625
v -0.035876 -0.086614 -0.140625
v 0.035877 -0.086614 -0.140625
v 0.086614 -0.035876 -0.140625
v 0.086614 0.035877 -0.140625
v 0.035877 0.086614 -0.140625
v -0.035877 0.086614 -0.140625
v 0.086614 -0.035877 0.140625
v 0.086614 0.035877 0.140625
v 0.035876 0.086614 0.140625
v -0.035877 0.086614 0.140625
v -0.025877 0.116614 -0.040625
v 0.025876 0.116614 -0.040625
v 0.035876 0.086614 0.190625
v -0.035877 0.086614 0.190625
v 0.025876 0.116614 0.190625
v -0.025877 0.116614 0.190625
v 0.025876 0.116614 0.210625
v -0.025877 0.116613 0.210625
v 0.035876 0.056614 0.190625
v -0.035877 0.056614 0.190625
v 0.025876 0.056614 0.220625
v -0.025877 0.056613 0.220625
vt 0.796875 0.562500
vt 0.750000 0.562500
vt 0.750000 0.531250
vt 0.796875 0.531250
vt 0.765625 0.531250
vt 0.765625 0.640625
vt 0.796875 0.703125
vt 0.796875 0.640625
vt 0.703125 0.625000
vt 0.718750 0.656250
vt 0.703125 0.671875
vt 0.703125 0.515625
vt 0.687500 0.531250
vt 0.671875 0.515625
vt 0.671875 0.531250
vt 0.687500 0.562500
vt 0.671875 0.640625
vt 0.703125 0.562500
vt 0.687500 0.640625
vt 0.718750 0.515625
vt 0.687500 0.515625
vt 0.703125 0.531250
vt 0.953125 0.031250
vt 0.921875 0.031250
vt 0.921875 0.015625
vt 0.796875 0.515625
vt 0.765625 0.515625
vt 0.750000 0.703125
vt 0.687500 0.625000
vt 0.687500 0.703125
vt 0.703125 0.703125
vt 0.718750 0.531250
vt 0.687500 0.671875
vt 0.953125 0.015625
vt 0.619398 0.524540
vt 0.565301 0.524540
vt 0.565301 0.250000
vt 0.488796 0.250000
vt 0.750000 0.250000
vt 0.750000 0.524540
vt 0.673495 0.524540
vt 0.380602 0.524540
vt 0.380602 0.250000
vt 0.434699 0.250000
vt 0.304097 0.524540
vt 0.304097 0.250000
vt 0.250000 0.524540
vt 0.250000 0.250000
vt 0.488796 0.524540
vt 0.619398 0.590576
vt 0.565301 0.750000
vt 0.434699 0.683964
vt 0.380602 0.750000
vt 0.250000 0.683964
vt 0.619398 0.250000
vt 0.673495 0.250000
vt 0.434699 0.524540
vt 0.434699 0.590576
vt 0.619398 0.683964
vt 0.488796 0.750000
vt 0.250000 0.590576
vt 0.304097 0.750000
vn 0.000000 -1.000000 -0.000000
vn -0.000000 1.000000 0.000000
vn -0.000000 0.957800 -0.287300
vn 0.000000 0.000000 -1.000000
vn 0.926700 0.061800 0.370700
vn 0.948700 0.316200 0.000000
vn -0.948700 0.316200 -0.000000
vn -0.926700 0.061800 0.370700
vn 0.000000 0.164400 0.986400
vn 0.948700 0.000000 0.316200
vn -0.948700 -0.000000 0.316200
vn 0.707100 0.707100 0.000000
vn 1.000000 0.000000 0.000000
vn -0.707100 0.707100 0.000000
vn -1.000000 -0.000000 -0.000000
vn -0.707100 -0.707100 -0.000000
vn 0.707100 -0.707100 -0.000000
vn 0.000000 0.000000 1.000000
usemtl None_tachometer.png
s off
f 104/89/51 103/90/51 107/91/51
f 110/92/52 109/93/52 106/94/52
f 100/95/53 105/96/53 106/94/53
f 113/97/54 114/98/54 108/99/54
f 115/100/55 107/101/55 111/102/55
f 109/103/56 103/104/56 106/105/56
f 104/106/57 110/101/57 105/107/57
f 116/108/58 112/109/58 108/110/58
f 116/98/59 115/97/59 111/105/59
f 114/111/51 113/112/51 115/113/51
f 108/92/51 104/89/51 107/91/51
f 106/94/52 105/96/52 110/92/52
f 110/92/52 112/114/52 111/115/52
f 111/115/52 109/93/52 110/92/52
f 99/116/53 100/95/53 106/94/53
f 107/117/54 113/97/54 108/99/54
f 109/103/56 111/102/56 107/101/56
f 115/100/60 113/110/60 107/101/60
f 99/118/56 106/105/56 103/104/56
f 109/103/56 107/101/56 103/104/56
f 104/106/57 108/110/57 110/101/57
f 105/107/57 100/119/57 104/106/57
f 110/101/57 108/110/57 112/109/57
f 114/120/61 116/108/61 108/110/61
f 112/121/59 116/98/59 111/105/59
f 116/122/51 114/111/51 115/113/51
usemtl None_cowl.png
f 103/123/62 102/124/62 98/125/62
f 97/126/63 98/125/63 102/124/63
f 93/127/64 92/128/64 104/129/64
f 94/130/65 91/131/65 92/132/65
f 95/133/66 90/134/66 91/131/66
f 95/133/51 96/135/51 89/136/51
f 96/132/67 97/126/67 101/137/67
f 104/138/68 91/139/68 89/140/68
f 98/140/54 97/141/54 95/142/54
f 99/143/62 103/123/62 98/125/62
f 101/137/63 97/126/63 102/124/63
f 100/144/64 93/127/64 104/129/64
f 93/145/65 94/130/65 92/132/65
f 94/130/66 95/133/66 91/131/66
f 90/134/51 95/133/51 89/136/51
f 89/145/67 96/132/67 101/137/67
f 89/140/68 101/146/68 102/137/68
f 102/137/68 103/124/68 89/140/68
f 104/138/68 92/147/68 91/139/68
f 91/139/68 90/148/68 89/140/68
f 89/140/68 103/124/68 104/138/68
f 95/142/54 94/149/54 93/133/54
f 93/133/54 100/130/54 99/146/54
f 99/146/54 98/140/54 95/142/54
f 97/141/54 96/150/54 95/142/54
f 95/142/54 93/133/54 99/146/54
