# Blender v2.75 (sub 0) OBJ File: 'LargeRheostat.blend'
# www.blender.org
mtllib LargeRheostat.mtl
o main
v 0.500000 -0.500000 0.500000
v -0.500000 -0.500000 0.500000
v -0.500000 -0.500000 -0.500000
v 0.500000 -0.500000 -0.500000
v 0.500000 -0.187500 0.500000
v -0.500000 -0.187500 0.500000
v -0.500000 -0.187500 -0.500000
v 0.500000 -0.187500 -0.500000
v 0.500000 -0.187500 0.500000
v 0.437500 -0.187500 0.500000
v 0.437500 -0.187500 -0.500000
v 0.500000 -0.187500 -0.500000
v 0.500000 0.187500 0.500000
v 0.437500 0.187500 0.500000
v 0.437500 0.187500 -0.500000
v 0.500000 0.187500 -0.500000
v 0.312500 -0.187500 0.500000
v 0.250000 -0.187500 0.500000
v 0.250000 -0.187500 -0.500000
v 0.312500 -0.187500 -0.500000
v 0.312500 0.187500 0.500000
v 0.250000 0.187500 0.500000
v 0.250000 0.187500 -0.500000
v 0.312500 0.187500 -0.500000
v 0.125000 -0.187500 0.500000
v 0.062500 -0.187500 0.500000
v 0.062500 -0.187500 -0.500000
v 0.125000 -0.187500 -0.500000
v 0.125000 0.187500 0.500000
v 0.062500 0.187500 0.500000
v 0.062500 0.187500 -0.500000
v 0.125000 0.187500 -0.500000
v -0.062500 -0.187500 0.500000
v -0.125000 -0.187500 0.500000
v -0.125000 -0.187500 -0.500000
v -0.062500 -0.187500 -0.500000
v -0.062500 0.187500 0.500000
v -0.125000 0.187500 0.500000
v -0.125000 0.187500 -0.500000
v -0.062500 0.187500 -0.500000
v -0.437500 -0.187500 0.500000
v -0.500000 -0.187500 0.500000
v -0.500000 -0.187500 -0.500000
v -0.437500 -0.187500 -0.500000
v -0.437500 0.187500 0.500000
v -0.500000 0.187500 0.500000
v -0.500000 0.187500 -0.500000
v -0.437500 0.187500 -0.500000
v -0.250000 -0.187500 0.500000
v -0.312500 -0.187500 0.500000
v -0.312500 -0.187500 -0.500000
v -0.250000 -0.187500 -0.500000
v -0.250000 0.187500 0.500000
v -0.312500 0.187500 0.500000
v -0.312500 0.187500 -0.500000
v -0.250000 0.187500 -0.500000
vt 0.500000 0.156250
vt 0.500000 0.000000
vt 0.000000 0.000000
vt 0.500000 0.312500
vt -0.406250 0.625000
vt -0.406250 -0.000000
vt 0.906250 0.000000
vt 0.000000 0.312500
vt 0.000000 1.000000
vt 0.500000 1.000000
vt 0.500000 0.500000
vt 0.750000 0.750000
vt 0.250000 0.750000
vt 0.250000 0.250000
vt 0.281250 0.593750
vt 0.281250 0.406250
vt 0.250000 0.406250
vt 0.750000 0.593750
vt 0.750000 0.406250
vt 0.250000 0.593750
vt 0.875000 1.000000
vt 0.875000 0.812500
vt 0.843750 0.812500
vt 0.750000 0.281250
vt 0.250000 0.281250
vt 0.750000 1.000000
vt 0.750000 0.812500
vt 0.781250 0.812500
vt 0.750000 0.375000
vt 0.250000 0.375000
vt 0.250000 0.343750
vt 0.812500 1.000000
vt 0.812500 0.812500
vt 0.718750 1.000000
vt 0.718750 0.812500
vt 1.000000 0.031250
vt 0.500000 0.031250
vt 0.937500 1.000000
vt 0.937500 0.812500
vt 0.906250 0.812500
vt 0.750000 0.562500
vt 0.250000 0.562500
vt 0.250000 0.531250
vt 0.906250 1.000000
vt 0.718750 0.593750
vt 0.718750 0.406250
vt 0.250000 0.718750
vt 0.968750 1.000000
vt 0.968750 0.812500
vt 1.000000 0.812500
vt 0.750000 0.656250
vt 0.250000 0.656250
vt 0.250000 0.625000
vt 0.000000 0.156250
vt 0.906250 0.625000
vt 0.000000 0.500000
vt 0.750000 0.250000
vt 0.843750 1.000000
vt 0.781250 1.000000
vt 0.750000 0.343750
vt 1.000000 0.000000
vt 0.750000 0.531250
vt 0.750000 0.718750
vt 1.000000 1.000000
vt 0.750000 0.625000
vn 0.000000 0.000000 1.000000
vn -1.000000 0.000000 -0.000000
vn 0.000000 0.000000 -1.000000
vn 1.000000 0.000000 0.000000
vn 0.000000 -1.000000 0.000000
vn 0.000000 1.000000 -0.000000
usemtl None
s off
f 6/1/1 2/2/1 1/3/1
f 7/4/2 3/2/2 2/3/2
f 8/5/3 4/6/3 3/7/3
f 5/8/4 1/3/4 4/2/4
f 2/9/5 3/10/5 4/11/5
f 7/12/6 6/13/6 5/14/6
f 14/15/1 10/16/1 9/17/1
f 15/18/2 11/19/2 10/17/2
f 16/20/3 12/17/3 11/16/3
f 13/20/4 9/17/4 12/19/4
f 22/21/1 18/22/1 17/23/1
f 15/24/6 14/25/6 13/14/6
f 23/18/2 19/19/2 18/17/2
f 24/26/3 20/27/3 19/28/3
f 21/20/4 17/17/4 20/19/4
f 23/29/6 22/30/6 21/31/6
f 30/32/1 26/33/1 25/28/1
f 31/18/2 27/19/2 26/17/2
f 32/34/3 28/35/3 27/27/3
f 29/20/4 25/17/4 28/19/4
f 31/36/6 30/37/6 29/2/6
f 38/38/1 34/39/1 33/40/1
f 39/18/2 35/19/2 34/17/2
f 40/32/3 36/33/3 35/23/3
f 37/20/4 33/17/4 36/19/4
f 39/41/6 38/42/6 37/43/6
f 46/44/1 42/40/1 41/22/1
f 47/18/2 43/19/2 42/17/2
f 48/45/3 44/46/3 43/19/3
f 45/20/4 41/17/4 44/19/4
f 47/12/6 46/13/6 45/47/6
f 54/48/1 50/49/1 49/39/1
f 55/18/2 51/19/2 50/17/2
f 56/48/3 52/49/3 51/50/3
f 53/20/4 49/17/4 52/19/4
f 55/51/6 54/52/6 53/53/6
f 5/54/1 6/1/1 1/3/1
f 6/8/2 7/4/2 2/3/2
f 7/55/3 8/5/3 3/7/3
f 8/4/4 5/8/4 4/2/4
f 1/56/5 2/9/5 4/11/5
f 8/57/6 7/12/6 5/14/6
f 13/20/1 14/15/1 9/17/1
f 14/20/2 15/18/2 10/17/2
f 15/15/3 16/20/3 11/16/3
f 16/18/4 13/20/4 12/19/4
f 21/58/1 22/21/1 17/23/1
f 16/57/6 15/24/6 13/14/6
f 22/20/2 23/18/2 18/17/2
f 23/59/3 24/26/3 19/28/3
f 24/18/4 21/20/4 20/19/4
f 24/60/6 23/29/6 21/31/6
f 29/59/1 30/32/1 25/28/1
f 30/20/2 31/18/2 26/17/2
f 31/26/3 32/34/3 27/27/3
f 32/18/4 29/20/4 28/19/4
f 32/61/6 31/36/6 29/2/6
f 37/44/1 38/38/1 33/40/1
f 38/20/2 39/18/2 34/17/2
f 39/58/3 40/32/3 35/23/3
f 40/18/4 37/20/4 36/19/4
f 40/62/6 39/41/6 37/43/6
f 45/21/1 46/44/1 41/22/1
f 46/20/2 47/18/2 42/17/2
f 47/18/3 48/45/3 43/19/3
f 48/18/4 45/20/4 44/19/4
f 48/63/6 47/12/6 45/47/6
f 53/38/1 54/48/1 49/39/1
f 54/20/2 55/18/2 50/17/2
f 55/64/3 56/48/3 51/50/3
f 56/18/4 53/20/4 52/19/4
f 56/65/6 55/51/6 53/53/6
o Minecraft_Block_Cube
v 0.500000 -0.500000 -0.500000
v 0.500000 -0.500000 0.500000
v -0.500000 -0.500000 0.500000
v -0.500000 -0.500000 -0.500000
v 0.500000 0.500000 -0.500000
v 0.500000 0.500000 0.500000
v -0.500000 0.500000 0.500000
v -0.500000 0.500000 -0.500000
vn 0.000000 -1.000000 0.000000
vn 0.000000 1.000000 0.000000
vn 1.000000 0.000000 0.000000
vn -0.000000 0.000000 1.000000
vn -1.000000 -0.000000 -0.000000
vn 0.000000 0.000000 -1.000000
usemtl Material
s off
f 58//7 59//7 60//7
f 64//8 63//8 62//8
f 61//9 62//9 58//9
f 62//10 63//10 59//10
f 63//11 64//11 60//11
f 57//12 60//12 64//12
f 57//7 58//7 60//7
f 61//8 64//8 62//8
f 57//9 61//9 58//9
f 58//10 62//10 59//10
f 59//11 63//11 60//11
f 61//12 57//12 64//12
