# Blender v2.76 (sub 0) OBJ File: 'EmergencyExitLighting.blend'
# www.blender.org
mtllib EmergencyExitLighting.mtl
o coreCeil
v 0.125000 -0.375000 -0.031250
v 0.125000 0.375000 -0.031250
v 0.125000 -0.375000 0.031250
v 0.125000 0.375000 0.031250
v 0.062500 0.437500 -0.100000
v 0.000000 0.437500 -0.100000
v 0.000000 0.437500 0.100000
v 0.062500 0.437500 0.100000
v 0.062500 -0.437500 -0.100000
v 0.000000 -0.437500 -0.100000
v 0.000000 -0.437500 0.100000
v 0.062500 -0.437500 0.100000
vt 0.437500 0.781250
vt 0.437500 0.750000
vt 0.468750 0.718750
vt 0.000000 0.593750
vt 0.031250 0.593750
vt 0.031250 0.687500
vt 0.031250 0.718750
vt 0.031250 0.812500
vt 0.000000 0.812500
vt 0.062500 0.750000
vt 0.062500 0.781250
vt 0.468750 0.531250
vt 0.500000 0.531250
vt 0.500000 0.968750
vt 0.062500 0.531250
vt 0.031250 0.500000
vt 0.468750 0.500000
vt 0.062500 0.937500
vt 0.437500 0.937500
vt 0.468750 0.968750
vt 0.031250 1.000000
vt 0.031250 0.968750
vt 0.000000 0.875000
vt 0.000000 0.843750
vt 0.031250 0.843750
vt 0.468750 0.812500
vt 0.000000 0.687500
vt 0.000000 0.718750
vt 0.437500 0.531250
vt 0.468750 1.000000
vt 0.031250 0.875000
vn 0.707100 0.707100 0.000000
vn 0.000000 1.000000 0.000000
vn 0.000000 -1.000000 0.000000
vn 0.707100 -0.707100 0.000000
vn 0.000000 0.000000 -1.000000
vn 0.739900 0.000000 -0.672700
vn 0.739900 -0.000000 0.672700
vn 0.000000 -0.000000 1.000000
vn -1.000000 0.000000 0.000000
usemtl None
s off
f 4/1/1 2/2/1 5/3/1
f 7/4/2 8/5/2 5/6/2
f 9/7/3 12/8/3 11/9/3
f 9/7/4 1/10/4 3/11/4
f 9/12/5 10/13/5 6/14/5
f 1/15/6 9/16/6 5/17/6
f 3/18/7 4/19/7 8/20/7
f 11/21/8 12/22/8 8/20/8
f 10/23/9 11/24/9 7/25/9
f 8/26/1 4/1/1 5/3/1
f 6/27/2 7/4/2 5/6/2
f 10/28/3 9/7/3 11/9/3
f 12/8/4 9/7/4 3/11/4
f 5/20/5 9/12/5 6/14/5
f 2/29/6 1/15/6 5/17/6
f 12/22/7 3/18/7 8/20/7
f 7/30/8 11/21/8 8/20/8
f 6/31/9 10/23/9 7/25/9
o coreWallL
v 0.250000 -0.375000 0.125000
v 0.250000 -0.375000 -0.125000
v 0.250000 0.375000 0.125000
v 0.250000 0.375000 -0.125000
vt 0.625000 0.875000
vt 1.000000 0.875000
vt 1.000000 0.750000
vt 0.625000 0.750000
vn 1.000000 -0.000000 0.000000
usemtl None
s off
f 14/32/10 16/33/10 15/34/10
f 13/35/10 14/32/10 15/34/10
o coreWallR
v 0.250000 0.375000 -0.125000
v 0.250000 0.375000 0.125000
v 0.250000 -0.375000 -0.125000
v 0.250000 -0.375000 0.125000
vt 1.000000 0.875000
vt 0.625000 0.875000
vt 0.625000 0.750000
vt 1.000000 0.750000
vn 1.000000 0.000000 0.000000
usemtl None
s off
f 18/36/11 20/37/11 19/38/11
f 17/39/11 18/36/11 19/38/11
o lightWall
v 0.003906 -0.500000 -0.500000
v 0.003906 0.500000 -0.500000
v 0.003906 -0.500000 0.500000
v 0.003906 0.500000 0.500000
vt 1.000000 0.000000
vt 1.000000 0.500000
vt 0.500000 0.500000
vt 0.500000 0.000000
vn 1.000000 -0.000000 0.000000
usemtl None
s off
f 22/40/12 24/41/12 23/42/12
f 21/43/12 22/40/12 23/42/12
o coreWall
v 0.000000 0.375000 -0.125000
v 0.000000 0.375000 0.125000
v 0.000000 -0.375000 -0.125000
v 0.000000 -0.375000 0.125000
v 0.250000 0.375000 -0.125000
v 0.250000 0.375000 0.125000
v 0.250000 -0.375000 -0.125000
v 0.250000 -0.375000 0.125000
vt 0.000000 0.875000
vt 0.000000 0.843750
vt 0.031250 0.843750
vt 0.625000 0.875000
vt 1.000000 0.875000
vt 1.000000 1.000000
vt 1.000000 0.750000
vt 0.625000 0.750000
vt 0.625000 0.625000
vt 0.625000 1.000000
vt 0.500000 1.000000
vt 0.500000 0.750000
vt 0.031250 0.875000
vt 1.000000 0.625000
vt 0.500000 0.875000
vt 0.500000 0.625000
vn -1.000000 0.000000 0.000000
vn 0.000000 -0.000000 1.000000
vn 0.000000 0.000000 -1.000000
vn 0.000000 -1.000000 0.000000
vn 0.000000 1.000000 0.000000
usemtl None
s off
f 27/44/13 28/45/13 26/46/13
f 32/47/14 30/48/14 26/49/14
f 29/50/15 31/51/15 27/52/15
f 31/47/16 32/53/16 28/54/16
f 30/52/17 29/51/17 25/55/17
f 25/56/13 27/44/13 26/46/13
f 28/53/14 32/47/14 26/49/14
f 25/57/15 29/50/15 27/52/15
f 27/58/16 31/47/16 28/54/16
f 26/59/17 30/52/17 25/55/17
o reflCeil
v 0.500000 -0.375000 -0.035156
v 0.500000 0.375000 -0.035156
v 0.500000 -0.375000 0.035156
v 0.500000 0.375000 0.035156
v 0.125000 -0.375000 -0.035156
v 0.125000 0.375000 -0.035156
v 0.125000 -0.375000 0.035156
v 0.125000 0.375000 0.035156
vt 0.625000 0.375000
vt 0.625000 0.625000
vt 0.375000 0.625000
vt 0.375000 0.375000
vn 0.000000 -0.000000 1.000000
vn 0.000000 0.000000 -1.000000
usemtl None_Reflection.png
s off
f 36/60/18 40/61/18 39/62/18
f 37/63/19 38/63/19 34/63/19
f 35/63/18 36/60/18 39/62/18
f 33/63/19 37/63/19 34/63/19
o lightCeil
v 0.003906 -0.500000 -0.500000
v 0.003906 0.500000 -0.500000
v 0.003906 -0.500000 0.500000
v 0.003906 0.500000 0.500000
vt 0.500000 0.000000
vt 0.500000 0.500000
vt 0.000000 0.500000
vt 0.000000 0.000000
vn 1.000000 -0.000000 0.000000
usemtl None
s off
f 42/64/20 44/65/20 43/66/20
f 41/67/20 42/64/20 43/66/20
o panelCeil
v 0.125000 -0.375000 -0.031250
v 0.125000 0.375000 -0.031250
v 0.500000 -0.375000 -0.031250
v 0.500000 0.375000 -0.031250
v 0.125000 -0.375000 0.031250
v 0.125000 0.375000 0.031250
v 0.500000 -0.375000 0.031250
v 0.500000 0.375000 0.031250
vt 0.437500 0.531250
vt 0.437500 0.718750
vt 0.062500 0.718750
vt 0.062500 0.750000
vt 0.437500 0.750000
vt 0.437500 0.937500
vt 0.468750 0.531250
vt 0.468750 0.718750
vt 0.500000 0.000000
vt 0.500000 1.000000
vt 0.000000 1.000000
vt 0.031250 0.718750
vt 0.031250 0.531250
vt 0.062500 0.531250
vt 0.062500 0.937500
vt 0.000000 0.000000
vn 0.000000 0.000000 -1.000000
vn -0.000000 -0.000000 1.000000
vn 1.000000 0.000000 0.000000
vn 0.000000 1.000000 0.000000
vn 0.000000 -1.000000 0.000000
usemtl None
s off
f 46/68/21 48/69/21 47/70/21
f 51/71/22 52/72/22 50/73/22
f 52/72/23 51/71/23 47/70/23
f 50/74/24 52/75/24 48/69/24
f 46/76/23 50/77/23 49/78/23
f 51/79/25 49/80/25 45/81/25
f 45/81/21 46/68/21 47/70/21
f 49/82/22 51/71/22 50/73/22
f 48/69/23 52/72/23 47/70/23
f 46/68/24 50/74/24 48/69/24
f 45/83/23 46/76/23 49/78/23
f 47/70/25 51/79/25 45/81/25
o Minecraft_2_Edge_Connectivity_Cube.002
v 0.000000 0.500000 -0.500000
v 0.000000 -0.500000 -0.500000
v 0.000000 -0.500000 0.500000
v 0.000000 0.500000 0.500000
v 0.500000 -0.000000 -0.500000
v 0.500000 0.000000 0.500000
vn -1.000000 0.000000 0.000000
vn 0.707100 -0.707100 0.000000
vn 0.000000 0.000000 -1.000000
vn -0.000000 0.000000 1.000000
vn 0.707100 0.707100 -0.000000
usemtl Material
s off
f 54//26 55//26 56//26
f 57//27 58//27 55//27
f 53//28 57//28 54//28
f 55//29 58//29 56//29
f 53//30 56//30 58//30
f 53//26 54//26 56//26
f 54//27 57//27 55//27
f 57//30 53//30 58//30
o Minecraft_4_Edge_Connectivity_Cube.001
v 0.000000 0.500000 -0.500000
v 0.000000 -0.500000 -0.500000
v 0.000000 -0.500000 0.500000
v 0.000000 0.500000 0.500000
v 0.500000 -0.000000 0.000000
vn -1.000000 0.000000 0.000000
vn 0.707100 0.000000 -0.707100
vn 0.707100 -0.707100 0.000000
vn 0.707100 0.000000 0.707100
vn 0.707100 0.707100 -0.000000
usemtl Material
s off
f 60//31 61//31 62//31
f 59//32 63//32 60//32
f 60//33 63//33 61//33
f 61//34 63//34 62//34
f 63//35 59//35 62//35
f 59//31 60//31 62//31
o Minecraft_Block_Cube
v 0.000000 0.500000 -0.500000
v 0.000000 -0.500000 -0.500000
v 0.000000 -0.500000 0.500000
v 0.000000 0.500000 0.500000
v 1.000000 0.500000 -0.500000
v 1.000000 -0.500000 -0.500000
v 1.000000 -0.500000 0.500000
v 1.000000 0.500000 0.500000
vn -1.000000 0.000000 0.000000
vn 1.000000 0.000000 0.000000
vn 0.000000 -0.000000 -1.000000
vn 0.000000 -1.000000 0.000000
vn -0.000000 0.000000 1.000000
vn 0.000000 1.000000 -0.000000
usemtl Material
s off
f 65//36 66//36 67//36
f 71//37 70//37 69//37
f 68//38 69//38 65//38
f 69//39 70//39 66//39
f 66//40 70//40 71//40
f 64//41 67//41 71//41
f 64//36 65//36 67//36
f 68//37 71//37 69//37
f 64//38 68//38 65//38
f 65//39 69//39 66//39
f 67//40 66//40 71//40
f 68//41 64//41 71//41
