# Blender v2.76 (sub 0) OBJ File: 'AnalogChips.blend'
# www.blender.org
mtllib AnalogChips.mtl
o SAH
v 0.133971 -0.225000 0.225000
v 0.133971 0.225000 0.225000
v 0.133971 0.225000 -0.225000
v 0.133971 -0.225000 -0.225000
vt 0.234375 0.515625
vt 0.015625 0.515625
vt 0.015625 0.296875
vt 0.234375 0.296875
vn 1.000000 0.000000 0.000000
usemtl None
s off
f 3/1/1 2/2/1 1/3/1
f 4/4/1 3/1/1 1/3/1
o SUM
v 0.133971 -0.225000 0.225000
v 0.133971 0.225000 0.225000
v 0.133971 0.225000 -0.225000
v 0.133971 -0.225000 -0.225000
vt 0.703125 0.750000
vt 0.484375 0.750000
vt 0.484375 0.531250
vt 0.703125 0.531250
vn 1.000000 0.000000 0.000000
usemtl None
s off
f 7/5/2 6/6/2 5/7/2
f 8/8/2 7/5/2 5/7/2
o AMP
v 0.133971 -0.225000 0.225000
v 0.133971 0.225000 0.225000
v 0.133971 0.225000 -0.225000
v 0.133971 -0.225000 -0.225000
vt 0.234375 0.750000
vt 0.015625 0.750000
vt 0.015625 0.531250
vt 0.234375 0.531250
vn 1.000000 0.000000 0.000000
usemtl None
s off
f 11/9/3 10/10/3 9/11/3
f 12/12/3 11/9/3 9/11/3
o PID
v 0.133971 -0.225000 0.225000
v 0.133971 0.225000 0.225000
v 0.133971 0.225000 -0.225000
v 0.133971 -0.225000 -0.225000
vt 0.468750 0.984375
vt 0.250000 0.984375
vt 0.250000 0.765625
vt 0.468750 0.765625
vn 1.000000 0.000000 0.000000
usemtl None
s off
f 15/13/4 14/14/4 13/15/4
f 16/16/4 15/13/4 13/15/4
o OP
v 0.133971 -0.225000 0.225000
v 0.133971 0.225000 0.225000
v 0.133971 0.225000 -0.225000
v 0.133971 -0.225000 -0.225000
vt 0.234375 0.984375
vt 0.015625 0.984375
vt 0.015625 0.765625
vt 0.234375 0.765625
vn 1.000000 0.000000 0.000000
usemtl None
s off
f 19/17/5 18/18/5 17/19/5
f 20/20/5 19/17/5 17/19/5
o VCO-SIN
v 0.133971 -0.225000 0.225000
v 0.133971 0.225000 0.225000
v 0.133971 0.225000 -0.225000
v 0.133971 -0.225000 -0.225000
vt 0.937500 0.984375
vt 0.718750 0.984375
vt 0.718750 0.765625
vt 0.937500 0.765625
vn 1.000000 0.000000 0.000000
usemtl None
s off
f 23/21/6 22/22/6 21/23/6
f 24/24/6 23/21/6 21/23/6
o VCO-SAW
v 0.133971 -0.225000 0.225000
v 0.133971 0.225000 0.225000
v 0.133971 0.225000 -0.225000
v 0.133971 -0.225000 -0.225000
vt 0.703125 0.984375
vt 0.484375 0.984375
vt 0.484375 0.765625
vt 0.703125 0.765625
vn 1.000000 0.000000 0.000000
usemtl None
s off
f 27/25/7 26/26/7 25/27/7
f 28/28/7 27/25/7 25/27/7
o VCA
v 0.133971 -0.225000 0.225000
v 0.133971 0.225000 0.225000
v 0.133971 0.225000 -0.225000
v 0.133971 -0.225000 -0.225000
vt 0.468750 0.750000
vt 0.250000 0.750000
vt 0.250000 0.531250
vt 0.468750 0.531250
vn 1.000000 0.000000 0.000000
usemtl None
s off
f 31/29/8 30/30/8 29/31/8
f 32/32/8 31/29/8 29/31/8
o Input3
v 0.000000 0.250000 -0.100000
v 0.070000 0.250000 -0.100000
v 0.000000 0.250000 0.100000
v 0.070000 0.250000 0.100000
v 0.000000 0.303994 -0.100000
v 0.070000 0.303994 -0.100000
v 0.000000 0.303994 0.100000
v 0.070000 0.303994 0.100000
v 0.061462 0.328581 0.095000
v 0.000000 0.328581 0.095000
v 0.061462 0.328581 -0.095000
v 0.000000 0.328581 -0.095000
vt 0.859375 0.578125
vt 0.953125 0.578125
vt 0.953125 0.625000
vt 0.953125 0.328125
vt 0.953125 0.359375
vt 0.859375 0.359375
vt 0.859375 0.281250
vt 0.953125 0.281250
vt 0.828125 0.546875
vt 0.781250 0.546875
vt 0.781250 0.359375
vt 0.953125 0.546875
vt 0.984375 0.546875
vt 0.828125 0.359375
vt 0.859375 0.546875
vt 0.859375 0.625000
vt 0.859375 0.328125
vt 0.984375 0.359375
vn 0.000000 0.000000 1.000000
vn 0.000000 0.199300 -0.979900
vn 0.000000 0.000000 -1.000000
vn 1.000000 0.000000 0.000000
vn 0.000000 1.000000 0.000000
vn -1.000000 0.000000 0.000000
vn 0.944700 0.328000 0.000000
vn 0.000000 0.199300 0.979900
usemtl None
s off
f 40/33/9 39/34/9 35/35/9
f 37/36/10 44/37/10 43/38/10
f 34/39/11 33/40/11 37/36/11
f 40/41/12 36/42/12 34/43/12
f 43/38/13 44/37/13 42/44/13
f 39/45/14 42/44/14 44/37/14
f 38/46/15 43/38/15 41/47/15
f 39/34/16 40/33/16 41/47/16
f 36/48/9 40/33/9 35/35/9
f 38/49/10 37/36/10 43/38/10
f 38/49/11 34/39/11 37/36/11
f 38/46/12 40/41/12 34/43/12
f 41/47/13 43/38/13 42/44/13
f 37/50/14 39/45/14 44/37/14
f 40/41/15 38/46/15 41/47/15
f 42/44/16 39/34/16 41/47/16
o Input2
v 0.000000 -0.250000 0.100000
v 0.070000 -0.250000 0.100000
v 0.000000 -0.250000 -0.100000
v 0.070000 -0.250000 -0.100000
v 0.000000 -0.303994 0.100000
v 0.070000 -0.303994 0.100000
v 0.000000 -0.303994 -0.100000
v 0.070000 -0.303994 -0.100000
v 0.061462 -0.328581 -0.095000
v 0.000000 -0.328581 -0.095000
v 0.061462 -0.328581 0.095000
v 0.000000 -0.328581 0.095000
vt 0.859375 0.578125
vt 0.953125 0.578125
vt 0.953125 0.625000
vt 0.953125 0.328125
vt 0.953125 0.359375
vt 0.859375 0.359375
vt 0.859375 0.281250
vt 0.953125 0.281250
vt 0.828125 0.546875
vt 0.781250 0.546875
vt 0.781250 0.359375
vt 0.953125 0.546875
vt 0.984375 0.546875
vt 0.828125 0.359375
vt 0.859375 0.546875
vt 0.859375 0.625000
vt 0.859375 0.328125
vt 0.984375 0.359375
vn 0.000000 0.000000 -1.000000
vn 0.000000 -0.199300 0.979900
vn 0.000000 0.000000 1.000000
vn 1.000000 0.000000 0.000000
vn 0.000000 -1.000000 0.000000
vn -1.000000 0.000000 0.000000
vn 0.944700 -0.328000 0.000000
vn 0.000000 -0.199300 -0.979900
usemtl None
s off
f 52/51/17 51/52/17 47/53/17
f 49/54/18 56/55/18 55/56/18
f 46/57/19 45/58/19 49/54/19
f 52/59/20 48/60/20 46/61/20
f 55/56/21 56/55/21 54/62/21
f 51/63/22 54/62/22 56/55/22
f 50/64/23 55/56/23 53/65/23
f 51/52/24 52/51/24 53/65/24
f 48/66/17 52/51/17 47/53/17
f 50/67/18 49/54/18 55/56/18
f 50/67/19 46/57/19 49/54/19
f 50/64/20 52/59/20 46/61/20
f 53/65/21 55/56/21 54/62/21
f 49/68/22 51/63/22 56/55/22
f 52/59/23 50/64/23 53/65/23
f 54/62/24 51/52/24 53/65/24
o Input1
v 0.000000 0.100000 0.250000
v 0.070000 0.100000 0.250000
v 0.000000 -0.100000 0.250000
v 0.070000 -0.100000 0.250000
v 0.000000 0.100000 0.303993
v 0.070000 0.100000 0.303993
v 0.000000 -0.100000 0.303994
v 0.070000 -0.100000 0.303994
v 0.061462 -0.095000 0.328581
v 0.000000 -0.095000 0.328581
v 0.061462 0.095000 0.328581
v 0.000000 0.095000 0.328581
vt 0.859375 0.578125
vt 0.953125 0.578125
vt 0.953125 0.625000
vt 0.953125 0.328125
vt 0.953125 0.359375
vt 0.859375 0.359375
vt 0.859375 0.281250
vt 0.953125 0.281250
vt 0.828125 0.546875
vt 0.781250 0.546875
vt 0.781250 0.359375
vt 0.953125 0.546875
vt 0.984375 0.359375
vt 0.984375 0.546875
vt 0.828125 0.359375
vt 0.859375 0.546875
vt 0.859375 0.625000
vt 0.859375 0.328125
vn 0.000000 -1.000000 0.000000
vn 0.000000 0.979900 0.199300
vn 0.000000 1.000000 0.000000
vn 1.000000 -0.000000 0.000000
vn 0.000000 0.000000 1.000000
vn -1.000000 0.000000 0.000000
vn 0.944700 0.000000 0.328000
vn 0.000000 -0.979900 0.199300
usemtl None
s off
f 64/69/25 63/70/25 59/71/25
f 61/72/26 68/73/26 67/74/26
f 58/75/27 57/76/27 61/72/27
f 64/77/28 60/78/28 58/79/28
f 67/74/29 68/73/29 66/80/29
f 61/81/30 63/82/30 66/80/30
f 62/83/31 67/74/31 65/84/31
f 63/70/32 64/69/32 65/84/32
f 60/85/25 64/69/25 59/71/25
f 62/86/26 61/72/26 67/74/26
f 62/86/27 58/75/27 61/72/27
f 62/83/28 64/77/28 58/79/28
f 65/84/29 67/74/29 66/80/29
f 68/73/30 61/81/30 66/80/30
f 64/77/31 62/83/31 65/84/31
f 66/80/32 63/70/32 65/84/32
o Output
v 0.000000 -0.100000 -0.250000
v 0.070000 -0.100000 -0.250000
v 0.000000 0.100000 -0.250000
v 0.070000 0.100000 -0.250000
v 0.000000 -0.100000 -0.303994
v 0.070000 -0.100000 -0.303994
v 0.000000 0.100000 -0.303994
v 0.070000 0.100000 -0.303994
v 0.061462 0.095000 -0.328581
v 0.000000 0.095000 -0.328581
v 0.061462 -0.095000 -0.328581
v 0.000000 -0.095000 -0.328581
vt 0.859375 0.578125
vt 0.953125 0.578125
vt 0.953125 0.625000
vt 0.953125 0.328125
vt 0.953125 0.359375
vt 0.859375 0.359375
vt 0.859375 0.281250
vt 0.953125 0.281250
vt 0.828125 0.546875
vt 0.781250 0.546875
vt 0.781250 0.359375
vt 0.953125 0.546875
vt 0.984375 0.546875
vt 0.828125 0.359375
vt 0.859375 0.546875
vt 0.859375 0.625000
vt 0.859375 0.328125
vt 0.984375 0.359375
vn 0.000000 1.000000 0.000000
vn 0.000000 -0.979900 -0.199300
vn 0.000000 -1.000000 0.000000
vn 1.000000 0.000000 0.000000
vn 0.000000 0.000000 -1.000000
vn -1.000000 0.000000 0.000000
vn 0.944700 0.000000 -0.328000
vn 0.000000 0.979900 -0.199300
usemtl None
s off
f 76/87/33 75/88/33 71/89/33
f 73/90/34 80/91/34 79/92/34
f 70/93/35 69/94/35 73/90/35
f 76/95/36 72/96/36 70/97/36
f 79/92/37 80/91/37 78/98/37
f 75/99/38 78/98/38 80/91/38
f 74/100/39 79/92/39 77/101/39
f 75/88/40 76/87/40 77/101/40
f 72/102/33 76/87/33 71/89/33
f 74/103/34 73/90/34 79/92/34
f 74/103/35 70/93/35 73/90/35
f 74/100/36 76/95/36 70/97/36
f 77/101/37 79/92/37 78/98/37
f 73/104/38 75/99/38 80/91/38
f 76/95/39 74/100/39 77/101/39
f 78/98/40 75/88/40 77/101/40
o Case
v 0.000000 -0.250000 0.250000
v 0.120000 -0.250000 0.250000
v 0.000000 0.250000 0.250000
v 0.120000 0.250000 0.250000
v 0.000000 -0.250000 -0.250000
v 0.120000 -0.250000 -0.250000
v 0.000000 0.250000 -0.250000
v 0.120000 0.250000 -0.250000
v 0.133971 -0.225000 0.225000
v 0.133971 0.225000 0.225000
v 0.133971 0.225000 -0.225000
v 0.133971 -0.225000 -0.225000
vt 0.984375 0.218750
vt 0.984375 0.015625
vt 0.781250 0.015625
vt 0.578125 0.218750
vt 0.578125 0.015625
vt 0.968750 0.234375
vt 0.796875 0.234375
vt 0.593750 0.234375
vt 0.765625 0.234375
vt 0.765625 0.203125
vt 0.765625 0.015625
vt 0.781250 0.218750
vt 0.578125 0.203125
vn 0.000000 0.000000 1.000000
vn 0.000000 1.000000 0.000000
vn 0.000000 0.000000 -1.000000
vn 0.000000 -1.000000 0.000000
vn 0.872900 0.000000 -0.487800
vn 0.872900 0.000000 0.487800
vn 0.872900 -0.487800 0.000000
vn 0.872900 0.487800 0.000000
vn -1.000000 0.000000 0.000000
usemtl None
s off
f 84/105/41 83/106/41 81/107/41
f 88/105/42 87/106/42 83/107/42
f 86/108/43 85/109/43 87/107/43
f 82/108/44 81/109/44 85/107/44
f 88/105/45 91/110/45 92/111/45
f 82/108/46 89/112/46 90/113/46
f 86/105/47 92/110/47 89/111/47
f 84/108/48 90/112/48 91/113/48
f 87/114/49 85/115/49 81/109/49
f 82/116/41 84/105/41 81/107/41
f 84/116/42 88/105/42 83/107/42
f 88/116/43 86/108/43 87/107/43
f 86/116/44 82/108/44 85/107/44
f 86/116/45 88/105/45 92/111/45
f 84/116/46 82/108/46 90/113/46
f 82/116/47 86/105/47 89/111/47
f 88/116/48 84/108/48 91/113/48
f 83/117/49 87/114/49 81/109/49
o Minecraft_2_Edge_Connectivity_Cube.002
v 0.000000 0.500000 -0.500000
v 0.000000 -0.500000 -0.500000
v 0.000000 -0.500000 0.500000
v 0.000000 0.500000 0.500000
v 0.500000 -0.000000 -0.500000
v 0.500000 0.000000 0.500000
vn -1.000000 0.000000 0.000000
vn 0.707100 -0.707100 0.000000
vn 0.000000 0.000000 -1.000000
vn -0.000000 0.000000 1.000000
vn 0.707100 0.707100 -0.000000
usemtl Material
s off
f 94//50 95//50 96//50
f 97//51 98//51 95//51
f 93//52 97//52 94//52
f 95//53 98//53 96//53
f 93//54 96//54 98//54
f 93//50 94//50 96//50
f 94//51 97//51 95//51
f 97//54 93//54 98//54
o Minecraft_4_Edge_Connectivity_Cube.001
v 0.000000 0.500000 -0.500000
v 0.000000 -0.500000 -0.500000
v 0.000000 -0.500000 0.500000
v 0.000000 0.500000 0.500000
v 0.500000 -0.000000 0.000000
vn -1.000000 0.000000 0.000000
vn 0.707100 0.000000 -0.707100
vn 0.707100 -0.707100 0.000000
vn 0.707100 0.000000 0.707100
vn 0.707100 0.707100 -0.000000
usemtl Material
s off
f 100//55 101//55 102//55
f 99//56 103//56 100//56
f 100//57 103//57 101//57
f 101//58 103//58 102//58
f 103//59 99//59 102//59
f 99//55 100//55 102//55
o Minecraft_Block_Cube
v 0.000000 0.500000 -0.500000
v 0.000000 -0.500000 -0.500000
v 0.000000 -0.500000 0.500000
v 0.000000 0.500000 0.500000
v 1.000000 0.500000 -0.500000
v 1.000000 -0.500000 -0.500000
v 1.000000 -0.500000 0.500000
v 1.000000 0.500000 0.500000
vn -1.000000 0.000000 0.000000
vn 1.000000 0.000000 0.000000
vn 0.000000 -0.000000 -1.000000
vn 0.000000 -1.000000 0.000000
vn -0.000000 0.000000 1.000000
vn 0.000000 1.000000 -0.000000
usemtl Material
s off
f 105//60 106//60 107//60
f 111//61 110//61 109//61
f 108//62 109//62 105//62
f 109//63 110//63 106//63
f 106//64 110//64 111//64
f 104//65 107//65 111//65
f 104//60 105//60 107//60
f 108//61 111//61 109//61
f 104//62 108//62 105//62
f 105//63 109//63 106//63
f 107//64 106//64 111//64
f 108//65 104//65 111//65
