# Blender v2.76 (sub 0) OBJ File: 'signalsource.blend'
# www.blender.org
mtllib signalsource.mtl
o led
v 0.126019 -0.123510 -0.123474
v 0.126019 -0.065153 -0.123474
v 0.126019 -0.123510 -0.065117
v 0.126019 -0.065153 -0.065117
vt 0.468750 0.281250
vt 0.468750 0.343750
vt 0.406250 0.343750
vt 0.406250 0.281250
vn 1.000000 0.000000 0.000000
usemtl None
s off
f 2/1/1 4/2/1 3/3/1
f 1/4/1 2/1/1 3/3/1
o main
v 0.000000 -0.187500 0.187500
v 0.000000 0.187500 0.187500
v 0.000000 0.187500 -0.187500
v 0.000000 -0.187500 -0.187500
v 0.125000 -0.187500 0.187500
v 0.125000 0.187500 0.187500
v 0.125000 0.187500 -0.187500
v 0.125000 -0.187500 -0.187500
vt 1.000000 0.125000
vt 1.000000 0.062500
vt 0.812500 0.062500
vt 0.812500 0.000000
vt 0.625000 0.000000
vt 1.000000 0.000000
vt 0.812500 0.125000
vt 0.625000 0.062500
vt 0.812500 0.312500
vt 1.000000 0.312500
vt 0.562500 1.031250
vt -0.000000 1.031250
vt -0.000000 0.468750
vt 0.625000 0.125000
vt 0.562500 0.468750
vn 0.000000 0.000000 1.000000
vn 0.000000 1.000000 -0.000000
vn 0.000000 -0.000000 -1.000000
vn 0.000000 -1.000000 0.000000
vn -1.000000 0.000000 0.000000
vn 1.000000 -0.000000 0.000000
usemtl None
s off
f 10/5/2 6/6/2 5/7/2
f 11/7/3 7/8/3 6/9/3
f 12/6/4 8/10/4 7/8/4
f 9/11/5 5/7/5 8/12/5
f 6/13/6 7/14/6 8/5/6
f 11/15/7 10/16/7 9/17/7
f 9/11/2 10/5/2 5/7/2
f 10/12/3 11/7/3 6/9/3
f 11/7/4 12/6/4 7/8/4
f 12/18/5 9/11/5 8/12/5
f 5/11/6 6/13/6 8/5/6
f 12/19/7 11/15/7 9/17/7
o Minecraft_2_Edge_Connectivity_Cube.002
v 0.000000 0.500000 0.500000
v 0.000000 0.500000 -0.500000
v 0.000000 -0.500000 -0.500000
v 0.000000 -0.500000 0.500000
v 0.500000 0.500000 -0.000000
v 0.500000 -0.500000 0.000000
vn -1.000000 0.000000 0.000000
vn 0.707100 -0.000000 -0.707100
vn 0.000000 1.000000 0.000000
vn -0.000000 -1.000000 0.000000
vn 0.707100 0.000000 0.707100
usemtl Material
s off
f 14//8 15//8 16//8
f 17//9 18//9 15//9
f 13//10 17//10 14//10
f 15//11 18//11 16//11
f 13//12 16//12 18//12
f 13//8 14//8 16//8
f 14//9 17//9 15//9
f 17//12 13//12 18//12
o Minecraft_4_Edge_Connectivity_Cube.001
v 0.000000 0.500000 0.500000
v 0.000000 0.500000 -0.500000
v 0.000000 -0.500000 -0.500000
v 0.000000 -0.500000 0.500000
v 0.500000 -0.000000 -0.000000
vn -1.000000 0.000000 0.000000
vn 0.707100 0.707100 0.000000
vn 0.707100 -0.000000 -0.707100
vn 0.707100 -0.707100 0.000000
vn 0.707100 0.000000 0.707100
usemtl Material
s off
f 20//13 21//13 22//13
f 19//14 23//14 20//14
f 20//15 23//15 21//15
f 21//16 23//16 22//16
f 23//17 19//17 22//17
f 19//13 20//13 22//13
o Minecraft_Block_Cube
v 0.000000 0.500000 0.500000
v 0.000000 0.500000 -0.500000
v 0.000000 -0.500000 -0.500000
v 0.000000 -0.500000 0.500000
v 1.000000 0.500000 0.500000
v 1.000000 0.500000 -0.500000
v 1.000000 -0.500000 -0.500000
v 1.000000 -0.500000 0.500000
vn -1.000000 0.000000 0.000000
vn 1.000000 0.000000 0.000000
vn 0.000000 1.000000 -0.000000
vn -0.000000 -0.000000 -1.000000
vn -0.000000 -1.000000 0.000000
vn 0.000000 0.000000 1.000000
usemtl Material
s off
f 25//18 26//18 27//18
f 31//19 30//19 29//19
f 28//20 29//20 25//20
f 29//21 30//21 26//21
f 26//22 30//22 31//22
f 24//23 27//23 31//23
f 24//18 25//18 27//18
f 28//19 31//19 29//19
f 24//20 28//20 25//20
f 25//21 29//21 26//21
f 27//22 26//22 31//22
f 28//23 24//23 31//23
