# Blender v2.78 (sub 0) OBJ File: 'TestCube.blend'
# www.blender.org
mtllib TestCube.mtl
o Cube
v 0.500000 -0.500000 -0.500000
v 0.500000 -0.500000 0.500000
v -0.500000 -0.500000 0.500000
v -0.500000 -0.500000 -0.500000
v 0.500000 0.500000 -0.500000
v 0.500000 0.500000 0.500000
v -0.500000 0.500000 0.500000
v -0.500000 0.500000 -0.500000
vt 1.0000 0.0000
vt 0.6667 0.3333
vt 0.6667 0.0000
vt 0.6667 0.6667
vt 0.3333 0.3333
vt 0.6667 0.3333
vt 0.3333 0.3333
vt 0.6667 0.0000
vt 0.6667 0.3333
vt 0.0000 0.0000
vt 0.3333 0.3333
vt 0.0000 0.3333
vt 0.3333 1.0000
vt 0.0000 0.6667
vt 0.3333 0.6667
vt 0.3333 0.3333
vt 0.0000 0.3333
vt 1.0000 0.3333
vt 0.3333 0.6667
vt 0.3333 0.0000
vt 0.3333 0.0000
vt 0.0000 1.0000
vn 0.0000 -1.0000 0.0000
vn 0.0000 1.0000 -0.0000
vn 1.0000 -0.0000 0.0000
vn -0.0000 -0.0000 1.0000
vn -1.0000 -0.0000 -0.0000
vn 0.0000 0.0000 -1.0000
usemtl Cube
s off
f 2/1/1 4/2/1 1/3/1
f 8/4/2 6/5/2 5/6/2
f 5/7/3 2/8/3 1/9/3
f 6/10/4 3/11/4 2/12/4
f 3/13/5 8/14/5 4/15/5
f 1/16/6 8/14/6 5/17/6
f 2/1/1 3/18/1 4/2/1
f 8/4/2 7/19/2 6/5/2
f 5/7/3 6/20/3 2/8/3
f 6/10/4 7/21/4 3/11/4
f 3/13/5 7/22/5 8/14/5
f 1/16/6 4/15/6 8/14/6
