# Blender v2.76 (sub 0) OBJ File: 'ElectricalFuse.blend'
# www.blender.org
mtllib ElectricalFuse.mtl
o FuseType
v 0.331334 0.059558 -0.034386
v 0.331334 0.068771 0.000000
v 0.331334 0.034386 -0.059558
v 0.331334 -0.000000 -0.068771
v 0.331334 -0.034386 -0.059558
v 0.331334 -0.059558 -0.034386
v 0.331334 -0.068771 -0.000000
v 0.331334 -0.059558 0.034386
v 0.331334 -0.034386 0.059558
v 0.331334 -0.000000 0.068771
v 0.331334 0.034386 0.059558
v 0.331334 0.059558 0.034386
v 0.307923 0.029101 -0.016802
v 0.307923 0.033603 0.000000
v 0.307923 0.016802 -0.029101
v 0.307923 -0.000000 -0.033603
v 0.307923 -0.016802 -0.029101
v 0.307923 -0.029101 -0.016802
v 0.307923 -0.033603 -0.000000
v 0.307923 -0.029101 0.016802
v 0.307923 -0.016802 0.029101
v 0.307923 -0.000000 0.033603
v 0.307923 0.016802 0.029101
v 0.307923 0.029101 0.016802
vt 0.052199 0.312385
vt 0.097306 0.300299
vt 0.097306 0.346431
vt 0.059131 0.412552
vt 0.135480 0.412552
vt 0.187518 0.390512
vt 0.141386 0.390512
vt 0.135480 0.368472
vt 0.019179 0.435618
vt 0.075266 0.428686
vt 0.142412 0.468638
vt 0.097306 0.480724
vt 0.097306 0.434592
vt 0.075266 0.352337
vt 0.059131 0.368472
vt 0.175432 0.345405
vt 0.119346 0.352337
vt 0.052199 0.468638
vt 0.175432 0.435618
vt 0.119346 0.428686
vt 0.019179 0.345405
vt 0.053225 0.390512
vt 0.142412 0.312385
vt 0.007093 0.390512
vn 0.823400 0.548100 -0.146900
vn 1.000000 0.000000 0.000000
vn 0.823400 0.146900 0.548100
vn 0.823400 -0.401300 -0.401300
vn 0.823400 -0.548100 0.146900
vn 0.823400 0.401300 -0.401300
vn 0.823400 0.401300 0.401300
vn 0.823400 -0.548100 -0.146900
vn 0.823400 -0.401300 0.401300
vn 0.823400 0.146900 -0.548100
vn 0.823400 0.548100 0.146900
vn 0.823400 -0.146900 0.548100
vn 0.823400 -0.146900 -0.548100
usemtl None
s off
f 8/1/1 7/2/1 19/3/1
f 23/4/2 19/3/2 15/5/2
f 4/6/3 16/7/3 17/8/3
f 11/9/4 23/4/4 24/10/4
f 1/11/5 2/12/5 14/13/5
f 8/1/6 20/14/6 21/15/6
f 5/16/7 17/8/7 18/17/7
f 2/12/8 12/18/8 24/10/8
f 3/19/9 1/11/9 13/20/9
f 9/21/10 21/15/10 22/22/10
f 7/2/11 6/23/11 18/17/11
f 4/6/12 3/19/12 15/5/12
f 10/24/13 22/22/13 23/4/13
f 20/14/1 8/1/1 19/3/1
f 15/5/2 13/20/2 23/4/2
f 14/13/2 24/10/2 23/4/2
f 23/4/2 22/22/2 21/15/2
f 21/15/2 20/14/2 23/4/2
f 19/3/2 18/17/2 17/8/2
f 17/8/2 16/7/2 15/5/2
f 13/20/2 14/13/2 23/4/2
f 23/4/2 20/14/2 19/3/2
f 19/3/2 17/8/2 15/5/2
f 5/16/3 4/6/3 17/8/3
f 12/18/4 11/9/4 24/10/4
f 13/20/5 1/11/5 14/13/5
f 9/21/6 8/1/6 21/15/6
f 6/23/7 5/16/7 18/17/7
f 14/13/8 2/12/8 24/10/8
f 15/5/9 3/19/9 13/20/9
f 10/24/10 9/21/10 22/22/10
f 19/3/11 7/2/11 18/17/11
f 16/7/12 4/6/12 15/5/12
f 11/9/13 10/24/13 23/4/13
o FuseOk
v 0.304461 0.010000 0.000000
v 0.309461 0.010000 0.000000
v 0.304461 0.005000 -0.008500
v 0.309461 0.005000 -0.008500
v 0.304461 -0.005000 -0.008500
v 0.309461 -0.005000 -0.008500
v 0.304461 -0.010000 0.000000
v 0.309461 -0.010000 0.000000
v 0.304461 -0.005000 0.008500
v 0.309461 -0.005000 0.008500
v 0.304461 0.005000 0.008500
v 0.309461 0.005000 0.008500
vt 0.096325 0.217053
vt 0.096325 0.267053
vt 0.046325 0.267053
vt 0.092976 0.229553
vt 0.071325 0.217053
vt 0.071325 0.267053
vt 0.049675 0.229553
vt 0.049675 0.254553
vt 0.046325 0.217053
vt 0.092976 0.254553
vn 0.000000 0.861900 -0.507000
vn 0.000000 -0.000000 -1.000000
vn 0.000000 -0.861900 -0.507000
vn 0.000000 -0.861900 0.507000
vn 1.000000 0.000000 0.000000
vn 0.000000 0.861900 0.507000
vn 0.000000 0.000000 1.000000
vn -1.000000 0.000000 0.000000
usemtl None
s off
f 26/25/14 28/26/14 27/27/14
f 28/25/15 30/26/15 29/27/15
f 30/25/16 32/26/16 31/27/16
f 32/25/17 34/26/17 33/27/17
f 36/28/18 34/29/18 28/30/18
f 36/25/19 26/26/19 25/27/19
f 34/25/20 36/26/20 35/27/20
f 29/28/21 33/31/21 35/32/21
f 25/33/14 26/25/14 27/27/14
f 27/33/15 28/25/15 29/27/15
f 29/33/16 30/25/16 31/27/16
f 31/33/17 32/25/17 33/27/17
f 30/32/18 28/30/18 34/29/18
f 26/34/18 36/28/18 28/30/18
f 34/29/18 32/31/18 30/32/18
f 35/33/19 36/25/19 25/27/19
f 33/33/20 34/25/20 35/27/20
f 35/32/21 25/30/21 27/34/21
f 27/34/21 29/28/21 35/32/21
f 31/29/21 33/31/21 29/28/21
o Fuse
v 0.203996 0.095290 -0.000000
v 0.303996 0.095290 0.000000
v 0.203996 0.082524 -0.047645
v 0.303996 0.082524 -0.047645
v 0.203996 0.047645 -0.082524
v 0.303996 0.047645 -0.082524
v 0.203996 -0.000000 -0.095290
v 0.303996 -0.000000 -0.095290
v 0.203996 -0.047645 -0.082524
v 0.303996 -0.047645 -0.082524
v 0.203996 -0.082524 -0.047645
v 0.303996 -0.082524 -0.047645
v 0.203996 -0.095290 -0.000000
v 0.303996 -0.095290 -0.000000
v 0.203996 -0.082524 0.047645
v 0.303996 -0.082524 0.047645
v 0.203996 -0.047645 0.082524
v 0.303996 -0.047645 0.082524
v 0.203996 -0.000000 0.095290
v 0.303996 -0.000000 0.095290
v 0.203996 0.047645 0.082524
v 0.303996 0.047645 0.082524
v 0.203996 0.082524 0.047645
v 0.303996 0.082524 0.047645
v 0.344452 0.082524 -0.047645
v 0.344452 0.095290 0.000000
v 0.344452 0.047645 -0.082524
v 0.344452 -0.000000 -0.095290
v 0.344452 -0.047645 -0.082524
v 0.344452 -0.082524 -0.047645
v 0.344452 -0.095290 -0.000000
v 0.344452 -0.082524 0.047645
v 0.344452 -0.047645 0.082524
v 0.344452 -0.000000 0.095290
v 0.344452 0.047645 0.082524
v 0.344452 0.082524 0.047645
v 0.312087 -0.112422 -0.009697
v 0.312087 -0.102209 -0.047813
v 0.336361 -0.112422 -0.009697
v 0.336361 -0.102209 -0.047813
v 0.312087 -0.064609 0.092512
v 0.312087 -0.092512 0.064609
v 0.336361 -0.064609 0.092512
v 0.336361 -0.092512 0.064609
v 0.312087 0.047813 0.102209
v 0.312087 0.009697 0.112422
v 0.336361 0.047813 0.102209
v 0.336361 0.009697 0.112422
v 0.312087 0.112422 0.009697
v 0.312087 0.102209 0.047813
v 0.336361 0.112422 0.009697
v 0.336361 0.102209 0.047813
v 0.312087 0.064609 -0.092512
v 0.312087 0.092512 -0.064609
v 0.336361 0.064609 -0.092512
v 0.336361 0.092512 -0.064609
v 0.312087 -0.047813 -0.102209
v 0.312087 -0.009697 -0.112422
v 0.336361 -0.047813 -0.102209
v 0.336361 -0.009697 -0.112422
v 0.344452 0.059558 -0.034386
v 0.344452 0.068771 0.000000
v 0.344452 0.034386 -0.059558
v 0.344452 -0.000000 -0.068771
v 0.344452 -0.034386 -0.059558
v 0.344452 -0.059558 -0.034386
v 0.344452 -0.068771 -0.000000
v 0.344452 -0.059558 0.034386
v 0.344452 -0.034386 0.059558
v 0.344452 -0.000000 0.068771
v 0.344452 0.034386 0.059558
v 0.344452 0.059558 0.034386
v 0.331334 0.059558 -0.034386
v 0.331334 0.068771 0.000000
v 0.331334 0.034386 -0.059558
v 0.331334 -0.000000 -0.068771
v 0.331334 -0.034386 -0.059558
v 0.331334 -0.059558 -0.034386
v 0.331334 -0.068771 -0.000000
v 0.331334 -0.059558 0.034386
v 0.331334 -0.034386 0.059558
v 0.331334 -0.000000 0.068771
v 0.331334 0.034386 0.059558
v 0.331334 0.059558 0.034386
v 0.103996 0.066703 -0.000000
v 0.103996 0.057767 -0.033352
v 0.103996 0.033352 -0.057767
v 0.103996 -0.000000 -0.066703
v 0.103996 -0.033352 -0.057767
v 0.103996 -0.057767 -0.033352
v 0.103996 -0.066703 -0.000000
v 0.103996 -0.057767 0.033352
v 0.103996 -0.033352 0.057767
v 0.103996 -0.000000 0.066703
v 0.103996 0.033352 0.057767
v 0.103996 0.057767 0.033352
v 0.053996 0.066703 -0.000000
v 0.053996 0.057767 -0.033352
v 0.053996 0.033352 -0.057767
v 0.053996 -0.000000 -0.066703
v 0.053996 -0.033352 -0.057767
v 0.053996 -0.057767 -0.033352
v 0.053996 -0.066703 -0.000000
v 0.053996 -0.057767 0.033352
v 0.053996 -0.033352 0.057767
v 0.053996 -0.000000 0.066703
v 0.053996 0.033352 0.057767
v 0.053996 0.057767 0.033352
vt 0.250000 0.093750
vt 0.203125 0.093750
vt 0.203125 0.187500
vt 0.203125 0.171875
vt 0.250000 0.171875
vt 0.250000 0.078125
vt 0.281250 0.140625
vt 0.281250 0.187500
vt 0.328125 0.187500
vt 0.203125 -0.000000
vt 0.281250 0.078125
vt 0.281250 0.109375
vt 0.328125 0.109375
vt 0.281250 0.281250
vt 0.281250 0.312500
vt 0.328125 0.312500
vt 0.203125 0.218750
vt 0.203125 0.265625
vt 0.250000 0.265625
vt 0.328125 0.218750
vt 0.281250 0.218750
vt 0.281250 0.250000
vt 0.328125 0.281250
vt 0.125000 0.218750
vt 0.125000 0.265625
vt 0.171875 0.265625
vt 0.328125 0.250000
vt 0.250000 0.218750
vt 0.281250 0.015625
vt 0.281250 0.046875
vt 0.328125 0.046875
vt 0.328125 0.078125
vt 0.297017 0.573457
vt 0.140763 0.663670
vt 0.218890 0.708776
vt 0.328125 0.328125
vt 0.328125 0.265625
vt 0.281250 0.265625
vt 0.250000 0.000000
vt 0.072115 0.175417
vt 0.116505 0.009751
vt 0.177143 0.070389
vt 0.281250 0.328125
vt 0.250000 0.187500
vt 0.203125 0.078125
vt 0.328125 0.140625
vt 0.171875 0.218750
vt 0.328125 0.015625
vt 0.263996 0.696690
vt 0.297017 0.663670
vt 0.309103 0.618563
vt 0.263996 0.540437
vt 0.140764 0.573457
vt 0.218890 0.528351
vt 0.173784 0.540437
vt 0.128677 0.618563
vt 0.173784 0.696690
vt 0.177143 0.114779
vt 0.154948 0.153222
vt 0.116505 0.175417
vt 0.033672 0.153222
vt 0.011477 0.114779
vt 0.011477 0.070389
vt 0.033672 0.031946
vt 0.072115 0.009751
vt 0.154948 0.031946
vn 0.000000 0.965900 -0.258800
vn 0.000000 0.707100 -0.707100
vn 0.000000 0.258800 -0.965900
vn 0.000000 -0.258800 -0.965900
vn 0.000000 -0.707100 -0.707100
vn 0.000000 -0.965900 -0.258800
vn 0.000000 -0.965900 0.258800
vn 0.000000 -0.707100 0.707100
vn 0.000000 -0.258800 0.965900
vn 0.000000 0.258800 0.965900
vn 0.000000 0.965900 0.258800
vn 0.000000 0.707100 0.707100
vn -0.266200 -0.249500 -0.931100
vn 1.000000 0.000000 0.000000
vn -0.920500 -0.276300 0.276300
vn 0.000000 -0.492600 0.870300
vn 0.000000 -1.000000 0.008500
vn 0.920500 0.377500 0.101100
vn -0.920500 0.276300 -0.276300
vn -0.920500 0.101100 0.377500
vn 0.920500 -0.377500 -0.101100
vn 0.000000 0.008500 -1.000000
vn -0.920500 -0.377500 -0.101100
vn 0.920500 -0.276300 0.276300
vn 0.000000 -0.861700 -0.507400
vn 0.000000 0.507400 0.861700
vn 0.000000 -0.870300 0.492600
vn 0.920500 0.101100 0.377500
vn 0.000000 1.000000 -0.008500
vn 0.000000 0.492600 -0.870300
vn -0.920500 0.377500 0.101100
vn 0.000000 -0.008500 1.000000
vn 0.000000 -0.507400 -0.861700
vn 0.920500 0.276300 -0.276300
vn 0.000000 0.861700 0.507400
vn 0.000000 0.870300 -0.492600
vn 0.920500 -0.101100 -0.377500
vn -0.920500 -0.101100 -0.377500
vn -1.000000 0.000000 0.000000
vn -0.266200 0.931100 0.249500
vn -0.266200 0.931100 -0.249500
vn -0.266200 0.249500 -0.931100
vn -0.266200 0.681600 0.681600
vn -0.266200 0.681600 -0.681600
vn -0.266200 0.249500 0.931100
vn -0.266200 -0.249500 0.931100
vn -0.266200 -0.681600 0.681600
vn -0.266200 -0.931100 0.249500
vn -0.266200 -0.931100 -0.249500
vn -0.266200 -0.681600 -0.681600
usemtl None
s off
f 38/35/22 40/36/22 39/37/22
f 40/35/23 42/36/23 41/37/23
f 42/35/24 44/36/24 43/37/24
f 44/38/25 46/39/25 45/40/25
f 46/38/26 48/39/26 47/40/26
f 48/38/27 50/39/27 49/40/27
f 50/35/28 52/36/28 51/37/28
f 52/35/29 54/36/29 53/37/29
f 54/35/30 56/36/30 55/37/30
f 56/35/31 58/36/31 57/37/31
f 54/41/30 69/42/30 70/43/30
f 60/35/32 38/36/32 37/37/32
f 58/35/33 60/36/33 59/37/33
f 45/44/34 125/36/34 124/35/34
f 62/45/35 98/46/35 97/47/35
f 52/48/36 78/49/36 77/50/36
f 50/41/28 67/42/28 68/43/28
f 50/51/37 73/52/37 75/53/37
f 46/41/26 65/42/26 66/43/26
f 46/51/38 93/52/38 95/53/38
f 72/54/39 62/55/39 87/56/39
f 38/41/22 62/42/22 61/43/22
f 42/41/24 63/42/24 64/43/24
f 58/41/33 71/42/33 72/43/33
f 42/57/40 40/48/40 90/49/40
f 56/48/41 82/49/41 81/50/41
f 74/58/27 76/59/27 75/60/27
f 67/55/42 75/56/42 76/61/42
f 48/62/43 66/51/43 76/52/43
f 48/48/44 74/49/44 73/50/44
f 78/58/29 80/59/29 79/60/29
f 69/55/45 79/56/45 80/61/45
f 52/62/46 68/51/46 80/52/46
f 54/51/47 77/52/47 79/53/47
f 82/58/31 84/59/31 83/60/31
f 56/62/48 70/51/48 84/52/48
f 70/54/49 71/55/49 83/56/49
f 58/51/50 81/52/50 83/53/50
f 86/58/32 88/59/32 87/60/32
f 38/51/51 85/52/51 87/53/51
f 60/48/52 86/49/52 85/50/52
f 60/62/53 72/51/53 88/52/53
f 90/58/23 92/59/23 91/60/23
f 42/51/54 89/52/54 91/53/54
f 61/54/55 63/55/55 91/56/55
f 40/62/56 61/51/56 92/52/56
f 94/58/25 96/59/25 95/60/25
f 44/62/57 64/51/57 96/52/57
f 65/55/58 95/56/58 96/61/58
f 46/57/59 44/48/59 94/49/59
f 100/63/31 112/64/31 113/65/31
f 68/45/35 104/46/35 105/47/35
f 66/66/35 65/45/35 101/46/35
f 72/45/35 108/46/35 98/47/35
f 61/45/35 97/46/35 99/47/35
f 69/45/35 105/46/35 106/47/35
f 66/45/35 102/46/35 103/47/35
f 64/66/35 63/45/35 99/46/35
f 70/45/35 106/46/35 107/47/35
f 67/45/35 103/46/35 104/47/35
f 65/66/35 64/45/35 100/46/35
f 71/45/35 107/46/35 108/47/35
f 107/63/26 119/64/26 120/65/26
f 98/63/28 110/64/28 109/65/28
f 104/63/23 116/64/23 117/65/23
f 101/63/33 113/64/33 114/65/33
f 108/63/27 120/64/27 110/65/27
f 97/63/29 109/64/29 111/65/29
f 105/63/24 117/64/24 118/65/24
f 102/63/32 114/64/32 115/65/32
f 99/63/30 111/64/30 112/65/30
f 106/63/25 118/64/25 119/65/25
f 103/63/22 115/64/22 116/65/22
f 101/67/60 107/68/60 98/69/60
f 129/70/29 141/71/29 140/72/29
f 37/44/61 121/36/61 132/35/61
f 39/44/62 122/36/62 121/35/62
f 43/44/63 124/36/63 123/35/63
f 59/44/64 132/36/64 131/35/64
f 41/44/65 123/36/65 122/35/65
f 57/44/66 131/36/66 130/35/66
f 55/44/67 130/36/67 129/35/67
f 53/44/68 129/36/68 128/35/68
f 49/73/69 51/44/69 128/36/69
f 47/73/70 49/44/70 127/36/70
f 45/73/71 47/44/71 126/36/71
f 136/74/60 142/75/60 144/76/60
f 126/70/26 138/71/26 137/72/26
f 121/70/32 133/71/32 144/72/32
f 123/70/23 135/71/23 134/72/23
f 130/70/30 142/71/30 141/72/30
f 127/70/27 139/71/27 138/72/27
f 124/70/24 136/71/24 135/72/24
f 131/70/31 143/71/31 142/72/31
f 128/70/28 140/71/28 139/72/28
f 125/70/25 137/71/25 136/72/25
f 132/70/33 144/71/33 143/72/33
f 121/77/22 122/70/22 134/71/22
f 37/78/22 38/35/22 39/37/22
f 39/78/23 40/35/23 41/37/23
f 41/78/24 42/35/24 43/37/24
f 43/79/25 44/38/25 45/40/25
f 45/79/26 46/38/26 47/40/26
f 47/79/27 48/38/27 49/40/27
f 49/78/28 50/35/28 51/37/28
f 51/78/29 52/35/29 53/37/29
f 53/78/30 54/35/30 55/37/30
f 55/78/31 56/35/31 57/37/31
f 56/80/30 54/41/30 70/43/30
f 59/78/32 60/35/32 37/37/32
f 57/78/33 58/35/33 59/37/33
f 43/73/34 45/44/34 124/35/34
f 61/66/35 62/45/35 97/47/35
f 54/57/36 52/48/36 77/50/36
f 52/80/28 50/41/28 68/43/28
f 67/62/37 50/51/37 75/53/37
f 48/80/26 46/41/26 66/43/26
f 65/62/38 46/51/38 95/53/38
f 88/61/39 72/54/39 87/56/39
f 40/80/22 38/41/22 61/43/22
f 44/80/24 42/41/24 64/43/24
f 60/80/33 58/41/33 72/43/33
f 89/50/40 42/57/40 90/49/40
f 58/57/41 56/48/41 81/50/41
f 73/81/27 74/58/27 75/60/27
f 66/54/42 67/55/42 76/61/42
f 74/53/43 48/62/43 76/52/43
f 50/57/44 48/48/44 73/50/44
f 77/81/29 78/58/29 79/60/29
f 68/54/45 69/55/45 80/61/45
f 78/53/46 52/62/46 80/52/46
f 69/62/47 54/51/47 79/53/47
f 81/81/31 82/58/31 83/60/31
f 82/53/48 56/62/48 84/52/48
f 84/61/49 70/54/49 83/56/49
f 71/62/50 58/51/50 83/53/50
f 85/81/32 86/58/32 87/60/32
f 62/62/51 38/51/51 87/53/51
f 38/57/52 60/48/52 85/50/52
f 86/53/53 60/62/53 88/52/53
f 89/81/23 90/58/23 91/60/23
f 63/62/54 42/51/54 91/53/54
f 92/61/55 61/54/55 91/56/55
f 90/53/56 40/62/56 92/52/56
f 93/81/25 94/58/25 95/60/25
f 94/53/57 44/62/57 96/52/57
f 64/54/58 65/55/58 96/61/58
f 93/50/59 46/57/59 94/49/59
f 101/82/31 100/63/31 113/65/31
f 69/66/35 68/45/35 105/47/35
f 102/47/35 66/66/35 101/46/35
f 62/66/35 72/45/35 98/47/35
f 63/66/35 61/45/35 99/47/35
f 70/66/35 69/45/35 106/47/35
f 67/66/35 66/45/35 103/47/35
f 100/47/35 64/66/35 99/46/35
f 71/66/35 70/45/35 107/47/35
f 68/66/35 67/45/35 104/47/35
f 101/47/35 65/66/35 100/46/35
f 72/66/35 71/45/35 108/47/35
f 108/82/26 107/63/26 120/65/26
f 97/82/28 98/63/28 109/65/28
f 105/82/23 104/63/23 117/65/23
f 102/82/33 101/63/33 114/65/33
f 98/82/27 108/63/27 110/65/27
f 99/82/29 97/63/29 111/65/29
f 106/82/24 105/63/24 118/65/24
f 103/82/32 102/63/32 115/65/32
f 100/82/30 99/63/30 112/65/30
f 107/82/25 106/63/25 119/65/25
f 104/82/22 103/63/22 116/65/22
f 98/69/60 97/83/60 101/67/60
f 99/84/60 100/85/60 101/67/60
f 101/67/60 102/86/60 105/87/60
f 103/88/60 104/89/60 105/87/60
f 105/87/60 106/90/60 107/68/60
f 107/68/60 108/91/60 98/69/60
f 97/83/60 99/84/60 101/67/60
f 102/86/60 103/88/60 105/87/60
f 105/87/60 107/68/60 101/67/60
f 128/77/29 129/70/29 140/72/29
f 59/73/61 37/44/61 132/35/61
f 37/73/62 39/44/62 121/35/62
f 41/73/63 43/44/63 123/35/63
f 57/73/64 59/44/64 131/35/64
f 39/73/65 41/44/65 122/35/65
f 55/73/66 57/44/66 130/35/66
f 53/73/67 55/44/67 129/35/67
f 51/73/68 53/44/68 128/35/68
f 127/35/69 49/73/69 128/36/69
f 126/35/70 47/73/70 127/36/70
f 125/35/71 45/73/71 126/36/71
f 144/76/60 133/92/60 136/74/60
f 134/93/60 135/94/60 136/74/60
f 136/74/60 137/95/60 138/96/60
f 138/96/60 139/97/60 140/98/60
f 140/98/60 141/99/60 142/75/60
f 142/75/60 143/100/60 144/76/60
f 133/92/60 134/93/60 136/74/60
f 136/74/60 138/96/60 140/98/60
f 140/98/60 142/75/60 136/74/60
f 125/77/26 126/70/26 137/72/26
f 132/77/32 121/70/32 144/72/32
f 122/77/23 123/70/23 134/72/23
f 129/77/30 130/70/30 141/72/30
f 126/77/27 127/70/27 138/72/27
f 123/77/24 124/70/24 135/72/24
f 130/77/31 131/70/31 142/72/31
f 127/77/28 128/70/28 139/72/28
f 124/77/25 125/70/25 136/72/25
f 131/77/33 132/70/33 143/72/33
f 133/72/22 121/77/22 134/71/22
o Case
v 0.002446 0.500000 0.180000
v 0.177446 0.500000 0.180000
v 0.177446 0.500000 -0.180000
v 0.002446 0.500000 -0.180000
v 0.002446 -0.500000 0.180000
v 0.177446 -0.500000 0.180000
v 0.277446 0.169699 0.130000
v 0.277446 0.169699 -0.130000
v 0.002446 -0.500000 -0.180000
v 0.177446 -0.500000 -0.180000
v 0.277446 -0.160301 0.130000
v 0.277446 -0.160301 -0.130000
v 0.277446 -0.100000 -0.000000
v 0.277446 -0.086603 0.050000
v 0.277446 -0.050000 0.086603
v 0.277446 -0.000000 0.100000
v 0.277446 0.050000 0.086603
v 0.277446 0.086603 0.050000
v 0.277446 0.100000 0.000000
v 0.277446 0.086603 -0.050000
v 0.277446 0.050000 -0.086603
v 0.277446 -0.000000 -0.100000
v 0.277446 -0.050000 -0.086603
v 0.277446 -0.086603 -0.050000
v 0.105597 0.100000 0.000000
v 0.105597 0.086603 -0.050000
v 0.105597 0.050000 -0.086603
v 0.105597 0.086603 0.050000
v 0.105597 0.050000 0.086603
v 0.105597 -0.000000 0.100000
v 0.105597 -0.050000 0.086603
v 0.105597 -0.086603 0.050000
v 0.105597 -0.100000 -0.000000
v 0.105597 -0.086603 -0.050000
v 0.105597 -0.050000 -0.086603
v 0.105597 -0.000000 -0.100000
vt 0.265625 0.906250
vt 0.406250 0.906250
vt 0.406250 0.843750
vt 0.437500 0.906250
vt 0.734375 0.906250
vt 0.734375 0.843750
vt 0.000000 1.000000
vt 0.018939 0.893701
vt 0.117424 0.893701
vt 0.406250 0.984375
vt 0.265625 0.984375
vt 0.265625 0.921875
vt 0.515625 0.984375
vt 0.640625 0.984375
vt 0.734375 0.937500
vt 0.018939 0.918561
vt 0.018939 0.793561
vt 0.030303 0.854281
vt 0.117424 0.918561
vt 0.106061 0.854281
vt 0.117424 0.793561
vt 0.117424 0.818421
vt 0.018939 0.818421
vt -0.000000 0.712121
vt 0.156250 0.875000
vt 0.156250 0.812500
vt 0.171875 0.812500
vt 0.156933 0.945570
vt 0.213751 0.912766
vt 0.213751 0.978374
vt 0.171875 0.875000
vt 0.125000 0.718750
vt 0.000000 0.718750
vt 0.265625 0.843750
vt 0.437500 0.843750
vt 0.136364 1.000000
vt 0.406250 0.921875
vt 0.437500 0.937500
vt 0.068182 0.816402
vt 0.049242 0.887084
vt 0.049242 0.821477
vt 0.035378 0.873220
vt 0.035378 0.835341
vt 0.068182 0.892159
vt 0.087121 0.821477
vt 0.087121 0.887084
vt 0.100986 0.835341
vt 0.100986 0.873220
vt 0.136364 0.712121
vt 0.194812 0.983449
vt 0.175872 0.978374
vt 0.162008 0.964510
vt 0.162008 0.926631
vt 0.175872 0.912766
vt 0.194812 0.907692
vt 0.227616 0.926631
vt 0.232691 0.945570
vt 0.227616 0.964510
vt 0.125000 1.000000
vn 0.000000 1.000000 0.000000
vn 0.000000 0.000000 1.000000
vn 0.957100 0.289800 0.000000
vn 0.000000 0.000000 -1.000000
vn 0.000000 -1.000000 0.000000
vn 0.447200 0.000000 0.894400
vn 0.447200 0.000000 -0.894400
vn 1.000000 0.000000 0.000000
vn 0.959300 -0.282400 0.000000
vn 0.000000 -0.965900 0.258800
vn 0.000000 -0.707100 0.707100
vn 0.000000 -0.965900 -0.258800
vn 0.000000 -0.258800 0.965900
vn 0.000000 0.258800 0.965900
vn 0.000000 0.707100 0.707100
vn 0.000000 0.965900 0.258800
vn 0.000000 0.965900 -0.258800
vn 0.000000 0.707100 -0.707100
vn 0.000000 0.258800 -0.965900
vn 0.000000 -0.258800 -0.965900
vn 0.000000 -0.707100 -0.707100
vn -1.000000 0.000000 0.000000
usemtl None
s off
f 146/101/72 147/102/72 148/103/72
f 150/104/73 146/105/73 145/106/73
f 146/107/74 151/108/74 152/109/74
f 148/106/75 147/105/75 154/104/75
f 154/110/76 150/111/76 149/112/76
f 155/113/77 151/114/77 146/115/77
f 147/115/78 152/114/78 156/113/78
f 151/116/79 155/117/79 160/118/79
f 152/119/79 166/120/79 156/121/79
f 156/122/80 155/123/80 150/124/80
f 163/125/81 169/126/81 170/127/81
f 164/125/82 170/126/82 171/127/82
f 174/128/79 178/129/79 170/130/79
f 162/125/83 172/126/83 169/127/83
f 165/131/84 171/127/84 180/126/84
f 166/131/85 180/127/85 179/126/85
f 167/131/86 179/127/86 178/126/86
f 168/131/87 178/127/87 177/126/87
f 157/131/88 177/127/88 176/126/88
f 158/131/89 176/127/89 175/126/89
f 159/125/90 175/126/90 174/127/90
f 160/125/91 174/126/91 173/127/91
f 161/125/92 173/126/92 172/127/92
f 153/132/93 149/133/93 145/107/93
f 145/134/72 146/101/72 148/103/72
f 149/135/73 150/104/73 145/106/73
f 147/136/74 146/107/74 152/109/74
f 153/135/75 148/106/75 154/104/75
f 153/137/76 154/110/76 149/112/76
f 150/138/77 155/113/77 146/115/77
f 154/138/78 147/115/78 156/113/78
f 155/117/79 156/121/79 157/139/79
f 162/140/79 152/119/79 151/116/79
f 155/117/79 157/139/79 158/141/79
f 161/142/79 162/140/79 151/116/79
f 155/117/79 158/141/79 159/143/79
f 160/118/79 161/142/79 151/116/79
f 155/117/79 159/143/79 160/118/79
f 152/119/79 162/140/79 163/144/79
f 168/145/79 157/139/79 156/121/79
f 152/119/79 163/144/79 164/146/79
f 167/147/79 168/145/79 156/121/79
f 152/119/79 164/146/79 165/148/79
f 166/120/79 167/147/79 156/121/79
f 152/119/79 165/148/79 166/120/79
f 154/149/80 156/122/80 150/124/80
f 164/131/81 163/125/81 170/127/81
f 165/131/82 164/125/82 171/127/82
f 170/130/79 169/150/79 172/151/79
f 172/151/79 173/152/79 170/130/79
f 174/128/79 175/153/79 178/129/79
f 176/154/79 177/155/79 178/129/79
f 178/129/79 179/156/79 180/157/79
f 180/157/79 171/158/79 170/130/79
f 170/130/79 173/152/79 174/128/79
f 175/153/79 176/154/79 178/129/79
f 178/129/79 180/157/79 170/130/79
f 163/131/83 162/125/83 169/127/83
f 166/125/84 165/131/84 180/126/84
f 167/125/85 166/131/85 179/126/85
f 168/125/86 167/131/86 178/126/86
f 157/125/87 168/131/87 177/126/87
f 158/125/88 157/131/88 176/126/88
f 159/125/89 158/131/89 175/126/89
f 160/131/90 159/125/90 174/127/90
f 161/131/91 160/125/91 173/127/91
f 162/131/92 161/125/92 172/127/92
f 148/159/93 153/132/93 145/107/93
o Minecraft_2_Edge_Connectivity_Cube.002
v 0.000000 0.500000 -0.500000
v 0.000000 -0.500000 -0.500000
v 0.000000 -0.500000 0.500000
v 0.000000 0.500000 0.500000
v 0.500000 -0.000000 -0.500000
v 0.500000 0.000000 0.500000
vn -1.000000 0.000000 0.000000
vn 0.707100 -0.707100 0.000000
vn 0.000000 0.000000 -1.000000
vn -0.000000 0.000000 1.000000
vn 0.707100 0.707100 -0.000000
usemtl Material
s off
f 182//94 183//94 184//94
f 185//95 186//95 183//95
f 181//96 185//96 182//96
f 183//97 186//97 184//97
f 181//98 184//98 186//98
f 181//94 182//94 184//94
f 182//95 185//95 183//95
f 185//98 181//98 186//98
o Minecraft_Block_Cube.004
v 0.000000 0.500000 -0.500000
v 0.000000 -0.500000 -0.500000
v 0.000000 -0.500000 0.500000
v 0.000000 0.500000 0.500000
v 1.000000 0.500000 -0.500000
v 1.000000 -0.500000 -0.500000
v 1.000000 -0.500000 0.500000
v 1.000000 0.500000 0.500000
vn -1.000000 0.000000 0.000000
vn 1.000000 0.000000 0.000000
vn 0.000000 -0.000000 -1.000000
vn 0.000000 -1.000000 0.000000
vn -0.000000 0.000000 1.000000
vn 0.000000 1.000000 -0.000000
usemtl Material
s off
f 188//99 189//99 190//99
f 194//100 193//100 192//100
f 191//101 192//101 188//101
f 192//102 193//102 189//102
f 189//103 193//103 194//103
f 187//104 190//104 194//104
f 187//99 188//99 190//99
f 191//100 194//100 192//100
f 187//101 191//101 188//101
f 188//102 192//102 189//102
f 190//103 189//103 194//103
f 191//104 187//104 194//104
