# Blender v2.77 (sub 0) OBJ File: 'relay800.blend'
# www.blender.org
mtllib relay800.mtl
o relay0
v 0.305445 -0.018138 -0.062500
v 0.305445 -0.018138 0.062500
v 0.775013 0.089457 0.090000
v 0.775013 0.089457 -0.090000
v 0.342047 -0.170483 0.062500
v 0.342047 -0.170483 -0.062500
v 0.757943 -0.007352 -0.062500
v 0.757943 -0.007352 0.062500
v 0.824936 0.372589 0.081250
v 0.824936 0.372589 -0.081250
v 0.799975 0.231023 0.167063
v 0.799975 0.231023 -0.167063
vt 0.2969 0.7500
vt 0.3281 0.9688
vt 0.2969 0.9688
vt 0.3281 1.0000
vt 0.3125 0.9688
vt 0.3281 0.9688
vt 0.3281 0.8438
vt 0.2969 0.7812
vt 0.3281 0.7812
vt 0.3281 1.0000
vt 0.3125 0.9688
vt 0.3281 0.9688
vt 0.3281 1.0000
vt 0.3125 0.9688
vt 0.3281 0.9688
vt 0.3281 0.7500
vt 0.3125 1.0000
vt 0.2969 0.8438
vt 0.3125 1.0000
vn -0.0238 0.9997 -0.0000
vn 0.9848 -0.1736 0.0000
vn 0.9723 0.2336 0.0000
usemtl None
s off
f 1/1/1 8/2/1 7/3/1
f 4/4/2 8/5/2 7/6/2
f 5/7/3 1/8/3 2/9/3
f 11/10/2 4/11/2 12/12/2
f 9/13/2 12/14/2 10/15/2
f 1/1/1 2/16/1 8/2/1
f 4/4/2 3/17/2 8/5/2
f 5/7/3 6/18/3 1/8/3
f 11/10/2 3/17/2 4/11/2
f 9/13/2 11/19/2 12/14/2
o relay1
v 0.250000 -0.187500 -0.062500
v 0.250000 -0.187500 0.062500
v 0.625000 -0.187500 -0.062500
v 0.625000 -0.187500 0.062500
v 0.687500 -0.250000 -0.062500
v 0.687500 -0.250000 0.062500
v 0.750000 -0.187500 -0.062500
v 0.750000 -0.187500 0.062500
vt 0.3281 1.0000
vt 0.3594 0.9688
vt 0.3281 0.9688
vt 0.3594 1.0000
vt 0.3281 0.9375
vt 0.3594 0.9375
vt 0.2969 0.7500
vt 0.3281 1.0000
vt 0.2969 1.0000
vt 0.3594 0.9688
vt 0.3594 1.0000
vt 0.3438 0.9688
vt 0.3438 1.0000
vt 0.3594 1.0000
vt 0.3594 1.0000
vt 0.3281 1.0000
vt 0.3281 0.7500
vn 0.7071 -0.7071 0.0000
vn -0.7071 -0.7071 0.0000
vn 0.0000 1.0000 0.0000
vn 0.0000 0.0000 -1.0000
vn 0.0000 0.0000 1.0000
usemtl None
s off
f 19/20/4 18/21/4 17/22/4
f 17/23/5 16/24/5 15/25/5
f 13/26/6 20/27/6 19/28/6
f 17/29/7 15/30/7 19/31/7
f 20/32/8 16/33/8 18/21/8
f 19/20/4 20/34/4 18/21/4
f 17/23/5 18/35/5 16/24/5
f 13/26/6 14/36/6 20/27/6
o main
v 0.000000 -0.500000 -0.312500
v 0.000000 -0.500000 0.312500
v 0.000000 0.500000 0.312500
v 0.000000 0.500000 -0.312500
v 0.250000 -0.500000 -0.312500
v 0.250000 -0.500000 0.312500
v 0.250000 0.500000 0.312500
v 0.250000 0.500000 -0.312500
v 0.250000 0.062500 0.187500
v 0.250000 -0.062500 0.187500
v 0.250000 0.268750 0.187500
v 0.750000 0.268750 0.187500
v 0.250000 0.431130 0.093750
v 0.750000 0.431130 0.093750
v 0.250000 0.431130 -0.093750
v 0.750000 0.431130 -0.093750
v 0.250000 0.268750 -0.187500
v 0.750000 0.268750 -0.187500
v 0.250000 0.106370 -0.093750
v 0.750000 0.106370 -0.093750
v 0.250000 0.106370 0.093750
v 0.750000 0.106370 0.093750
v 0.250000 0.062500 -0.187500
v 0.250000 -0.062500 -0.187500
v 0.562500 0.062500 0.187500
v 0.562500 -0.062500 0.187500
v 0.562500 0.062500 -0.187500
v 0.562500 -0.062500 -0.187500
v 0.250000 0.062500 -0.125000
v 0.250000 -0.062500 -0.125000
v 0.562500 0.062500 -0.125000
v 0.562500 -0.062500 -0.125000
v 0.250000 0.062500 0.125000
v 0.250000 -0.062500 0.125000
v 0.562500 0.062500 0.125000
v 0.562500 -0.062500 0.125000
v 0.875000 -0.500000 -0.312500
v 0.875000 -0.500000 0.312500
v 0.875000 0.500000 0.312500
v 0.875000 0.500000 -0.312500
v 0.250000 -0.375000 -0.062500
v 0.250000 -0.375000 0.062500
v 0.625000 -0.375000 -0.062500
v 0.625000 -0.375000 0.062500
v 0.687500 -0.312500 -0.062500
v 0.687500 -0.312500 0.062500
v 0.750000 -0.375000 -0.062500
v 0.750000 -0.375000 0.062500
v 0.562500 0.062500 -0.062500
v 0.562500 -0.062500 -0.062500
v 0.562500 0.062500 0.062500
v 0.562500 -0.062500 0.062500
v 0.687500 0.062500 0.187500
v 0.687500 -0.062500 0.187500
v 0.687500 0.062500 -0.187500
v 0.687500 -0.062500 -0.187500
v 0.687500 0.062500 -0.062500
v 0.687500 -0.062500 -0.062500
v 0.687500 0.062500 0.062500
v 0.687500 -0.062500 0.062500
v 0.250000 -0.500000 -0.312500
v 0.250000 -0.500000 0.312500
v 0.250000 0.500000 0.312500
v 0.250000 0.500000 -0.312500
vt 0.5938 0.5000
vt 0.4375 0.6250
vt 0.4375 0.5000
vt 0.6562 0.5000
vt 0.4062 0.6250
vt 0.4062 0.5000
vt 0.6094 0.5000
vt 0.4531 0.6250
vt 0.4531 0.5000
vt 0.4062 0.5000
vt 0.6562 0.6250
vt 0.6562 0.5000
vt 0.0312 0.6250
vt 0.2812 0.3125
vt 0.0312 0.3125
vt 0.2812 0.9375
vt 0.0312 0.6250
vt 0.2812 0.6250
vt 0.3281 0.3438
vt 0.2969 0.5000
vt 0.2969 0.3438
vt 0.3438 0.3438
vt 0.3281 0.5000
vt 0.3281 0.3438
vt 0.1250 0.2812
vt 0.0781 0.0312
vt 0.1250 0.0312
vt 0.3281 0.3438
vt 0.3125 0.5000
vt 0.3281 0.5000
vt 0.3281 0.3125
vt 0.3594 0.4688
vt 0.3594 0.3125
vt 0.0781 0.2812
vt 0.0312 0.0312
vt 0.0781 0.0625
vt 0.3438 0.5000
vt 0.3438 0.3438
vt 0.3125 0.2812
vt 0.2656 0.0312
vt 0.3125 0.0312
vt 0.2969 0.3438
vt 0.3281 0.5000
vt 0.3281 0.3438
vt 0.2656 0.2812
vt 0.2188 0.0312
vt 0.1719 0.0000
vt 0.1875 0.0000
vt 0.1875 0.0312
vt 0.1719 0.2812
vt 0.1719 0.0312
vt 0.2188 0.2812
vt 0.6250 1.0000
vt 0.3750 0.6875
vt 0.6250 0.6875
vt 0.3281 0.3438
vt 0.3125 0.5000
vt 0.3125 0.3438
vt 0.3594 0.4688
vt 0.3281 0.3125
vt 0.3594 0.3125
vt 0.6250 1.0000
vt 0.3750 1.0000
vt 0.7812 1.0000
vt 0.6250 0.6875
vt 0.6250 1.0000
vt 0.3750 0.6875
vt 0.6250 0.6875
vt 0.7812 1.0000
vt 0.3594 0.9688
vt 0.3281 1.0000
vt 0.3281 0.9688
vt 0.3594 0.9375
vt 0.3281 0.9375
vt 0.2969 0.7500
vt 0.3281 1.0000
vt 0.2969 1.0000
vt 0.3594 1.0000
vt 0.3594 0.9688
vt 0.3438 1.0000
vt 0.3594 0.9688
vt 0.3438 1.0000
vt 0.3594 1.0000
vt 0.3281 0.5625
vt 0.3281 0.5000
vt 0.2969 0.6250
vt 0.3281 0.5625
vt 0.2969 0.5625
vt 0.2969 0.5625
vt 0.3281 0.6250
vt 0.3281 0.5625
vt 0.2969 0.5625
vt 0.3281 0.6250
vt 0.3281 0.5625
vt 0.3125 0.5625
vt 0.3438 0.5000
vt 0.3594 0.5625
vt 0.3281 0.5000
vt 0.3594 0.5000
vt 0.3594 0.5625
vt 0.3281 0.5000
vt 0.3594 0.5000
vt 0.2969 0.5000
vt 0.3594 0.5625
vt 0.3594 0.5000
vt 0.3438 0.5625
vt 0.3438 0.5000
vt 0.3281 0.5000
vt 0.2812 0.9375
vt 0.0312 0.6250
vt 0.2812 0.6250
vt 0.5938 0.6250
vt 0.6562 0.6250
vt 0.6094 0.6250
vt 0.4062 0.6250
vt 0.2812 0.6250
vt 0.0312 0.9375
vt 0.3438 0.5000
vt 0.3125 0.3438
vt 0.3281 0.4688
vt 0.0312 0.2812
vt 0.1719 0.0312
vt 0.1719 0.0000
vt 0.1875 0.0000
vt 0.3750 1.0000
vt 0.3281 0.5000
vt 0.3281 0.4688
vt 0.7812 0.6875
vt 0.7812 0.6875
vt 0.3594 1.0000
vt 0.3281 0.7500
vt 0.2969 0.5625
vt 0.3281 0.6250
vt 0.2969 0.6250
vt 0.2969 0.6250
vt 0.3438 0.5625
vt 0.3281 0.5625
vt 0.3281 0.5625
vt 0.3125 0.5625
vt 0.0312 0.9375
vn 0.0000 -1.0000 0.0000
vn 0.0000 0.0000 1.0000
vn 0.0000 1.0000 0.0000
vn 0.0000 0.0000 -1.0000
vn -1.0000 0.0000 0.0000
vn 1.0000 0.0000 0.0000
vn 0.0000 0.5000 0.8660
vn 0.0000 0.5000 -0.8660
vn 0.0000 -0.5000 -0.8660
vn 0.0000 -0.5000 0.8660
vn 0.7071 0.7071 0.0000
vn -0.7071 0.7071 0.0000
usemtl None
s off
f 26/37/9 21/38/9 25/39/9
f 27/40/10 22/41/10 26/42/10
f 28/43/11 23/44/11 27/45/11
f 25/46/12 24/47/12 28/48/12
f 22/49/13 24/50/13 21/51/13
f 27/52/14 25/53/14 28/54/14
f 43/55/12 48/56/12 44/57/12
f 29/58/11 55/59/11 53/60/11
f 32/61/15 33/62/15 31/63/15
f 50/64/9 48/65/9 52/66/9
f 50/67/10 51/68/10 49/69/10
f 34/70/11 35/71/11 33/72/11
f 51/73/11 43/55/11 49/74/11
f 36/75/16 37/76/16 35/77/16
f 30/78/10 45/79/10 29/80/10
f 38/81/17 39/82/17 37/76/17
f 32/83/14 40/84/14 36/85/14
f 42/86/18 31/63/18 41/87/18
f 40/88/9 41/87/9 39/82/9
f 59/89/14 57/90/14 60/91/14
f 54/92/9 46/93/9 30/94/9
f 55/95/12 54/96/12 53/97/12
f 57/90/10 28/98/10 25/99/10
f 58/100/11 25/101/11 26/102/11
f 59/89/12 26/103/12 27/104/12
f 60/105/9 27/104/9 28/98/9
f 66/106/19 67/107/19 65/108/19
f 64/109/20 65/108/20 63/110/20
f 61/111/11 68/112/11 67/113/11
f 65/114/12 67/115/12 63/116/12
f 68/117/10 66/118/10 64/119/10
f 75/120/12 48/56/12 47/121/12
f 78/122/10 69/123/10 70/124/10
f 75/125/14 78/126/14 76/127/14
f 74/128/14 79/129/14 73/130/14
f 76/131/9 70/132/9 48/65/9
f 73/133/11 71/134/11 45/135/11
f 79/136/12 72/137/12 71/138/12
f 74/128/10 45/79/10 46/139/10
f 77/140/11 47/121/11 69/141/11
f 80/142/9 46/93/9 72/143/9
f 51/68/13 70/144/13 69/141/13
f 72/137/13 55/95/13 71/138/13
f 83/145/14 81/146/14 84/147/14
f 26/37/9 22/148/9 21/38/9
f 27/40/10 23/149/10 22/41/10
f 28/43/11 24/150/11 23/44/11
f 25/46/12 21/151/12 24/47/12
f 22/49/13 23/152/13 24/50/13
f 27/52/14 26/153/14 25/53/14
f 43/55/12 47/121/12 48/56/12
f 29/58/11 45/154/11 55/59/11
f 32/61/15 34/70/15 33/62/15
f 50/64/9 44/155/9 48/65/9
f 50/67/10 52/156/10 51/68/10
f 34/70/11 36/157/11 35/71/11
f 51/73/11 47/121/11 43/55/11
f 36/75/16 38/81/16 37/76/16
f 30/78/10 46/139/10 45/79/10
f 38/81/17 40/88/17 39/82/17
f 36/85/14 34/158/14 32/83/14
f 32/83/14 42/159/14 40/84/14
f 40/84/14 38/160/14 36/85/14
f 42/86/18 32/61/18 31/63/18
f 40/88/9 42/86/9 41/87/9
f 59/89/14 58/161/14 57/90/14
f 54/92/9 56/162/9 46/93/9
f 55/95/12 56/163/12 54/96/12
f 57/90/10 60/91/10 28/98/10
f 58/100/11 57/164/11 25/101/11
f 59/89/12 58/161/12 26/103/12
f 60/105/9 59/165/9 27/104/9
f 66/106/19 68/166/19 67/107/19
f 64/109/20 66/106/20 65/108/20
f 61/111/11 62/167/11 68/112/11
f 75/120/12 76/168/12 48/56/12
f 78/122/10 77/169/10 69/123/10
f 75/125/14 77/170/14 78/126/14
f 74/128/14 80/171/14 79/129/14
f 76/131/9 78/172/9 70/132/9
f 73/133/11 79/173/11 71/134/11
f 79/136/12 80/174/12 72/137/12
f 74/128/10 73/130/10 45/79/10
f 77/140/11 75/120/11 47/121/11
f 80/142/9 74/175/9 46/93/9
f 51/68/13 52/156/13 70/144/13
f 72/137/13 56/163/13 55/95/13
f 83/145/14 82/176/14 81/146/14
o Minecraft_2_Edge_Connectivity_Cube.002
v 0.000000 0.500000 0.500000
v 0.000000 0.500000 -0.500000
v 0.000000 -0.500000 -0.500000
v 0.000000 -0.500000 0.500000
v 0.500000 0.500000 -0.000000
v 0.500000 -0.500000 0.000000
vn -1.0000 0.0000 0.0000
vn 0.7071 -0.0000 -0.7071
vn 0.0000 1.0000 0.0000
vn -0.0000 -1.0000 0.0000
vn 0.7071 0.0000 0.7071
usemtl Material
s off
f 86//21 88//21 85//21
f 89//22 87//22 86//22
f 85//23 89//23 86//23
f 87//24 90//24 88//24
f 85//25 90//25 89//25
f 86//21 87//21 88//21
f 89//22 90//22 87//22
f 85//25 88//25 90//25
o Minecraft_4_Edge_Connectivity_Cube.001
v 0.000000 0.500000 0.500000
v 0.000000 0.500000 -0.500000
v 0.000000 -0.500000 -0.500000
v 0.000000 -0.500000 0.500000
v 0.500000 -0.000000 -0.000000
vn -1.0000 0.0000 0.0000
vn 0.7071 0.7071 0.0000
vn 0.7071 -0.0000 -0.7071
vn 0.7071 -0.7071 0.0000
vn 0.7071 0.0000 0.7071
usemtl Material
s off
f 92//26 94//26 91//26
f 91//27 95//27 92//27
f 92//28 95//28 93//28
f 93//29 95//29 94//29
f 95//30 91//30 94//30
f 92//26 93//26 94//26
o Minecraft_Block_Cube
v 0.000000 0.500000 0.500000
v 0.000000 0.500000 -0.500000
v 0.000000 -0.500000 -0.500000
v 0.000000 -0.500000 0.500000
v 1.000000 0.500000 0.500000
v 1.000000 0.500000 -0.500000
v 1.000000 -0.500000 -0.500000
v 1.000000 -0.500000 0.500000
vn -1.0000 0.0000 0.0000
vn 1.0000 0.0000 0.0000
vn -0.0000 1.0000 0.0000
vn -0.0000 -0.0000 -1.0000
vn -0.0000 -1.0000 0.0000
vn 0.0000 0.0000 1.0000
usemtl Material
s off
f 97//31 99//31 96//31
f 103//32 101//32 100//32
f 100//33 97//33 96//33
f 101//34 98//34 97//34
f 98//35 103//35 99//35
f 96//36 103//36 100//36
f 97//31 98//31 99//31
f 103//32 102//32 101//32
f 100//33 101//33 97//33
f 101//34 102//34 98//34
f 98//35 102//35 103//35
f 96//36 99//36 103//36
