# Blender v2.76 (sub 0) OBJ File: 'RelayBig.blend'
# www.blender.org
mtllib RelayBig.mtl
o backplate
v 0.125000 -0.500000 -0.312500
v 0.125000 -0.500000 0.312500
v 0.125000 0.500000 0.312500
v 0.125000 0.500000 -0.312500
vt 0.281250 0.937500
vt 0.031250 0.937500
vt 0.031250 0.625000
vt 0.281250 0.625000
vn 1.000000 0.000000 0.000000
usemtl None
s off
f 3/1/1 2/2/1 1/3/1
f 4/4/1 3/1/1 1/3/1
o relay0
v 0.181395 -0.007285 -0.062500
v 0.181395 -0.007285 0.062500
v 0.650962 0.100310 0.090000
v 0.650962 0.100310 -0.090000
v 0.217996 -0.159630 0.062500
v 0.217996 -0.159630 -0.062500
v 0.633892 0.003501 -0.062500
v 0.633892 0.003501 0.062500
v 0.700886 0.383442 0.081250
v 0.700886 0.383442 -0.081250
v 0.675924 0.241876 0.167063
v 0.675924 0.241876 -0.167063
vt 0.296875 0.750000
vt 0.328125 0.750000
vt 0.328125 0.968750
vt 0.328125 1.000000
vt 0.312500 1.000000
vt 0.312500 0.968750
vt 0.328125 0.843750
vt 0.296875 0.843750
vt 0.296875 0.781250
vt 0.296875 0.968750
vt 0.328125 0.781250
vn -0.023800 0.999700 0.000000
vn 0.984800 -0.173600 0.000000
vn 0.972300 0.233600 0.000000
usemtl None
s off
f 5/5/2 6/6/2 12/7/2
f 8/8/3 7/9/3 12/10/3
f 9/11/4 10/12/4 5/13/4
f 15/8/3 7/9/3 8/10/3
f 13/8/3 15/9/3 16/10/3
f 11/14/2 5/5/2 12/7/2
f 11/7/3 8/8/3 12/10/3
f 6/15/4 9/11/4 5/13/4
f 16/7/3 15/8/3 8/10/3
f 14/7/3 13/8/3 16/10/3
o relay1
v 0.125000 -0.187500 -0.062500
v 0.125000 -0.187500 0.062500
v 0.500000 -0.187500 -0.062500
v 0.500000 -0.187500 0.062500
v 0.562500 -0.250000 -0.062500
v 0.562500 -0.250000 0.062500
v 0.625000 -0.187500 -0.062500
v 0.625000 -0.187500 0.062500
vt 0.328125 1.000000
vt 0.359375 1.000000
vt 0.359375 0.968750
vt 0.328125 0.937500
vt 0.296875 0.750000
vt 0.328125 0.750000
vt 0.343750 0.968750
vt 0.343750 1.000000
vt 0.328125 0.968750
vt 0.359375 0.937500
vt 0.296875 1.000000
vn 0.707100 -0.707100 0.000000
vn -0.707100 -0.707100 0.000000
vn 0.000000 1.000000 0.000000
vn 0.000000 0.000000 -1.000000
vn 0.000000 0.000000 1.000000
usemtl None
s off
f 23/16/5 24/17/5 22/18/5
f 21/17/6 22/16/6 20/19/6
f 17/20/7 18/21/7 24/16/7
f 21/18/8 19/17/8 23/22/8
f 24/23/9 20/17/9 22/18/9
f 21/24/5 23/16/5 22/18/5
f 19/25/6 21/17/6 20/19/6
f 23/26/7 17/20/7 24/16/7
o main
v 0.000000 -0.500000 -0.312500
v 0.000000 -0.500000 0.312500
v 0.000000 0.500000 0.312500
v 0.000000 0.500000 -0.312500
v 0.125000 -0.500000 -0.312500
v 0.125000 -0.500000 0.312500
v 0.125000 0.500000 0.312500
v 0.125000 0.500000 -0.312500
v 0.125000 0.062500 0.187500
v 0.125000 -0.062500 0.187500
v 0.125000 0.268750 0.187500
v 0.625000 0.268750 0.187500
v 0.125000 0.431130 0.093750
v 0.625000 0.431130 0.093750
v 0.125000 0.431130 -0.093750
v 0.625000 0.431130 -0.093750
v 0.125000 0.268750 -0.187500
v 0.625000 0.268750 -0.187500
v 0.125000 0.106370 -0.093750
v 0.625000 0.106370 -0.093750
v 0.125000 0.106370 0.093750
v 0.625000 0.106370 0.093750
v 0.125000 0.062500 -0.187500
v 0.125000 -0.062500 -0.187500
v 0.437500 0.062500 0.187500
v 0.437500 -0.062500 0.187500
v 0.437500 0.062500 -0.187500
v 0.437500 -0.062500 -0.187500
v 0.125000 0.062500 -0.125000
v 0.125000 -0.062500 -0.125000
v 0.437500 0.062500 -0.125000
v 0.437500 -0.062500 -0.125000
v 0.125000 0.062500 0.125000
v 0.125000 -0.062500 0.125000
v 0.437500 0.062500 0.125000
v 0.437500 -0.062500 0.125000
v 0.750000 -0.500000 -0.312500
v 0.750000 -0.500000 0.312500
v 0.750000 0.500000 0.312500
v 0.750000 0.500000 -0.312500
v 0.125000 -0.375000 -0.062500
v 0.125000 -0.375000 0.062500
v 0.500000 -0.375000 -0.062500
v 0.500000 -0.375000 0.062500
v 0.562500 -0.312500 -0.062500
v 0.562500 -0.312500 0.062500
v 0.625000 -0.375000 -0.062500
v 0.625000 -0.375000 0.062500
v 0.437500 0.062500 -0.062500
v 0.437500 -0.062500 -0.062500
v 0.437500 0.062500 0.062500
v 0.437500 -0.062500 0.062500
v 0.562500 0.062500 0.187500
v 0.562500 -0.062500 0.187500
v 0.562500 0.062500 -0.187500
v 0.562500 -0.062500 -0.187500
v 0.562500 0.062500 -0.062500
v 0.562500 -0.062500 -0.062500
v 0.562500 0.062500 0.062500
v 0.562500 -0.062500 0.062500
vt 0.031250 0.937500
vt 0.000000 0.937500
vt 0.000000 0.625000
vt 0.281250 0.937500
vt 0.281250 1.000000
vt 0.031250 1.000000
vt 0.031250 0.625000
vt 0.281250 0.625000
vt 0.281250 0.312500
vt 0.328125 0.343750
vt 0.328125 0.500000
vt 0.296875 0.500000
vt 0.343750 0.343750
vt 0.343750 0.500000
vt 0.125000 0.281250
vt 0.078125 0.281250
vt 0.078125 0.031250
vt 0.312500 0.343750
vt 0.312500 0.500000
vt 0.328125 0.312500
vt 0.328125 0.468750
vt 0.359375 0.468750
vt 0.031250 0.281250
vt 0.031250 0.031250
vt 0.312500 0.281250
vt 0.265625 0.281250
vt 0.265625 0.031250
vt 0.296875 0.343750
vt 0.218750 0.281250
vt 0.218750 0.031250
vt 0.171875 0.000000
vt 0.187500 0.000000
vt 0.187500 0.031250
vt 0.171875 0.281250
vt 0.125000 0.031250
vt 0.171875 0.031250
vt 0.625000 1.000000
vt 0.375000 1.000000
vt 0.375000 0.687500
vt 0.625000 0.687500
vt 0.781250 1.000000
vt 0.781250 0.687500
vt 0.359375 0.968750
vt 0.359375 1.000000
vt 0.328125 1.000000
vt 0.359375 0.937500
vt 0.328125 0.968750
vt 0.296875 0.750000
vt 0.328125 0.750000
vt 0.343750 1.000000
vt 0.328125 0.562500
vt 0.296875 0.562500
vt 0.296875 0.625000
vt 0.328125 0.625000
vt 0.312500 0.562500
vt 0.343750 0.562500
vt 0.359375 0.562500
vt 0.031250 0.312500
vt 0.359375 0.312500
vt 0.078125 0.062500
vt 0.312500 0.031250
vt 0.328125 0.937500
vt 0.296875 1.000000
vt 0.359375 0.500000
vn 0.000000 -1.000000 0.000000
vn 0.000000 0.000000 1.000000
vn 0.000000 1.000000 0.000000
vn 0.000000 0.000000 -1.000000
vn -1.000000 0.000000 0.000000
vn 0.000000 0.500000 0.866000
vn 0.000000 0.500000 -0.866000
vn 0.000000 -0.500000 -0.866000
vn 1.000000 -0.000000 0.000000
vn 0.000000 -0.500000 0.866000
vn 0.707100 0.707100 0.000000
vn -0.707100 0.707100 0.000000
usemtl None
s off
f 30/27/10 26/28/10 25/29/10
f 31/30/11 27/31/11 26/32/11
f 32/29/12 28/33/12 27/27/12
f 29/27/13 25/32/13 28/31/13
f 26/33/14 27/34/14 28/35/14
f 47/36/13 51/37/13 52/38/13
f 33/39/12 49/40/12 59/37/12
f 36/41/15 38/42/15 37/43/15
f 54/36/10 48/44/10 52/45/10
f 54/46/11 56/47/11 55/48/11
f 38/42/12 40/49/12 39/50/12
f 55/40/12 51/37/12 47/36/12
f 40/51/16 42/52/16 41/53/16
f 34/54/11 50/38/11 49/37/11
f 42/52/17 44/55/17 43/56/17
f 36/57/18 44/58/18 40/59/18
f 46/60/19 36/41/19 35/61/19
f 44/55/10 46/60/10 45/62/10
f 63/63/18 62/64/18 61/65/18
f 58/36/10 60/37/10 50/45/10
f 59/48/13 60/47/13 58/46/13
f 61/65/11 64/66/11 32/63/11
f 62/67/12 61/68/12 29/66/12
f 63/63/13 62/64/13 30/65/13
f 64/67/10 63/68/10 31/66/10
f 70/69/20 72/70/20 71/71/20
f 68/72/21 70/69/21 69/73/21
f 65/74/12 66/75/12 72/71/12
f 69/70/13 71/69/13 67/76/13
f 72/69/11 70/76/11 68/70/11
f 79/77/13 80/78/13 52/38/13
f 82/79/11 81/80/11 73/77/11
f 79/78/18 81/79/18 82/80/18
f 78/78/18 84/79/18 83/80/18
f 80/81/10 82/82/10 74/40/10
f 77/83/12 83/77/12 75/37/12
f 83/83/13 84/77/13 76/37/13
f 78/78/11 77/77/11 49/37/11
f 81/83/12 79/77/12 51/37/12
f 84/82/10 78/81/10 50/45/10
f 55/48/14 56/47/14 74/37/14
f 76/37/14 60/47/14 59/48/14
f 29/33/10 30/27/10 25/29/10
f 30/27/11 31/30/11 26/32/11
f 31/28/12 32/29/12 27/27/12
f 32/30/13 29/27/13 28/31/13
f 25/84/14 26/33/14 28/35/14
f 48/54/13 47/36/13 52/38/13
f 57/36/12 33/39/12 59/37/12
f 35/61/15 36/41/15 37/43/15
f 56/37/10 54/36/10 52/45/10
f 53/85/11 54/46/11 55/48/11
f 37/86/12 38/42/12 39/50/12
f 53/39/12 55/40/12 47/36/12
f 39/87/16 40/51/16 41/53/16
f 33/36/11 34/54/11 49/37/11
f 41/53/17 42/52/17 43/56/17
f 40/59/18 38/62/18 36/57/18
f 36/57/18 46/57/18 44/58/18
f 44/58/18 42/58/18 40/59/18
f 45/62/19 46/60/19 35/61/19
f 43/56/10 44/55/10 45/62/10
f 64/66/18 63/63/18 61/65/18
f 34/44/10 58/36/10 50/45/10
f 57/85/13 59/48/13 58/46/13
f 29/64/11 61/65/11 32/63/11
f 30/63/12 62/67/12 29/66/12
f 31/66/13 63/63/13 30/65/13
f 32/63/10 64/67/10 31/66/10
f 69/73/20 70/69/20 71/71/20
f 67/88/21 68/72/21 69/73/21
f 71/89/12 65/74/12 72/71/12
f 51/37/13 79/77/13 52/38/13
f 74/78/11 82/79/11 73/77/11
f 80/77/18 79/78/18 82/80/18
f 77/77/18 78/78/18 83/80/18
f 52/45/10 80/81/10 74/40/10
f 49/90/12 77/83/12 75/37/12
f 75/90/13 83/83/13 76/37/13
f 50/38/11 78/78/11 49/37/11
f 73/90/12 81/83/12 51/37/12
f 76/40/10 84/82/10 50/45/10
f 73/90/14 55/48/14 74/37/14
f 75/90/14 76/37/14 59/48/14
o Minecraft_2_Edge_Connectivity_Cube.002
v 0.000000 0.500000 0.500000
v 0.000000 0.500000 -0.500000
v 0.000000 -0.500000 -0.500000
v 0.000000 -0.500000 0.500000
v 0.500000 0.500000 -0.000000
v 0.500000 -0.500000 0.000000
vn -1.000000 0.000000 0.000000
vn 0.707100 -0.000000 -0.707100
vn 0.000000 1.000000 0.000000
vn -0.000000 -1.000000 0.000000
vn 0.707100 0.000000 0.707100
usemtl Material
s off
f 86//22 87//22 88//22
f 89//23 90//23 87//23
f 85//24 89//24 86//24
f 87//25 90//25 88//25
f 85//26 88//26 90//26
f 85//22 86//22 88//22
f 86//23 89//23 87//23
f 89//26 85//26 90//26
o Minecraft_4_Edge_Connectivity_Cube.001
v 0.000000 0.500000 0.500000
v 0.000000 0.500000 -0.500000
v 0.000000 -0.500000 -0.500000
v 0.000000 -0.500000 0.500000
v 0.500000 -0.000000 -0.000000
vn -1.000000 0.000000 0.000000
vn 0.707100 0.707100 0.000000
vn 0.707100 -0.000000 -0.707100
vn 0.707100 -0.707100 0.000000
vn 0.707100 0.000000 0.707100
usemtl Material
s off
f 92//27 93//27 94//27
f 91//28 95//28 92//28
f 92//29 95//29 93//29
f 93//30 95//30 94//30
f 95//31 91//31 94//31
f 91//27 92//27 94//27
o Minecraft_Block_Cube
v 0.000000 0.500000 0.500000
v 0.000000 0.500000 -0.500000
v 0.000000 -0.500000 -0.500000
v 0.000000 -0.500000 0.500000
v 1.000000 0.500000 0.500000
v 1.000000 0.500000 -0.500000
v 1.000000 -0.500000 -0.500000
v 1.000000 -0.500000 0.500000
vn -1.000000 0.000000 0.000000
vn 1.000000 0.000000 0.000000
vn 0.000000 1.000000 -0.000000
vn -0.000000 -0.000000 -1.000000
vn -0.000000 -1.000000 0.000000
vn 0.000000 0.000000 1.000000
usemtl Material
s off
f 97//32 98//32 99//32
f 103//33 102//33 101//33
f 100//34 101//34 97//34
f 101//35 102//35 98//35
f 98//36 102//36 103//36
f 96//37 99//37 103//37
f 96//32 97//32 99//32
f 100//33 103//33 101//33
f 96//34 100//34 97//34
f 97//35 101//35 98//35
f 99//36 98//36 103//36
f 100//37 96//37 103//37
