# Blender v2.78 (sub 0) OBJ File: 'bigSolarPanelrot.blend'
# www.blender.org
mtllib bigSolarPanelrot.mtl
o StaticPart_Cube.009
v 0.948917 -0.356865 -0.448917
v 0.948917 0.356865 -0.448917
v 0.948917 -0.356865 -0.551083
v 0.948917 0.356865 -0.551083
v 1.051083 -0.356865 -0.448917
v 1.051083 0.356865 -0.448917
v 1.051083 -0.356865 -0.551083
v 1.051083 0.356865 -0.551083
v 0.948917 0.428859 -0.484797
v 0.948917 0.428859 -0.515203
v 1.051083 0.428859 -0.515203
v 1.051083 0.428859 -0.484797
v 0.948917 -0.486570 -0.551083
v 0.948917 -0.486570 -0.448917
v 1.051083 -0.486570 -0.551083
v 1.051083 -0.486570 -0.448917
v 2.362236 -0.356865 -0.448917
v 2.362236 -0.356865 -0.551083
v 2.362236 -0.486570 -0.448917
v 2.362236 -0.486570 -0.551083
v -0.321396 -0.356865 -0.551083
v -0.321396 -0.356865 -0.448917
v -0.321396 -0.486570 -0.551083
v -0.321396 -0.486570 -0.448917
v 1.051083 -0.356865 -1.508206
v 0.948917 -0.356865 -1.508206
v 1.051083 -0.486570 -1.508206
v 0.948917 -0.486570 -1.508206
v 0.948917 -0.356865 0.503437
v 1.051083 -0.356865 0.503437
v 0.948917 -0.486570 0.503437
v 1.051083 -0.486570 0.503437
vt 0.7500 0.4375
vt 1.0000 0.4375
vt 1.0000 0.6875
vt 0.7500 0.6875
vt 0.7500 0.4375
vt 1.0000 0.4375
vt 1.0000 0.6875
vt 0.7500 0.6875
vt 0.7500 0.4375
vt 1.0000 0.4375
vt 1.0000 0.6875
vt 0.7500 0.6875
vt 0.7500 0.4375
vt 1.0000 0.4375
vt 1.0000 0.6875
vt 0.7500 0.6875
vt 1.0000 0.4375
vt 1.0000 0.6875
vt 0.7500 0.6875
vt 0.7500 0.4375
vt 1.0000 0.6875
vt 0.7500 0.6875
vt 0.7500 0.4375
vt 1.0000 0.4375
vt 1.0000 0.6875
vt 0.7500 0.4375
vt 0.7500 0.6875
vt 0.7500 0.4375
vt 1.0000 0.6875
vt 0.7500 0.6875
vt 0.7500 0.4375
vt 1.0000 0.6875
vt 0.7500 0.6875
vt 0.7500 0.4375
vt 1.0000 0.4375
vt 1.0000 0.6875
vt 0.7500 0.6875
vt 0.7500 0.4375
vt 1.0000 0.4375
vt 1.0000 0.6875
vt 0.7500 0.6875
vt 0.7500 0.4375
vt 1.0000 0.6875
vt 0.7500 0.6875
vt 1.0000 0.4375
vt 1.0000 0.6875
vt 0.7500 0.6875
vt 0.7500 0.4375
vt 1.0000 0.4375
vt 1.0000 0.6875
vt 0.7500 0.4375
vt 1.0000 0.6875
vt 0.7500 0.6875
vt 1.0000 0.4375
vt 1.0000 0.6875
vt 0.7500 0.6875
vt 1.0000 0.4375
vt 0.7500 0.6875
vt 0.7500 0.4375
vt 1.0000 0.4375
vt 1.0000 0.6875
vt 1.0000 0.4375
vt 1.0000 0.6875
vt 0.7500 0.6875
vt 1.0000 0.4375
vt 1.0000 0.6875
vt 0.7500 0.6875
vt 0.7500 0.6875
vt 0.7500 0.4375
vt 1.0000 0.4375
vt 1.0000 0.6875
vt 0.7500 0.6875
vt 1.0000 0.6875
vt 0.7500 0.6875
vt 0.7500 0.6875
vt 1.0000 0.6875
vt 0.7500 0.4375
vt 1.0000 0.4375
vt 1.0000 0.6875
vt 0.7500 0.6875
vt 0.7500 0.6875
vt 1.0000 0.6875
vt 1.0000 0.6875
vt 0.7500 0.6875
vn -1.0000 0.0000 0.0000
vn 0.0000 0.0000 -1.0000
vn 1.0000 0.0000 0.0000
vn 0.0000 0.0000 1.0000
vn 0.0000 1.0000 0.0000
vn 0.0000 0.4461 0.8950
vn 0.0000 0.4461 -0.8950
vn 0.0000 -1.0000 0.0000
usemtl None
s off
f 1/1/1 2/2/1 4/3/1 3/4/1
f 3/5/2 4/6/2 8/7/2 7/8/2
f 7/9/3 8/10/3 6/11/3 5/12/3
f 5/13/4 6/14/4 2/15/4 1/16/4
f 5/13/5 1/17/5 29/18/5 30/19/5
f 6/20/3 8/10/3 11/21/3 12/22/3
f 11/23/5 10/24/5 9/25/5 12/22/5
f 4/26/1 2/2/1 9/25/1 10/27/1
f 2/28/6 6/14/6 12/29/6 9/30/6
f 8/31/7 4/6/7 10/32/7 11/33/7
f 13/34/8 15/35/8 16/36/8 14/37/8
f 15/38/8 13/39/8 28/40/8 27/41/8
f 14/42/4 1/17/4 22/43/4 24/44/4
f 15/38/2 7/45/2 18/46/2 20/47/2
f 18/48/3 17/49/3 19/50/3 20/47/3
f 16/51/8 15/35/8 20/52/8 19/53/8
f 7/9/5 5/54/5 17/55/5 18/56/5
f 5/13/4 16/57/4 19/50/4 17/58/4
f 22/59/1 21/60/1 23/61/1 24/44/1
f 1/1/5 3/62/5 21/63/5 22/64/5
f 13/34/8 14/65/8 24/66/8 23/67/8
f 3/5/2 13/39/2 23/61/2 21/68/2
f 26/69/2 25/70/2 27/71/2 28/72/2
f 3/5/5 7/45/5 25/73/5 26/74/5
f 7/9/3 15/35/3 27/71/3 25/75/3
f 13/34/1 3/62/1 26/76/1 28/72/1
f 30/77/4 29/78/4 31/79/4 32/80/4
f 1/1/1 14/65/1 31/79/1 29/81/1
f 16/51/3 5/54/3 30/82/3 32/80/3
f 14/42/8 16/57/8 32/83/8 31/84/8
o Cube.002_Cube.008
v 2.509894 -0.357645 -0.601567
v 2.509894 -0.493742 -0.601567
v 2.509894 -0.357645 -0.401567
v 2.509894 -0.493742 -0.401567
v 2.309894 -0.357645 -0.601567
v 2.309894 -0.493742 -0.601567
v 2.309894 -0.357645 -0.401567
v 2.309894 -0.493742 -0.401567
vt 0.8125 0.6875
vt 0.8750 0.6875
vt 0.8750 0.7500
vt 0.8125 0.7500
vt 0.7500 0.7500
vt 1.0000 0.7500
vt 1.0000 1.0000
vt 0.7500 1.0000
vt 0.7500 0.7500
vt 1.0000 0.7500
vt 1.0000 1.0000
vt 0.7500 1.0000
vt 0.7500 0.7500
vt 1.0000 0.7500
vt 1.0000 1.0000
vt 0.7500 1.0000
vt 1.0000 0.7500
vt 1.0000 1.0000
vt 0.7500 0.7500
vt 0.7500 1.0000
vn -1.0000 0.0000 0.0000
vn 0.0000 0.0000 -1.0000
vn 1.0000 0.0000 0.0000
vn 0.0000 0.0000 1.0000
vn 0.0000 -1.0000 0.0000
vn 0.0000 1.0000 0.0000
usemtl None
s off
f 33/85/9 34/86/9 36/87/9 35/88/9
f 35/89/10 36/90/10 40/91/10 39/92/10
f 39/93/11 40/94/11 38/95/11 37/96/11
f 37/97/12 38/98/12 34/99/12 33/100/12
f 35/89/13 39/101/13 37/102/13 33/100/13
f 40/103/14 36/90/14 34/99/14 38/104/14
o Cube.001_Cube.007
v -0.290106 -0.357645 -0.601567
v -0.290106 -0.493742 -0.601567
v -0.290106 -0.357645 -0.401567
v -0.290106 -0.493742 -0.401567
v -0.490106 -0.357645 -0.601567
v -0.490106 -0.493742 -0.601567
v -0.490106 -0.357645 -0.401567
v -0.490106 -0.493742 -0.401567
vt 0.7500 0.7500
vt 1.0000 0.7500
vt 1.0000 1.0000
vt 0.7500 1.0000
vt 0.7500 0.7500
vt 1.0000 0.7500
vt 1.0000 1.0000
vt 0.7500 1.0000
vt 0.7500 0.6875
vt 0.8125 0.6875
vt 0.8125 0.7500
vt 0.7500 0.7500
vt 1.0000 0.7500
vt 1.0000 1.0000
vt 0.7500 1.0000
vt 1.0000 0.7500
vt 1.0000 1.0000
vt 0.7500 0.7500
vt 0.7500 1.0000
vn -1.0000 0.0000 0.0000
vn 0.0000 0.0000 -1.0000
vn 1.0000 0.0000 0.0000
vn 0.0000 0.0000 1.0000
vn 0.0000 -1.0000 0.0000
vn 0.0000 1.0000 0.0000
usemtl None
s off
f 41/105/15 42/106/15 44/107/15 43/108/15
f 43/109/16 44/110/16 48/111/16 47/112/16
f 47/113/17 48/114/17 46/115/17 45/116/17
f 45/116/18 46/117/18 42/118/18 41/119/18
f 43/109/19 47/120/19 45/121/19 41/119/19
f 48/122/20 44/110/20 42/118/20 46/123/20
o Cube_Cube.006
v -0.500000 0.483886 0.500000
v -0.500000 0.516114 0.500000
v -0.500000 0.483886 -1.500000
v -0.500000 0.516114 -1.500000
v 2.500000 0.483886 0.500000
v 2.500000 0.516114 0.500000
v 2.500000 0.483886 -1.500000
v 2.500000 0.516114 -1.500000
v 1.052254 0.485696 -0.531647
v 0.947804 0.485696 -0.531647
v 1.052254 0.485696 -0.466196
v 0.947804 0.485696 -0.466196
v 1.052254 0.451090 -0.531647
v 0.947804 0.451090 -0.531647
v 1.052254 0.451090 -0.466196
v 0.947804 0.451090 -0.466196
v 0.947804 0.485696 -0.531647
v 0.947804 0.485696 -0.466196
v 0.947804 0.451090 -0.466196
v 0.947804 0.451090 -0.531647
v 1.083829 0.485696 -0.466196
v 1.083829 0.485696 -0.531647
v 1.083829 0.451090 -0.466196
v 1.083829 0.451090 -0.531647
v 0.922092 0.485696 -0.531647
v 0.922092 0.485696 -0.466196
v 0.922092 0.451090 -0.466196
v 0.922092 0.451090 -0.531647
v 0.947804 0.391683 -0.466196
v 0.947804 0.391683 -0.531647
v 0.922092 0.391683 -0.466196
v 0.922092 0.391683 -0.531647
v 1.052254 0.392642 -0.531647
v 1.052254 0.392642 -0.466196
v 1.083829 0.392642 -0.531647
v 1.083829 0.392642 -0.466196
v 1.052254 0.365313 -0.514208
v 1.052254 0.365313 -0.483635
v 1.083829 0.365313 -0.514208
v 1.083829 0.365313 -0.483635
v 0.947804 0.368839 -0.485509
v 0.947804 0.368839 -0.512334
v 0.922092 0.368839 -0.485509
v 0.922092 0.368839 -0.512334
vt 0.7500 0.7500
vt 1.0000 0.7500
vt 1.0000 1.0000
vt 0.7500 1.0000
vt 0.7500 0.7500
vt 1.0000 0.7500
vt 1.0000 1.0000
vt 0.7500 1.0000
vt 0.7500 0.7500
vt 1.0000 0.7500
vt 1.0000 1.0000
vt 0.7500 1.0000
vt 0.7500 0.7500
vt 1.0000 0.7500
vt 1.0000 1.0000
vt 0.7500 1.0000
vt 1.0000 0.7500
vt 1.0000 1.0000
vt 0.0000 1.0000
vt -0.0000 0.0000
vt 0.7500 0.0000
vt 0.7500 1.0000
vt 0.8125 0.9922
vt 0.8125 0.9922
vt 0.8125 0.9922
vt 0.8125 0.9922
vt 0.8125 0.8047
vt 0.8828 0.8516
vt 0.8125 0.8047
vt 0.8125 0.8047
vt 0.8125 0.9922
vt 0.8359 0.7812
vt 0.8672 0.9688
vt 0.8672 0.9688
vt 0.9141 0.8438
vt 0.9297 0.8750
vt 0.7734 0.9219
vt 0.8281 0.9219
vt 0.8828 0.7812
vt 0.9375 0.9766
vt 0.8672 0.9688
vt 0.8125 0.7891
vt 0.7969 0.8594
vt 0.8672 0.9688
vt 0.7734 0.8438
vt 0.7891 0.7891
vt 0.9141 0.8438
vt 0.9688 0.8672
vt 0.9141 0.7656
vt 0.9141 0.8438
vt 0.8828 0.7812
vt 0.8828 0.7812
vt 0.9766 0.8359
vt 0.9375 0.7656
vt 0.9375 0.7656
vt 0.9375 0.7656
vt 0.9141 0.7656
vt 0.9141 0.7656
vt 0.0000 0.0000
vt 0.0000 0.0000
vt 0.0000 0.0000
vt 0.0000 0.0000
vt 0.0000 0.0000
vt 0.0000 0.0000
vt 0.0000 0.0000
vt 0.0000 0.0000
vn -1.0000 0.0000 0.0000
vn 0.0000 0.0000 -1.0000
vn 1.0000 0.0000 0.0000
vn 0.0000 0.0000 1.0000
vn 0.0000 -1.0000 0.0000
vn 0.0000 1.0000 0.0000
vn 0.0000 -0.6456 0.7637
vn 0.0000 -0.5379 0.8430
vn 0.0000 -0.5379 -0.8430
vn 0.0000 -0.6456 -0.7637
usemtl Material.001
s off
f 49/124/21 50/125/21 52/126/21 51/127/21
f 51/128/22 52/129/22 56/130/22 55/131/22
f 55/132/23 56/133/23 54/134/23 53/135/23
f 53/136/24 54/137/24 50/138/24 49/139/24
f 51/128/25 55/140/25 53/141/25 49/139/25
f 56/142/26 52/143/26 50/144/26 54/145/26
f 57/146/26 58/147/26 60/148/26 59/149/26
f 59/149/24 60/148/24 64/150/24 63/151/24
f 63/151/25 64/150/25 62/152/25 61/153/25
f 61/153/22 62/152/22 58/147/22 57/146/22
f 61/153/22 57/146/22 70/154/22 72/155/22
f 68/156/23 67/157/23 77/158/23 78/159/23
f 69/160/23 71/161/23 72/155/23 70/154/23
f 59/149/24 63/151/24 71/161/24 69/160/24
f 57/146/26 59/149/26 69/160/26 70/154/26
f 61/153/22 72/155/22 83/162/22 81/163/22
f 75/164/21 74/165/21 73/166/21 76/167/21
f 66/168/26 65/169/26 73/166/26 74/165/26
f 65/169/22 68/156/22 76/167/22 73/166/22
f 67/157/24 66/168/24 74/165/24 75/164/24
f 77/158/27 79/170/27 91/171/27 89/172/27
f 67/157/24 75/164/24 79/170/24 77/158/24
f 75/164/21 76/167/21 80/173/21 79/170/21
f 76/167/22 68/156/22 78/159/22 80/173/22
f 84/174/28 82/175/28 86/176/28 88/177/28
f 71/161/24 63/151/24 82/175/24 84/174/24
f 72/155/23 71/161/23 84/174/23 83/162/23
f 63/151/21 61/153/21 81/163/21 82/175/21
f 86/176/25 85/178/25 87/179/25 88/177/25
f 83/162/23 84/174/23 88/177/23 87/179/23
f 81/163/29 83/162/29 87/179/29 85/178/29
f 82/175/21 81/163/21 85/178/21 86/176/21
f 90/180/25 89/172/25 91/171/25 92/181/25
f 78/159/23 77/158/23 89/172/23 90/180/23
f 80/173/30 78/159/30 90/180/30 92/181/30
f 79/170/21 80/173/21 92/181/21 91/171/21
usemtl Material.001_NONE
f 64/182/24 60/183/24 66/184/24 67/185/24
f 62/186/24 64/182/24 67/185/24 68/187/24
f 60/183/24 58/188/24 65/189/24 66/184/24
f 58/188/24 62/186/24 68/187/24 65/189/24
o Minecraft_Block.005_Cube.005
v 2.500000 -0.500000 -0.500000
v 2.500000 -0.500000 0.500000
v 1.500000 -0.500000 0.500000
v 1.500000 -0.500000 -0.500000
v 2.500000 0.500000 -0.500000
v 2.500000 0.500000 0.500000
v 1.500000 0.500000 0.500000
v 1.500000 0.500000 -0.500000
vn 0.0000 -1.0000 0.0000
vn 0.0000 1.0000 0.0000
vn 1.0000 0.0000 0.0000
vn -0.0000 -0.0000 1.0000
vn -1.0000 0.0000 -0.0000
vn 0.0000 0.0000 -1.0000
usemtl Material
s off
f 93//31 94//31 95//31 96//31
f 97//32 100//32 99//32 98//32
f 93//33 97//33 98//33 94//33
f 94//34 98//34 99//34 95//34
f 95//35 99//35 100//35 96//35
f 97//36 93//36 96//36 100//36
o Minecraft_Block.004_Cube.004
v 1.500000 -0.500000 -0.500000
v 1.500000 -0.500000 0.500000
v 0.500000 -0.500000 0.500000
v 0.500000 -0.500000 -0.500000
v 1.500000 0.500000 -0.500000
v 1.500000 0.500000 0.500000
v 0.500000 0.500000 0.500000
v 0.500000 0.500000 -0.500000
vn 0.0000 -1.0000 0.0000
vn 0.0000 1.0000 0.0000
vn 1.0000 -0.0000 0.0000
vn -0.0000 -0.0000 1.0000
vn -1.0000 -0.0000 -0.0000
vn 0.0000 0.0000 -1.0000
usemtl Material
s off
f 101//37 102//37 103//37 104//37
f 105//38 108//38 107//38 106//38
f 101//39 105//39 106//39 102//39
f 102//40 106//40 107//40 103//40
f 103//41 107//41 108//41 104//41
f 105//42 101//42 104//42 108//42
o Minecraft_Block.003_Cube.003
v 2.500000 -0.500000 -1.500000
v 2.500000 -0.500000 -0.500000
v 1.500000 -0.500000 -0.500000
v 1.500000 -0.500000 -1.500000
v 2.500000 0.500000 -1.500000
v 2.500000 0.500000 -0.500000
v 1.500000 0.500000 -0.500000
v 1.500000 0.500000 -1.500000
vn 0.0000 -1.0000 0.0000
vn 0.0000 1.0000 0.0000
vn 1.0000 0.0000 0.0000
vn -0.0000 -0.0000 1.0000
vn -1.0000 -0.0000 -0.0000
vn 0.0000 0.0000 -1.0000
usemtl Material
s off
f 109//43 110//43 111//43 112//43
f 113//44 116//44 115//44 114//44
f 109//45 113//45 114//45 110//45
f 110//46 114//46 115//46 111//46
f 111//47 115//47 116//47 112//47
f 113//48 109//48 112//48 116//48
o Minecraft_Block.002_Cube.002
v 1.500000 -0.500000 -1.500000
v 1.500000 -0.500000 -0.500000
v 0.500000 -0.500000 -0.500000
v 0.500000 -0.500000 -1.500000
v 1.500000 0.500000 -1.500000
v 1.500000 0.500000 -0.500000
v 0.500000 0.500000 -0.500000
v 0.500000 0.500000 -1.500000
vn 0.0000 -1.0000 0.0000
vn 0.0000 1.0000 0.0000
vn 1.0000 -0.0000 0.0000
vn -0.0000 -0.0000 1.0000
vn -1.0000 -0.0000 -0.0000
vn 0.0000 0.0000 -1.0000
usemtl Material
s off
f 117//49 118//49 119//49 120//49
f 121//50 124//50 123//50 122//50
f 117//51 121//51 122//51 118//51
f 118//52 122//52 123//52 119//52
f 119//53 123//53 124//53 120//53
f 121//54 117//54 120//54 124//54
o Minecraft_Block.001_Cube.001
v 0.500000 -0.500000 -1.500000
v 0.500000 -0.500000 -0.500000
v -0.500000 -0.500000 -0.500000
v -0.500000 -0.500000 -1.500000
v 0.500000 0.500000 -1.500000
v 0.500000 0.500000 -0.500000
v -0.500000 0.500000 -0.500000
v -0.500000 0.500000 -1.500000
vn 0.0000 -1.0000 0.0000
vn 0.0000 1.0000 0.0000
vn 1.0000 0.0000 0.0000
vn -0.0000 -0.0000 1.0000
vn -1.0000 -0.0000 -0.0000
vn 0.0000 0.0000 -1.0000
usemtl Material
s off
f 125//55 126//55 127//55 128//55
f 129//56 132//56 131//56 130//56
f 125//57 129//57 130//57 126//57
f 126//58 130//58 131//58 127//58
f 127//59 131//59 132//59 128//59
f 129//60 125//60 128//60 132//60
o Minecraft_Block_Cube
v 0.500000 -0.500000 -0.500000
v 0.500000 -0.500000 0.500000
v -0.500000 -0.500000 0.500000
v -0.500000 -0.500000 -0.500000
v 0.500000 0.500000 -0.500000
v 0.500000 0.500000 0.500000
v -0.500000 0.500000 0.500000
v -0.500000 0.500000 -0.500000
vn 0.0000 -1.0000 0.0000
vn 0.0000 1.0000 0.0000
vn 1.0000 0.0000 0.0000
vn -0.0000 -0.0000 1.0000
vn -1.0000 -0.0000 -0.0000
vn 0.0000 0.0000 -1.0000
usemtl Material
s off
f 133//61 134//61 135//61 136//61
f 137//62 140//62 139//62 138//62
f 133//63 137//63 138//63 134//63
f 134//64 138//64 139//64 135//64
f 135//65 139//65 140//65 136//65
f 137//66 133//66 136//66 140//66
