# Blender v2.78 (sub 0) OBJ File: 'scanner.blend'
# www.blender.org
mtllib scanner.mtl
o Base_Cube.003
v 0.025184 -0.432000 -0.291069
v -0.000949 -0.432000 -0.338785
v 0.025184 -0.432000 0.432000
v -0.000949 -0.432000 0.432000
v 0.025184 0.432000 -0.291069
v -0.000949 0.432000 -0.338785
v 0.025184 0.432000 0.432000
v -0.000949 0.432000 0.432000
v 0.025184 -0.432000 -0.291069
v 0.025184 0.432000 -0.291069
v 0.025184 -0.432000 -0.291069
v -0.000949 -0.432000 -0.338785
v -0.000949 0.432000 -0.338785
v 0.025184 0.432000 -0.291069
vt 0.1875 0.6562
vt 0.0312 0.8438
vt 0.2188 0.6562
vt 0.0625 0.8438
vt 0.2188 0.7812
vt 0.2188 0.8438
vt 0.1562 0.8438
vt 0.0312 0.6562
vt 0.1875 0.6562
vt 0.0938 0.8438
vt 0.2211 0.0001
vt 0.9151 0.0122
vt 0.2211 0.0122
vt 0.1562 0.6562
vt 0.0938 0.6562
vt 0.9151 0.0001
vn -1.0000 0.0000 0.0000
vn 0.0000 1.0000 0.0000
vn 0.0000 0.0000 -1.0000
vn 0.0000 -1.0000 0.0000
vn 0.0000 0.0000 1.0000
vn 1.0000 0.0000 0.0000
vn -0.8771 0.0000 0.4804
usemtl Material.002
s off
f 7/1/1 1/2/1 3/3/1
f 7/1/1 5/4/1 1/2/1
usemtl Material.002_NONE
f 1/2/2 4/5/2 3/3/2
f 4/5/3 7/1/3 3/3/3
f 8/6/4 5/4/4 7/1/4
f 2/7/5 11/8/5 12/9/5
f 4/5/6 6/10/6 8/6/6
f 1/11/5 10/12/5 9/13/5
f 13/14/7 11/8/7 14/15/7
f 1/2/5 14/15/5 11/8/5
f 6/10/5 12/9/5 13/14/5
f 5/4/5 13/14/5 14/15/5
f 1/2/2 2/7/2 4/5/2
f 4/5/3 8/6/3 7/1/3
f 8/6/4 6/10/4 5/4/4
f 2/7/5 1/2/5 11/8/5
f 4/5/6 2/7/6 6/10/6
f 1/11/5 5/16/5 10/12/5
f 13/14/7 12/9/7 11/8/7
f 1/2/5 5/4/5 14/15/5
f 6/10/5 2/7/5 12/9/5
f 5/4/5 6/10/5 13/14/5
o Minecraft_2_Edge_Connectivity_Cube.002
v 0.000000 -0.500000 -0.500000
v 0.000000 -0.500000 0.500000
v 0.000000 0.500000 0.500000
v 0.000000 0.500000 -0.500000
v 0.500000 -0.500000 0.000000
v 0.500000 0.500000 -0.000000
vn -1.0000 0.0000 0.0000
vn 0.7071 0.0000 0.7071
vn 0.0000 -1.0000 0.0000
vn -0.0000 1.0000 -0.0000
vn 0.7071 -0.0000 -0.7071
usemtl Material
s off
f 16//8 18//8 15//8
f 19//9 17//9 16//9
f 15//10 19//10 16//10
f 17//11 20//11 18//11
f 15//12 20//12 19//12
f 16//8 17//8 18//8
f 19//9 20//9 17//9
f 15//12 18//12 20//12
o Minecraft_4_Edge_Connectivity_Cube.001
v 0.000000 -0.500000 -0.500000
v 0.000000 -0.500000 0.500000
v 0.000000 0.500000 0.500000
v 0.000000 0.500000 -0.500000
v 0.500000 0.000000 0.000000
vn -1.0000 0.0000 0.0000
vn 0.7071 -0.7071 0.0000
vn 0.7071 0.0000 0.7071
vn 0.7071 0.7071 -0.0000
vn 0.7071 -0.0000 -0.7071
usemtl Material
s off
f 22//13 24//13 21//13
f 21//14 25//14 22//14
f 22//15 25//15 23//15
f 23//16 25//16 24//16
f 25//17 21//17 24//17
f 22//13 23//13 24//13
o Minecraft_Block_Cube
v 0.000000 -0.500000 -0.500000
v 0.000000 -0.500000 0.500000
v 0.000000 0.500000 0.500000
v 0.000000 0.500000 -0.500000
v 1.000000 -0.500000 -0.500000
v 1.000000 -0.500000 0.500000
v 1.000000 0.500000 0.500000
v 1.000000 0.500000 -0.500000
vn -1.0000 0.0000 0.0000
vn 1.0000 0.0000 0.0000
vn -0.0000 -1.0000 0.0000
vn -0.0000 0.0000 1.0000
vn -0.0000 1.0000 -0.0000
vn 0.0000 -0.0000 -1.0000
usemtl Material
s off
f 27//18 29//18 26//18
f 33//19 31//19 30//19
f 30//20 27//20 26//20
f 31//21 28//21 27//21
f 28//22 33//22 29//22
f 26//23 33//23 30//23
f 27//18 28//18 29//18
f 33//19 32//19 31//19
f 30//20 31//20 27//20
f 31//21 32//21 28//21
f 28//22 32//22 33//22
f 26//23 29//23 33//23
o main
v 0.009898 0.125000 -0.031695
v 0.009898 -0.125000 -0.031695
v 0.023304 -0.047886 0.154505
v 0.023304 0.047886 0.154505
v 0.134898 0.125000 -0.031695
v 0.134898 -0.125000 -0.031695
v 0.104620 -0.047886 0.154505
v 0.104620 0.047886 0.154505
v -0.001659 0.046874 0.434893
v 0.009898 0.046875 0.154505
v 0.009898 -0.046875 0.154505
v -0.001659 -0.046876 0.434893
v 0.092091 0.046874 0.434893
v 0.103648 0.046875 0.154505
v 0.103648 -0.046875 0.154505
v 0.092091 -0.046876 0.434893
v 0.134898 0.125001 -0.236030
v 0.134898 -0.124999 -0.236030
v 0.009898 -0.124999 -0.236030
v 0.009898 0.125001 -0.236030
v 0.134898 0.328790 -0.236030
v 0.134898 -0.328789 -0.236030
v 0.009898 -0.328789 -0.236030
v 0.009898 0.328790 -0.236030
v 0.134898 0.328790 -0.326740
v 0.134898 -0.328788 -0.326740
v 0.009898 -0.328788 -0.326740
v 0.009898 0.328790 -0.326740
v 0.134898 0.328790 -0.326740
v 0.134898 -0.328788 -0.326740
v 0.009898 -0.328788 -0.326740
v 0.009898 0.328790 -0.326740
v 0.127451 0.321733 -0.326740
v 0.127451 -0.321731 -0.326740
v 0.017346 -0.321731 -0.326740
v 0.017346 0.321733 -0.326740
v 0.105951 0.321155 -0.239981
v 0.105951 -0.321153 -0.239981
v 0.038845 -0.321153 -0.239981
v 0.038845 0.321155 -0.239981
vt 0.2812 0.8438
vt 0.3125 0.8125
vt 0.3125 0.8125
vt 0.3750 0.8125
vt 0.3125 0.9375
vt 0.3750 0.8438
vt 0.2500 0.7500
vt 0.5000 1.0000
vt 0.2812 1.0000
vt 0.3750 0.8750
vt 0.3438 0.7812
vt 0.5000 0.7500
vt 0.4688 0.9375
vt 0.4688 0.8125
vt 0.3750 0.8125
vt 0.3750 0.8750
vt 0.3750 0.8438
vt 0.4375 0.8750
vt 0.3438 0.9062
vt 0.3438 0.8438
vt 0.4688 0.9688
vt 0.3125 0.8438
vt 0.2812 0.8438
vt 0.3125 0.8125
vt 0.4688 0.9375
vt 0.3438 0.7812
vt 0.3750 0.8438
vt 0.4688 0.9375
vt 0.3438 0.7812
vt 0.3438 0.7812
vt 0.3750 0.8438
vt 0.4062 0.9062
vt 0.3125 0.8125
vt 0.2812 0.8438
vt 0.3125 0.8125
vt 0.3438 0.9688
vt 0.3750 0.8438
vt 0.4688 0.9375
vt 0.4688 0.9375
vt 0.3438 0.7812
vt 0.3125 0.9062
vt 0.3750 0.8438
vt 0.4688 0.9688
vt 0.2812 0.8438
vt 0.3125 0.8125
vt 0.3125 0.8125
vt 0.3750 0.8438
vt 0.4688 0.9375
vt 0.2500 0.8750
vt -0.0000 1.0000
vt -0.0000 0.8750
vt 0.3750 0.8438
vt 0.4688 0.9375
vt 0.4062 0.7812
vt 0.4062 0.9688
vt 0.2812 0.8438
vt 0.4375 0.9375
vt 0.3125 0.8125
vt 0.2812 0.8438
vt 0.3750 0.9062
vt 0.2812 0.8438
vt 0.2500 1.0000
vt 0.4688 0.8750
vn -1.0000 0.0000 0.0000
vn 0.0000 -0.9239 0.3826
vn 0.0000 -0.0000 1.0000
vn 0.0000 0.9239 0.3826
vn 0.9870 -0.0000 0.1605
vn 0.0000 1.0000 0.0000
vn 0.0000 -1.0000 -0.0000
vn 0.9992 -0.0000 0.0412
vn -0.9974 -0.0000 0.0718
vn -0.9992 0.0000 -0.0412
vn 1.0000 0.0000 0.0000
vn 0.0000 0.0000 -1.0000
vn 0.9706 0.0000 -0.2405
vn -0.9706 0.0000 -0.2405
vn 0.0000 -1.0000 -0.0067
vn 0.0000 1.0000 -0.0067
usemtl Material.001
s off
f 34/17/24 52/18/24 35/19/24
f 40/20/25 35/21/25 39/22/25
f 41/23/26 36/24/26 40/25/26
f 41/26/27 34/27/27 37/28/27
f 41/26/28 39/22/28 38/29/28
f 46/30/29 43/31/29 42/32/29
f 49/33/30 44/34/30 48/35/30
f 46/30/26 45/36/26 49/33/26
f 49/33/31 47/37/31 46/30/31
f 35/19/32 37/38/32 34/17/32
f 43/31/33 45/36/33 42/32/33
f 52/18/34 57/39/34 56/40/34
f 39/22/34 50/41/34 38/29/34
f 38/29/29 53/42/29 34/27/29
f 35/21/30 51/43/30 39/22/30
f 54/44/29 61/45/29 57/46/29
f 50/41/34 55/47/34 54/44/34
f 50/41/26 57/46/26 53/42/26
f 52/48/26 55/47/26 51/43/26
f 60/49/26 65/50/26 64/51/26
f 56/52/30 59/53/30 55/47/30
f 57/39/24 60/49/24 56/40/24
f 54/44/34 59/53/34 58/54/34
f 62/55/35 69/56/35 65/57/35
f 58/54/26 63/58/26 62/55/26
f 61/45/26 62/55/26 65/57/26
f 59/53/26 64/59/26 63/58/26
f 69/60/36 72/61/36 68/62/36
f 64/59/35 67/63/35 63/58/35
f 65/50/35 68/62/35 64/51/35
f 63/58/35 66/64/35 62/55/35
f 71/65/35 73/66/35 70/67/35
f 66/64/37 71/68/37 70/69/37
f 69/56/38 70/69/38 73/70/38
f 68/71/39 71/68/39 67/63/39
f 34/17/24 53/72/24 52/18/24
f 40/20/25 36/73/25 35/21/25
f 41/23/26 37/28/26 36/24/26
f 41/26/27 38/29/27 34/27/27
f 41/26/28 40/20/28 39/22/28
f 46/30/29 47/37/29 43/31/29
f 49/33/30 45/36/30 44/34/30
f 46/30/26 42/32/26 45/36/26
f 49/33/31 48/35/31 47/37/31
f 35/19/32 36/74/32 37/38/32
f 43/31/33 44/34/33 45/36/33
f 52/18/24 53/72/24 57/39/24
f 39/22/34 51/43/34 50/41/34
f 38/29/29 50/41/29 53/42/29
f 35/21/30 52/48/30 51/43/30
f 54/44/29 58/54/29 61/45/29
f 50/41/24 51/43/24 55/47/24
f 50/41/26 54/44/26 57/46/26
f 52/48/26 56/52/26 55/47/26
f 60/49/26 61/75/26 65/50/26
f 56/52/30 60/76/30 59/53/30
f 57/39/24 61/75/24 60/49/24
f 54/44/34 55/47/34 59/53/34
f 62/55/35 66/64/35 69/56/35
f 58/54/26 59/53/26 63/58/26
f 61/45/26 58/54/26 62/55/26
f 59/53/26 60/76/26 64/59/26
f 69/60/36 73/77/36 72/61/36
f 64/59/35 68/71/35 67/63/35
f 65/50/35 69/60/35 68/62/35
f 63/58/35 67/63/35 66/64/35
f 71/65/35 72/78/35 73/66/35
f 66/64/37 67/63/37 71/68/37
f 69/56/38 66/64/38 70/69/38
f 68/71/39 72/79/39 71/68/39
