# Blender v2.78 (sub 0) OBJ File: 'bigSolarPanel.blend'
# www.blender.org
mtllib bigSolarPanel.mtl
o main
v -0.089728 -0.365985 -0.503443
v -0.089728 -0.502082 -0.503443
v 0.110272 -0.365985 -0.503443
v 0.110272 -0.502082 -0.503443
v -0.089728 -0.365985 -0.303443
v -0.089728 -0.502082 -0.303443
v 0.110272 -0.365985 -0.303443
v 0.110272 -0.502082 -0.303443
v -0.094256 -0.357645 1.301963
v -0.094256 -0.493742 1.301963
v 0.105744 -0.357645 1.301963
v 0.105744 -0.493742 1.301963
v -0.094256 -0.357645 1.501963
v -0.094256 -0.493742 1.501963
v 0.105744 -0.357645 1.501963
v 0.105744 -0.493742 1.501963
v -1.500000 -0.381166 1.500000
v -1.500000 -0.348938 1.500000
v -1.500000 -0.381166 -0.500000
v -1.500000 -0.348938 -0.500000
v 1.500000 -0.381166 1.500000
v 1.500000 -0.348938 1.500000
v 1.500000 -0.381166 -0.500000
v 1.500000 -0.348938 -0.500000
vt 0.8125 0.7500
vt 0.8750 0.6875
vt 0.8125 0.6875
vt 0.7500 1.0000
vt 1.0000 0.7500
vt 0.7500 0.7500
vt 0.7500 1.0000
vt 1.0000 0.7500
vt 0.7500 0.7500
vt 0.7500 1.0000
vt 1.0000 0.7500
vt 0.7500 0.7500
vt 1.0000 0.7500
vt 0.7500 1.0000
vt 0.7500 0.7500
vt 0.7500 1.0000
vt 1.0000 0.7500
vt 0.7500 0.7500
vt 0.7500 1.0000
vt 1.0000 0.7500
vt 0.7500 0.7500
vt 0.7500 0.7500
vt 0.8125 0.6875
vt 0.7500 0.6875
vt 0.7500 1.0000
vt 1.0000 0.7500
vt 1.0000 0.7500
vt 0.7500 1.0000
vt 0.7500 0.7500
vt 0.9844 0.7656
vt 0.7656 0.9844
vt 0.7656 0.7656
vt 1.0000 0.8125
vt 0.7500 0.9375
vt 0.7500 0.8125
vt 1.0000 0.7734
vt 0.7500 0.9375
vt 0.7500 0.7734
vt 1.0000 0.7656
vt 0.7500 0.9844
vt 0.7500 0.7656
vt 1.0000 0.7500
vt 0.7500 1.0000
vt 0.7500 0.7500
vt -0.0000 0.0000
vt 0.7500 1.0000
vt 0.0000 1.0000
vt 0.8750 0.7500
vt 1.0000 1.0000
vt 1.0000 1.0000
vt 1.0000 1.0000
vt 1.0000 1.0000
vt 1.0000 1.0000
vt 1.0000 1.0000
vt 0.8125 0.7500
vt 1.0000 1.0000
vt 1.0000 1.0000
vt 0.9844 0.9844
vt 1.0000 0.9375
vt 1.0000 0.9375
vt 1.0000 0.9844
vt 1.0000 1.0000
vt 0.7500 0.0000
vn 0.0000 0.0000 -1.0000
vn 1.0000 0.0000 0.0000
vn 0.0000 0.0000 1.0000
vn -1.0000 0.0000 0.0000
vn 0.0000 1.0000 0.0000
vn 0.0000 -1.0000 0.0000
usemtl Material.001
s off
f 3/1/1 2/2/1 1/3/1
f 7/4/2 4/5/2 3/6/2
f 5/7/3 8/8/3 7/9/3
f 1/10/4 6/11/4 5/12/4
f 1/10/5 7/13/5 3/6/5
f 6/14/6 4/5/6 8/15/6
f 11/16/1 10/17/1 9/18/1
f 15/19/2 12/20/2 11/21/2
f 13/22/3 16/23/3 15/24/3
f 9/25/4 14/26/4 13/22/4
f 9/25/5 15/27/5 11/21/5
f 14/28/6 12/20/6 16/29/6
f 18/30/4 19/31/4 17/32/4
f 20/33/1 23/34/1 19/35/1
f 24/36/2 21/37/2 23/38/2
f 22/39/3 17/40/3 21/41/3
f 23/42/6 17/43/6 19/44/6
f 20/45/5 22/46/5 24/47/5
f 3/1/1 4/48/1 2/2/1
f 7/4/2 8/49/2 4/5/2
f 5/7/3 6/50/3 8/8/3
f 1/10/4 2/51/4 6/11/4
f 1/10/5 5/52/5 7/13/5
f 6/14/6 2/51/6 4/5/6
f 11/16/1 12/53/1 10/17/1
f 15/19/2 16/54/2 12/20/2
f 13/22/3 14/55/3 16/23/3
f 9/25/4 10/56/4 14/26/4
f 9/25/5 13/57/5 15/27/5
f 14/28/6 10/56/6 12/20/6
f 18/30/4 20/58/4 19/31/4
f 20/33/1 24/59/1 23/34/1
f 24/36/2 22/60/2 21/37/2
f 22/39/3 18/61/3 17/40/3
f 23/42/6 21/62/6 17/43/6
f 20/45/5 18/63/5 22/46/5
o Minecraft_Block.005_Cube.005
v 2.500000 -0.500000 -0.500000
v 2.500000 -0.500000 0.500000
v 1.500000 -0.500000 0.500000
v 1.500000 -0.500000 -0.500000
v 2.500000 0.500000 -0.500000
v 2.500000 0.500000 0.500000
v 1.500000 0.500000 0.500000
v 1.500000 0.500000 -0.500000
vn 0.0000 -1.0000 0.0000
vn 0.0000 1.0000 0.0000
vn 1.0000 0.0000 0.0000
vn -0.0000 -0.0000 1.0000
vn -1.0000 -0.0000 -0.0000
vn 0.0000 0.0000 -1.0000
usemtl Material
s off
f 26//7 28//7 25//7
f 32//8 30//8 29//8
f 29//9 26//9 25//9
f 30//10 27//10 26//10
f 27//11 32//11 28//11
f 25//12 32//12 29//12
f 26//7 27//7 28//7
f 32//8 31//8 30//8
f 29//9 30//9 26//9
f 30//10 31//10 27//10
f 27//11 31//11 32//11
f 25//12 28//12 32//12
o Minecraft_Block.004_Cube.004
v 1.500000 -0.500000 -0.500000
v 1.500000 -0.500000 0.500000
v 0.500000 -0.500000 0.500000
v 0.500000 -0.500000 -0.500000
v 1.500000 0.500000 -0.500000
v 1.500000 0.500000 0.500000
v 0.500000 0.500000 0.500000
v 0.500000 0.500000 -0.500000
vn 0.0000 -1.0000 0.0000
vn 0.0000 1.0000 0.0000
vn 1.0000 -0.0000 0.0000
vn -0.0000 -0.0000 1.0000
vn -1.0000 -0.0000 -0.0000
vn 0.0000 0.0000 -1.0000
usemtl Material
s off
f 34//13 36//13 33//13
f 40//14 38//14 37//14
f 37//15 34//15 33//15
f 38//16 35//16 34//16
f 35//17 40//17 36//17
f 33//18 40//18 37//18
f 34//13 35//13 36//13
f 40//14 39//14 38//14
f 37//15 38//15 34//15
f 38//16 39//16 35//16
f 35//17 39//17 40//17
f 33//18 36//18 40//18
o Minecraft_Block.003_Cube.003
v 2.500000 -0.500000 -1.500000
v 2.500000 -0.500000 -0.500000
v 1.500000 -0.500000 -0.500000
v 1.500000 -0.500000 -1.500000
v 2.500000 0.500000 -1.500000
v 2.500000 0.500000 -0.500000
v 1.500000 0.500000 -0.500000
v 1.500000 0.500000 -1.500000
vn 0.0000 -1.0000 0.0000
vn 0.0000 1.0000 0.0000
vn 1.0000 0.0000 0.0000
vn -0.0000 -0.0000 1.0000
vn -1.0000 -0.0000 -0.0000
vn 0.0000 0.0000 -1.0000
usemtl Material
s off
f 42//19 44//19 41//19
f 48//20 46//20 45//20
f 45//21 42//21 41//21
f 46//22 43//22 42//22
f 43//23 48//23 44//23
f 41//24 48//24 45//24
f 42//19 43//19 44//19
f 48//20 47//20 46//20
f 45//21 46//21 42//21
f 46//22 47//22 43//22
f 43//23 47//23 48//23
f 41//24 44//24 48//24
o Minecraft_Block.002_Cube.002
v 1.500000 -0.500000 -1.500000
v 1.500000 -0.500000 -0.500000
v 0.500000 -0.500000 -0.500000
v 0.500000 -0.500000 -1.500000
v 1.500000 0.500000 -1.500000
v 1.500000 0.500000 -0.500000
v 0.500000 0.500000 -0.500000
v 0.500000 0.500000 -1.500000
vn 0.0000 -1.0000 0.0000
vn 0.0000 1.0000 0.0000
vn 1.0000 -0.0000 0.0000
vn -0.0000 -0.0000 1.0000
vn -1.0000 -0.0000 -0.0000
vn 0.0000 0.0000 -1.0000
usemtl Material
s off
f 50//25 52//25 49//25
f 56//26 54//26 53//26
f 53//27 50//27 49//27
f 54//28 51//28 50//28
f 51//29 56//29 52//29
f 49//30 56//30 53//30
f 50//25 51//25 52//25
f 56//26 55//26 54//26
f 53//27 54//27 50//27
f 54//28 55//28 51//28
f 51//29 55//29 56//29
f 49//30 52//30 56//30
o Minecraft_Block.001_Cube.001
v 0.500000 -0.500000 -1.500000
v 0.500000 -0.500000 -0.500000
v -0.500000 -0.500000 -0.500000
v -0.500000 -0.500000 -1.500000
v 0.500000 0.500000 -1.500000
v 0.500000 0.500000 -0.500000
v -0.500000 0.500000 -0.500000
v -0.500000 0.500000 -1.500000
vn 0.0000 -1.0000 0.0000
vn 0.0000 1.0000 0.0000
vn 1.0000 -0.0000 0.0000
vn -0.0000 -0.0000 1.0000
vn -1.0000 -0.0000 -0.0000
vn 0.0000 0.0000 -1.0000
usemtl Material
s off
f 58//31 60//31 57//31
f 64//32 62//32 61//32
f 61//33 58//33 57//33
f 62//34 59//34 58//34
f 59//35 64//35 60//35
f 57//36 64//36 61//36
f 58//31 59//31 60//31
f 64//32 63//32 62//32
f 61//33 62//33 58//33
f 62//34 63//34 59//34
f 59//35 63//35 64//35
f 57//36 60//36 64//36
o Minecraft_Block_Cube
v 0.500000 -0.500000 -0.500000
v 0.500000 -0.500000 0.500000
v -0.500000 -0.500000 0.500000
v -0.500000 -0.500000 -0.500000
v 0.500000 0.500000 -0.500000
v 0.500000 0.500000 0.500000
v -0.500000 0.500000 0.500000
v -0.500000 0.500000 -0.500000
vn 0.0000 -1.0000 0.0000
vn 0.0000 1.0000 0.0000
vn 1.0000 -0.0000 0.0000
vn -0.0000 -0.0000 1.0000
vn -1.0000 -0.0000 -0.0000
vn 0.0000 0.0000 -1.0000
usemtl Material
s off
f 66//37 68//37 65//37
f 72//38 70//38 69//38
f 69//39 66//39 65//39
f 70//40 67//40 66//40
f 71//41 68//41 67//41
f 65//42 72//42 69//42
f 66//37 67//37 68//37
f 72//38 71//38 70//38
f 69//39 70//39 66//39
f 70//40 71//40 67//40
f 71//41 72//41 68//41
f 65//42 68//42 72//42
