# Blender v2.76 (sub 0) OBJ File: 'Fridge.blend'
# www.blender.org
mtllib Fridge.mtl
o doorfridge
v -0.312500 -0.312500 0.437500
v -0.312500 -0.312500 -0.437500
v -0.250000 -0.312500 0.375000
v -0.250000 -0.312500 -0.375000
v -0.250000 0.750000 -0.375000
v -0.250000 0.750000 0.375000
v -0.312500 0.750000 -0.437500
v -0.312500 0.750000 0.437500
v -0.373828 -0.312500 -0.062173
v -0.373828 -0.312500 0.062494
v -0.360758 -0.312500 0.187161
v -0.339645 -0.312500 0.312833
v -0.339645 0.750000 0.312833
v -0.360758 0.750000 0.187161
v -0.373828 0.750000 0.062494
v -0.373828 0.750000 -0.062173
v -0.360758 0.750000 -0.186840
v -0.339645 0.750000 -0.311507
v -0.312500 0.062500 0.437500
v -0.312500 0.062500 -0.437500
v -0.250000 0.062500 0.375000
v -0.250000 0.062500 -0.375000
v -0.312500 0.312500 0.437500
v -0.312500 0.312500 -0.437500
v -0.250000 0.312500 0.375000
v -0.250000 0.312500 -0.375000
v -0.312500 0.562500 0.437500
v -0.312500 0.562500 -0.437500
v -0.250000 0.562500 0.375000
v -0.250000 0.562500 -0.375000
v -0.250000 -0.250000 0.375000
v -0.250000 -0.250000 -0.375000
v -0.250000 0.125000 0.375000
v -0.250000 0.125000 -0.375000
v -0.250000 0.375000 0.375000
v -0.250000 0.375000 -0.375000
v -0.250000 0.625000 0.375000
v -0.250000 0.625000 -0.375000
v -0.335947 0.251307 0.357969
v -0.350160 0.303986 0.360476
v -0.350160 0.448634 0.360476
v -0.335947 0.501314 0.357969
v -0.330521 0.251307 0.388745
v -0.344734 0.303986 0.391251
v -0.348691 0.372844 0.391948
v -0.354117 0.372844 0.361173
v -0.344734 0.448634 0.391251
v -0.330520 0.501314 0.388745
v -0.360758 -0.312500 -0.186840
v -0.339645 -0.312500 -0.311507
v -0.312500 -0.308594 0.437500
v -0.312500 -0.308594 -0.437500
v -0.250000 -0.308594 0.375000
v -0.250000 -0.308594 -0.375000
vt 0.718750 0.972656
vt 0.765625 0.972656
vt 0.703125 0.976562
vt 0.750000 0.703125
vt 0.718750 0.699219
vt 0.765625 0.699219
vt 0.273438 0.328125
vt 0.367188 0.328125
vt 0.375000 0.312500
vt 0.697266 0.671875
vt 0.789062 0.671875
vt 0.796875 0.687500
vt 0.804688 0.968750
vt 0.796875 0.968750
vt 0.796875 0.703125
vt 0.687500 0.968750
vt 0.679688 0.968750
vt 0.679688 0.703125
vt 0.365234 0.390625
vt 0.275391 0.390625
vt 0.265625 0.406250
vt 0.367188 0.437500
vt 0.275391 0.437500
vt 0.265625 0.453125
vt 0.367188 0.484375
vt 0.275391 0.484375
vt 0.265625 0.500000
vt 0.367188 0.359375
vt 0.367188 0.375000
vt 0.273438 0.375000
vt 0.367188 0.406250
vt 0.367188 0.421875
vt 0.273438 0.421875
vt 0.367188 0.453125
vt 0.367188 0.468750
vt 0.273438 0.468750
vt 0.367188 0.500000
vt 0.367188 0.515625
vt 0.273438 0.515625
vt 0.804688 0.703125
vt 0.914062 0.703125
vt 0.265625 0.359375
vt 0.273438 0.343750
vt 0.367188 0.343750
vt 0.781250 0.976562
vt 0.796875 0.984375
vt 0.687500 0.984375
vt 0.734375 0.968750
vt 0.750000 0.968750
vt 0.687500 0.687500
vt 0.703125 0.695312
vt 0.781250 0.695312
vt 0.734375 0.703125
vt 0.265625 0.312500
vt 0.687500 0.703125
vt 0.375000 0.406250
vt 0.376953 0.453125
vt 0.375000 0.500000
vt 0.273438 0.359375
vt 0.273438 0.406250
vt 0.273438 0.453125
vt 0.273438 0.500000
vt 0.914062 0.968750
vt 0.375000 0.359375
vt 0.703125 0.703125
vt 0.781250 0.968750
vt 0.781250 0.703125
vt 0.718750 0.703125
vt 0.718750 0.968750
vt 0.765625 0.703125
vt 0.765625 0.968750
vt 0.703125 0.968750
vt 0.011719 0.968750
vt 0.011719 0.984375
vt 0.007812 0.984375
vt 0.007812 0.937500
vt 0.011719 0.937500
vt 0.011719 0.953125
vt 0.007812 0.968750
vt 0.011719 1.000000
vt 0.007812 0.953125
vt 0.007812 1.000000
vn 0.000000 1.000000 0.000000
vn 0.000000 -1.000000 0.000000
vn 0.707100 0.000000 0.707100
vn 0.707100 0.000000 -0.707100
vn 1.000000 0.000000 0.000000
vn -0.977600 0.000000 -0.210600
vn -0.977100 0.000000 0.212800
vn -0.986000 0.000000 -0.167000
vn -0.994500 0.000000 0.104300
vn -1.000000 0.000000 0.000000
vn -0.994500 0.000000 -0.104300
vn -0.986200 0.000000 0.165700
vn -0.983400 0.052900 0.173400
vn -0.949800 -0.264200 0.167500
vn -0.983100 -0.058300 0.173400
vn -0.949800 0.264200 0.167500
usemtl FRIDGE_LOWERDOOR
s off
f 17/1/1 14/2/1 18/3/1
f 10/4/2 49/5/2 11/6/2
f 5/7/2 6/8/2 8/9/2
f 4/10/2 3/11/2 1/12/2
f 1/13/3 3/14/3 6/15/3
f 7/16/4 5/17/4 4/18/4
f 22/19/2 21/20/2 19/21/2
f 26/22/2 25/23/2 23/24/2
f 30/25/2 29/26/2 27/27/2
f 4/28/5 32/29/5 31/30/5
f 22/31/5 34/32/5 33/33/5
f 26/34/5 36/35/5 35/36/5
f 30/37/5 38/38/5 37/39/5
f 2/13/5 7/40/5 8/41/5
f 51/42/1 53/43/1 54/44/1
f 13/45/1 8/46/1 18/3/1
f 7/47/1 18/3/1 8/46/1
f 17/1/1 16/48/1 15/49/1
f 15/49/1 14/2/1 17/1/1
f 13/45/1 18/3/1 14/2/1
f 2/50/2 1/12/2 50/51/2
f 12/52/2 11/6/2 50/51/2
f 10/4/2 9/53/2 49/5/2
f 49/5/2 50/51/2 11/6/2
f 1/12/2 12/52/2 50/51/2
f 7/54/2 5/7/2 8/9/2
f 2/50/2 4/10/2 1/12/2
f 8/40/3 1/13/3 6/15/3
f 2/55/4 7/16/4 4/18/4
f 20/56/2 22/19/2 19/21/2
f 24/57/2 26/22/2 23/24/2
f 28/58/2 30/25/2 27/27/2
f 3/59/5 4/28/5 31/30/5
f 21/60/5 22/31/5 33/33/5
f 25/61/5 26/34/5 35/36/5
f 29/62/5 30/37/5 37/39/5
f 1/63/5 2/13/5 8/41/5
f 52/64/1 51/42/1 54/44/1
usemtl FRIDGE_EXTW
f 7/16/6 2/55/6 50/65/6
f 8/14/7 13/66/7 12/67/7
f 50/65/8 49/68/8 17/69/8
f 10/4/9 11/70/9 14/71/9
f 9/53/10 10/4/10 15/49/10
f 49/68/11 9/53/11 16/48/11
f 11/70/12 12/67/12 13/66/12
f 18/72/6 7/16/6 50/65/6
f 1/15/7 8/14/7 12/67/7
f 18/72/8 50/65/8 17/69/8
f 15/49/9 10/4/9 14/71/9
f 16/48/10 9/53/10 15/49/10
f 17/69/11 49/68/11 16/48/11
f 14/71/12 11/70/12 13/66/12
usemtl FRIDGE_DP
f 45/73/13 47/74/13 41/75/13
f 39/76/14 43/77/14 44/78/14
f 44/78/15 45/73/15 46/79/15
f 41/75/16 47/74/16 48/80/16
f 46/79/13 45/73/13 41/75/13
f 40/81/14 39/76/14 44/78/14
f 40/81/15 44/78/15 46/79/15
f 42/82/16 41/75/16 48/80/16
o doorfreezer
v -0.335947 0.938807 0.357969
v -0.350160 0.991486 0.360476
v -0.350160 1.136134 0.360476
v -0.335947 1.188814 0.357969
v -0.330521 0.938807 0.388745
v -0.344734 0.991486 0.391251
v -0.348691 1.060344 0.391948
v -0.354117 1.060344 0.361173
v -0.344734 1.136134 0.391251
v -0.330520 1.188814 0.388745
v -0.312500 0.812500 0.437500
v -0.312500 0.812500 -0.437500
v -0.250000 0.812500 0.375000
v -0.250000 0.812500 -0.375000
v -0.250000 1.312500 -0.375000
v -0.250000 1.312500 0.375000
v -0.312500 1.312500 -0.437500
v -0.312500 1.312500 0.437500
v -0.373828 1.312500 0.062494
v -0.373828 1.312500 -0.062173
v -0.360758 1.312500 -0.186840
v -0.339645 1.312500 -0.311507
v -0.339645 0.812500 -0.311507
v -0.360758 0.812500 -0.186840
v -0.373828 0.812500 -0.062173
v -0.373828 0.812500 0.062494
v -0.360758 0.812500 0.187161
v -0.339645 0.812500 0.312833
v -0.360758 1.312500 0.187161
v -0.339645 1.312500 0.312833
vt 0.796875 0.640625
vt 0.789062 0.656250
vt 0.695312 0.656250
vt 0.703125 0.492188
vt 0.796875 0.484375
vt 0.781250 0.492188
vt 0.695312 0.468750
vt 0.789062 0.468750
vt 0.796875 0.500000
vt 0.804688 0.500000
vt 0.804688 0.625000
vt 0.687500 0.625000
vt 0.679688 0.625000
vt 0.679688 0.500000
vt 0.734375 0.625000
vt 0.765625 0.628906
vt 0.718750 0.628906
vt 0.687500 0.640625
vt 0.765625 0.496094
vt 0.750000 0.500000
vt 0.734375 0.500000
vt 0.718750 0.496094
vt 0.687500 0.484375
vt 0.796875 0.625000
vt 0.687500 0.500000
vt 0.703125 0.632812
vt 0.750000 0.625000
vt 0.781250 0.632812
vt 0.781250 0.500000
vt 0.718750 0.500000
vt 0.718750 0.625000
vt 0.703125 0.625000
vt 0.765625 0.500000
vt 0.765625 0.625000
vt 0.781250 0.625000
vt 0.703125 0.500000
vt 0.898438 0.500000
vt 0.898438 0.625000
vt 0.000000 0.968750
vt 0.003906 0.968750
vt 0.003906 0.984375
vt 0.000000 0.953125
vt 0.000000 0.937500
vt 0.003906 0.937500
vt 0.003906 0.953125
vt 0.000000 0.984375
vt 0.003906 1.000000
vt 0.000000 1.000000
vn 0.000000 1.000000 0.000000
vn 0.000000 -1.000000 0.000000
vn 0.707100 0.000000 0.707100
vn 0.707100 0.000000 -0.707100
vn -0.977100 0.000000 0.212800
vn -0.986000 0.000000 -0.167000
vn -0.977600 0.000000 -0.210600
vn -0.994500 0.000000 -0.104300
vn -1.000000 0.000000 0.000000
vn -0.994500 0.000000 0.104300
vn -0.986200 0.000000 0.165700
vn 1.000000 0.000000 0.000000
vn -0.983400 0.052900 0.173400
vn -0.949800 -0.264200 0.167500
vn -0.983100 -0.058300 0.173400
vn -0.949800 0.264200 0.167500
usemtl FRIDGE_UPPERDOOR
s off
f 72/83/17 70/84/17 69/85/17
f 77/86/18 65/87/18 82/88/18
f 68/89/18 67/90/18 65/87/18
f 65/91/19 67/92/19 70/93/19
f 71/94/20 69/95/20 68/96/20
f 74/97/17 83/98/17 75/99/17
f 71/100/17 72/83/17 69/85/17
f 82/88/18 81/101/18 77/86/18
f 80/102/18 79/103/18 78/104/18
f 78/104/18 77/86/18 81/101/18
f 66/105/18 65/87/18 77/86/18
f 81/101/18 80/102/18 78/104/18
f 66/105/18 68/89/18 65/87/18
f 72/106/19 65/91/19 70/93/19
f 66/107/20 71/94/20 68/96/20
f 72/83/17 71/100/17 76/108/17
f 76/108/17 75/99/17 83/98/17
f 74/97/17 73/109/17 83/98/17
f 83/98/17 84/110/17 76/108/17
f 72/83/17 76/108/17 84/110/17
usemtl FRIDGE_EXTW
f 82/111/21 65/91/21 72/106/21
f 78/112/22 75/113/22 76/114/22
f 76/114/23 71/94/23 66/107/23
f 79/103/24 74/97/24 75/113/24
f 80/102/25 73/109/25 74/97/25
f 81/115/26 83/116/26 73/109/26
f 82/111/27 84/117/27 83/116/27
f 84/117/21 82/111/21 72/106/21
f 77/118/22 78/112/22 76/114/22
f 77/118/23 76/114/23 66/107/23
f 78/112/24 79/103/24 75/113/24
f 79/103/25 80/102/25 74/97/25
f 80/102/26 81/115/26 73/109/26
f 81/115/27 82/111/27 83/116/27
usemtl FRIDGE_INNERDOORFREEZER
f 67/92/28 68/119/28 69/120/28
f 70/93/28 67/92/28 69/120/28
usemtl FRIDGE_DP
f 62/121/29 61/122/29 63/123/29
f 56/124/30 55/125/30 59/126/30
f 60/127/31 61/122/31 62/121/31
f 57/128/32 63/123/32 64/129/32
f 57/128/29 62/121/29 63/123/29
f 60/127/30 56/124/30 59/126/30
f 56/124/31 60/127/31 62/121/31
f 58/130/32 57/128/32 64/129/32
o core
v -0.312500 -0.500000 0.437500
v -0.312500 -0.500000 -0.437500
v 0.437500 -0.500000 0.437500
v 0.437500 -0.500000 -0.437500
v -0.312500 -0.312500 0.437500
v -0.312500 -0.312500 -0.437500
v 0.375000 -0.312500 0.437500
v 0.375000 -0.312500 -0.437500
v 0.437500 1.375000 0.437500
v 0.437500 1.375000 -0.437500
v -0.250000 -0.312500 0.375000
v 0.375000 -0.312500 0.375000
v 0.375000 -0.312500 -0.375000
v -0.250000 -0.312500 -0.375000
v -0.312500 1.312500 0.437500
v -0.312500 1.312500 -0.437500
v 0.375000 1.312500 0.437500
v 0.375000 1.312500 -0.437500
v -0.250000 1.312500 0.375000
v 0.375000 1.312500 0.375000
v 0.375000 1.312500 -0.375000
v -0.250000 1.312500 -0.375000
v -0.312500 1.375000 0.437500
v -0.312500 1.375000 -0.437500
v -0.250000 0.750000 -0.375000
v -0.250000 0.750000 0.375000
v -0.312500 0.750000 -0.437500
v -0.312500 0.750000 0.437500
v 0.375000 0.750000 -0.375000
v 0.375000 0.750000 0.375000
v -0.250000 0.812500 -0.375000
v -0.250000 0.812500 0.375000
v -0.312500 0.812500 -0.437500
v -0.312500 0.812500 0.437500
v 0.375000 0.812500 -0.375000
v 0.375000 0.812500 0.375000
v -0.339645 1.312500 0.312833
v -0.360758 1.312500 0.187161
v -0.373828 1.312500 0.062494
v -0.373828 1.312500 -0.062173
v -0.360758 1.312500 -0.186840
v -0.339645 1.312500 -0.311507
v -0.312500 -0.375000 0.437500
v -0.312500 -0.375000 -0.437500
v -0.187500 0.503906 0.375000
v -0.125000 0.503906 0.375000
v -0.125000 0.503906 -0.375000
v -0.187500 0.503906 -0.375000
v -0.187500 0.253906 0.375000
v -0.125000 0.253906 0.375000
v -0.125000 0.253906 -0.375000
v -0.187500 0.253906 -0.375000
v -0.187500 0.000000 0.375000
v 0.375000 0.000000 0.375000
v 0.375000 0.000000 -0.375000
v -0.187500 0.000000 -0.375000
v -0.187500 -0.312500 0.375000
v -0.187500 -0.312500 -0.375000
v -0.187500 1.066406 0.375000
v 0.375000 1.066406 0.375000
v 0.375000 1.066406 -0.375000
v -0.187500 1.066406 -0.375000
v -0.187500 1.058594 -0.375000
v 0.375000 1.058594 -0.375000
v 0.375000 1.058594 0.375000
v -0.187500 1.058594 0.375000
v -0.187500 0.496094 -0.375000
v -0.125000 0.496094 -0.375000
v -0.125000 0.496094 0.375000
v -0.187500 0.496094 0.375000
v -0.187500 0.246094 -0.375000
v -0.125000 0.246094 -0.375000
v -0.125000 0.246094 0.375000
v -0.187500 0.246094 0.375000
v 0.375000 0.750000 -0.437500
v 0.375000 0.750000 0.437500
v 0.375000 0.812500 -0.437500
v 0.375000 0.812500 0.437500
v -0.339645 1.375000 0.312833
v -0.360758 1.375000 0.187161
v -0.373828 1.375000 0.062494
v -0.373828 1.375000 -0.062173
v -0.360758 1.375000 -0.186840
v -0.339645 1.375000 -0.311507
v -0.339645 0.750000 0.312833
v -0.360758 0.750000 0.187161
v -0.373828 0.750000 0.062494
v -0.373828 0.750000 -0.062173
v -0.360758 0.750000 -0.186840
v -0.339645 0.750000 -0.311507
v -0.339645 0.812500 0.312833
v -0.360758 0.812500 0.187161
v -0.373828 0.812500 0.062494
v -0.373828 0.812500 -0.062173
v -0.360758 0.812500 -0.186840
v -0.339645 0.812500 -0.311507
v -0.339645 -0.375000 0.312833
v -0.360758 -0.375000 0.187161
v -0.373828 -0.375000 0.062494
v -0.373828 -0.375000 -0.062173
v -0.360758 -0.375000 -0.186840
v -0.339645 -0.375000 -0.311507
v -0.339645 -0.312500 0.312833
v -0.360758 -0.312500 0.187161
v -0.373828 -0.312500 0.062494
v -0.373828 -0.312500 -0.062173
v -0.360758 -0.312500 -0.186840
v -0.339645 -0.312500 -0.311507
v -0.187500 0.003906 0.375000
v -0.125000 0.003906 0.375000
v -0.125000 0.003906 -0.375000
v -0.187500 0.003906 -0.375000
v -0.187500 1.050781 0.375000
v -0.187500 1.075000 0.375000
v -0.187500 1.075000 -0.375000
v -0.187500 1.050781 -0.375000
vt 0.578125 0.328125
vt 0.468750 0.328125
vt 0.468750 0.136719
vt 0.078125 0.812500
vt 0.187500 0.812500
vt 0.187500 0.984375
vt 0.578125 0.796875
vt 0.468750 0.796875
vt 0.007812 0.406250
vt 0.007812 0.812500
vt 0.000000 0.812500
vt 0.265625 0.406250
vt 0.265625 0.812500
vt 0.257812 0.812500
vt 0.257812 0.406250
vt 0.179688 0.812500
vt 0.085938 0.406250
vt 0.085938 0.812500
vt 0.375000 0.984375
vt 0.265625 0.984375
vt 0.265625 0.640625
vt 0.375000 0.640625
vt 0.000000 0.000000
vt 0.078125 0.406250
vt 0.078125 0.234375
vt 0.187500 0.234375
vt 0.046875 0.203125
vt 0.007812 0.203125
vt 0.007812 0.015625
vt 0.046875 0.015625
vt 0.117188 0.015625
vt 0.117188 0.203125
vt 0.460938 1.000000
vt 0.390625 1.000000
vt 0.390625 0.812500
vt 0.585938 0.812500
vt 0.656250 0.812500
vt 0.656250 1.000000
vt 0.179688 0.406250
vt 0.109375 0.222656
vt 0.125000 0.218750
vt 0.156250 0.222656
vt 0.312500 0.625000
vt 0.343750 0.628906
vt 0.296875 0.628906
vt 0.343750 0.996094
vt 0.328125 1.000000
vt 0.296875 0.996094
vt 0.140625 1.000000
vt 0.109375 0.996094
vt 0.156250 0.996094
vt 0.578125 0.136719
vt 0.078125 0.984375
vt 0.000000 0.406250
vt 0.375000 0.812500
vt 0.187500 0.406250
vt 0.460938 0.812500
vt 0.585938 1.000000
vt 0.171875 0.226562
vt 0.093750 0.226562
vt 0.140625 0.218750
vt 0.281250 0.632812
vt 0.328125 0.625000
vt 0.359375 0.632812
vt 0.281250 0.992188
vt 0.359375 0.992188
vt 0.312500 1.000000
vt 0.093750 0.992188
vt 0.171875 0.992188
vt 0.125000 1.000000
vt 0.546875 0.996094
vt 0.531250 1.000000
vt 0.500000 0.996094
vt 0.468750 0.140625
vt 0.468750 0.109375
vt 0.578125 0.109375
vt 0.671875 0.796875
vt 0.578125 0.984375
vt 0.468750 0.984375
vt 0.375000 0.796875
vt 0.375000 0.328125
vt 0.296875 0.593750
vt 0.296875 0.609375
vt 0.281250 0.609375
vt 0.359375 0.593750
vt 0.359375 0.609375
vt 0.343750 0.609375
vt 0.312500 0.593750
vt 0.312500 0.609375
vt 0.328125 0.593750
vt 0.328125 0.609375
vt 0.343750 0.593750
vt 0.296875 0.562500
vt 0.296875 0.578125
vt 0.281250 0.578125
vt 0.359375 0.562500
vt 0.359375 0.578125
vt 0.343750 0.578125
vt 0.312500 0.562500
vt 0.312500 0.578125
vt 0.328125 0.562500
vt 0.328125 0.578125
vt 0.343750 0.562500
vt 0.296875 0.531250
vt 0.296875 0.546875
vt 0.281250 0.546875
vt 0.359375 0.531250
vt 0.359375 0.546875
vt 0.343750 0.546875
vt 0.312500 0.531250
vt 0.312500 0.546875
vt 0.328125 0.531250
vt 0.328125 0.546875
vt 0.343750 0.531250
vt 0.375000 0.531250
vt 0.281250 0.531250
vt 0.265625 0.546875
vt 0.375000 0.562500
vt 0.375000 0.578125
vt 0.265625 0.578125
vt 0.265625 0.562500
vt 0.281250 0.562500
vt 0.281250 0.593750
vt 0.265625 0.609375
vt 0.375000 0.593750
vt 0.500000 0.097656
vt 0.546875 0.097656
vt 0.562500 0.101562
vt 0.484375 0.992188
vt 0.562500 0.992188
vt 0.515625 1.000000
vt 0.578125 0.140625
vt 0.671875 0.328125
vt 0.375000 0.546875
vt 0.265625 0.531250
vt 0.265625 0.593750
vt 0.375000 0.609375
vt 0.484375 0.101562
vt 0.515625 0.093750
vt 0.531250 0.093750
vt 0.203125 0.203125
vt 0.195312 0.203125
vt 0.195312 0.390625
vt 0.226562 0.203125
vt 0.218750 0.203125
vt 0.218750 0.390625
vt 0.203125 0.390625
vt 0.210938 0.203125
vt 0.226562 0.390625
vt 0.234375 0.203125
vt 0.210938 0.390625
vt 0.234375 0.390625
vn 0.000000 -1.000000 0.000000
vn 1.000000 0.000000 0.000000
vn -0.707100 0.000000 0.707100
vn -0.707100 0.000000 -0.707100
vn 0.000000 0.000000 -1.000000
vn 0.000000 0.000000 1.000000
vn 0.000000 1.000000 0.000000
vn -1.000000 0.000000 0.000000
vn -0.986000 0.000000 -0.167000
vn -0.986200 0.000000 0.165700
vn -0.994500 0.000000 -0.104300
vn -0.994500 0.000000 0.104300
vn -0.977100 0.000000 0.212800
vn -0.977600 0.000000 -0.210600
usemtl FRIDGE_CORE
s off
f 88/131/33 87/132/33 85/133/33
f 102/134/33 101/135/33 99/136/33
f 94/137/34 93/138/34 87/132/34
f 98/139/35 106/140/35 100/141/35
f 89/142/36 99/143/36 103/144/36
f 95/145/37 103/144/37 104/146/37
f 97/147/38 105/148/38 106/140/38
f 112/149/33 111/150/33 159/143/33
f 161/143/39 117/151/39 118/152/39
f 109/153/35 115/153/35 117/153/35
f 110/153/37 116/153/37 120/153/37
f 113/153/38 119/153/38 115/153/38
f 112/153/36 118/153/36 116/153/36
f 114/153/40 120/153/40 119/153/40
f 92/154/39 90/155/39 89/156/39
f 137/157/39 138/158/39 139/159/39
f 140/160/40 142/161/40 141/162/40
f 143/163/39 144/164/39 145/165/39
f 147/166/33 148/167/33 149/168/33
f 105/148/40 97/147/40 96/169/40
f 191/170/39 190/171/39 188/172/39
f 178/173/39 176/174/39 179/175/39
f 170/176/33 171/177/33 173/178/33
f 123/179/33 125/180/33 122/181/33
f 86/182/33 88/131/33 85/133/33
f 100/183/33 102/134/33 99/136/33
f 88/131/34 94/137/34 87/132/34
f 90/184/35 98/139/35 100/141/35
f 95/145/36 89/142/36 103/144/36
f 96/169/37 95/145/37 104/146/37
f 98/139/38 97/147/38 106/140/38
f 160/185/33 112/149/33 159/143/33
f 162/185/39 161/143/39 118/152/39
f 111/153/35 109/153/35 117/153/35
f 114/153/37 110/153/37 120/153/37
f 109/153/38 113/153/38 115/153/38
f 110/153/36 112/153/36 116/153/36
f 113/153/40 114/153/40 119/153/40
f 91/186/39 92/154/39 89/156/39
f 140/160/39 137/157/39 139/159/39
f 137/157/40 140/160/40 141/162/40
f 146/187/39 143/163/39 145/165/39
f 150/188/33 147/166/33 149/168/33
f 104/146/40 105/148/40 96/169/40
f 188/172/39 187/189/39 192/190/39
f 89/156/39 90/155/39 192/190/39
f 192/190/39 191/170/39 188/172/39
f 190/171/39 189/191/39 188/172/39
f 187/189/39 89/156/39 192/190/39
f 118/152/39 117/151/39 180/192/39
f 180/192/39 179/175/39 176/174/39
f 178/173/39 177/193/39 176/174/39
f 176/174/39 175/194/39 180/192/39
f 118/152/39 180/192/39 175/194/39
f 173/178/33 174/195/33 170/176/33
f 111/150/33 112/149/33 174/195/33
f 169/196/33 170/176/33 174/195/33
f 171/177/33 172/197/33 173/178/33
f 174/195/33 112/149/33 169/196/33
f 100/183/33 99/136/33 126/198/33
f 121/199/33 122/181/33 126/198/33
f 123/179/33 124/200/33 125/180/33
f 125/180/33 126/198/33 122/181/33
f 99/136/33 121/199/33 126/198/33
usemtl FRIDGE_EXTW
f 167/201/39 166/202/39 164/203/39
f 85/204/40 89/205/40 90/206/40
f 108/207/37 94/137/37 88/131/37
f 94/137/39 108/208/39 107/209/39
f 93/138/38 107/210/38 85/211/38
f 125/212/41 167/213/41 168/214/41
f 121/215/42 163/216/42 164/217/42
f 124/218/43 166/219/43 167/213/43
f 123/220/40 165/221/40 166/219/40
f 122/222/44 164/217/44 165/221/44
f 173/223/41 179/224/41 180/225/41
f 169/226/42 175/227/42 176/228/42
f 172/229/43 178/230/43 179/224/43
f 171/231/40 177/232/40 178/230/40
f 170/233/44 176/228/44 177/232/44
f 185/234/41 191/235/41 192/236/41
f 181/237/42 187/238/42 188/239/42
f 184/240/43 190/241/43 191/235/43
f 183/242/40 189/243/40 190/241/40
f 182/244/44 188/239/44 189/243/44
f 187/238/45 181/237/45 127/245/45
f 186/246/46 192/236/46 90/247/46
f 169/226/45 112/248/45 118/249/45
f 117/250/46 111/251/46 174/252/46
f 126/253/46 168/214/46 108/254/46
f 163/216/45 121/215/45 99/255/45
f 182/256/33 185/257/33 186/258/33
f 164/203/39 163/259/39 168/260/39
f 107/209/39 108/208/39 168/260/39
f 168/260/39 167/201/39 164/203/39
f 166/202/39 165/261/39 164/203/39
f 163/259/39 107/209/39 168/260/39
f 86/262/40 85/204/40 90/206/40
f 86/263/37 108/207/37 88/131/37
f 93/138/39 94/137/39 107/209/39
f 87/132/38 93/138/38 85/211/38
f 126/253/41 125/212/41 168/214/41
f 122/222/42 121/215/42 164/217/42
f 125/212/43 124/218/43 167/213/43
f 124/218/40 123/220/40 166/219/40
f 123/220/44 122/222/44 165/221/44
f 174/252/41 173/223/41 180/225/41
f 170/233/42 169/226/42 176/228/42
f 173/223/43 172/229/43 179/224/43
f 172/229/40 171/231/40 178/230/40
f 171/231/44 170/233/44 177/232/44
f 186/246/41 185/234/41 192/236/41
f 182/244/42 181/237/42 188/239/42
f 185/234/43 184/240/43 191/235/43
f 184/240/40 183/242/40 190/241/40
f 183/242/44 182/244/44 189/243/44
f 89/264/45 187/238/45 127/245/45
f 128/265/46 186/246/46 90/247/46
f 175/227/45 169/226/45 118/249/45
f 180/225/46 117/250/46 174/252/46
f 100/266/46 126/253/46 108/254/46
f 107/267/45 163/216/45 99/255/45
f 186/258/33 128/206/33 127/205/33
f 127/205/33 181/268/33 186/258/33
f 182/256/33 183/269/33 184/270/33
f 184/270/33 185/257/33 182/256/33
f 186/258/33 181/268/33 182/256/33
usemtl FRIDGE_BLACKP
f 129/271/39 130/272/39 131/273/39
f 133/274/39 134/275/39 135/276/39
f 154/277/33 151/271/33 152/278/33
f 158/279/33 155/274/33 156/280/33
f 193/274/39 194/275/39 195/276/39
f 197/274/40 198/275/40 199/276/40
f 132/277/39 129/271/39 131/273/39
f 136/279/39 133/274/39 135/276/39
f 153/281/33 154/277/33 152/278/33
f 157/282/33 158/279/33 156/280/33
f 196/279/39 193/274/39 195/276/39
f 200/279/40 197/274/40 199/276/40
l 95 98
o Minecraft_2_Edge_Connectivity_Cube.002
v 0.500000 0.000000 0.500000
v -0.500000 0.000000 0.500000
v -0.500000 0.000000 -0.500000
v 0.500000 0.000000 -0.500000
v -0.000000 0.500000 0.500000
v 0.000000 0.500000 -0.500000
vn 0.000000 -1.000000 0.000000
vn -0.707100 0.707100 -0.000000
vn 0.000000 0.000000 1.000000
vn 0.000000 -0.000000 -1.000000
vn 0.707100 0.707100 0.000000
usemtl FRIDGE_EXT
s off
f 202//47 203//47 204//47
f 205//48 206//48 203//48
f 201//49 205//49 202//49
f 203//50 206//50 204//50
f 201//51 204//51 206//51
f 201//47 202//47 204//47
f 202//48 205//48 203//48
f 205//51 201//51 206//51
o Minecraft_4_Edge_Connectivity_Cube.001
v 0.500000 0.000000 0.500000
v -0.500000 0.000000 0.500000
v -0.500000 0.000000 -0.500000
v 0.500000 0.000000 -0.500000
v -0.000000 0.500000 -0.000000
vn 0.000000 -1.000000 0.000000
vn 0.000000 0.707100 0.707100
vn -0.707100 0.707100 -0.000000
vn 0.000000 0.707100 -0.707100
vn 0.707100 0.707100 0.000000
usemtl FRIDGE_EXT
s off
f 208//52 209//52 210//52
f 207//53 211//53 208//53
f 208//54 211//54 209//54
f 209//55 211//55 210//55
f 211//56 207//56 210//56
f 207//52 208//52 210//52
o Minecraft_Block_Cube
v 0.500000 0.000000 0.500000
v -0.500000 0.000000 0.500000
v -0.500000 0.000000 -0.500000
v 0.500000 0.000000 -0.500000
v 0.500000 1.000000 0.500000
v -0.500000 1.000000 0.500000
v -0.500000 1.000000 -0.500000
v 0.500000 1.000000 -0.500000
v -0.500000 2.000000 0.500000
v -0.500000 2.000000 -0.500000
vn 0.000000 -1.000000 0.000000
vn 0.000000 1.000000 0.000000
vn -0.000000 0.000000 1.000000
vn -1.000000 -0.000000 -0.000000
vn 0.000000 -0.000000 -1.000000
vn 1.000000 0.000000 0.000000
usemtl FRIDGE_EXT
s off
f 213//57 214//57 215//57
f 219//58 218//58 217//58
f 216//59 217//59 213//59
f 217//60 218//60 214//60
f 214//61 218//61 219//61
f 212//62 215//62 219//62
f 217//60 220//60 221//60
f 212//57 213//57 215//57
f 216//58 219//58 217//58
f 212//59 216//59 213//59
f 213//60 217//60 214//60
f 215//61 214//61 219//61
f 216//62 212//62 219//62
f 218//60 217//60 221//60
