# Blender v2.78 (sub 0) OBJ File: 'DigitalDisplay.blend'
# www.blender.org
mtllib DigitalDisplay.mtl
o dot4
v 0.059675 -0.112884 0.300723
v 0.059675 -0.130330 0.300723
v 0.059675 -0.112884 0.283277
v 0.059675 -0.130330 0.283277
vn 1.0000 -0.0000 0.0000
usemtl None
s off
f 2//1 3//1 1//1
f 2//1 4//1 3//1
o dot3
v 0.059675 -0.112884 0.153723
v 0.059675 -0.130330 0.153723
v 0.059675 -0.112884 0.136277
v 0.059675 -0.130330 0.136277
vn 1.0000 -0.0000 0.0000
usemtl None
s off
f 6//2 7//2 5//2
f 6//2 8//2 7//2
o dot0
v 0.059675 -0.112884 -0.283277
v 0.059675 -0.130330 -0.283277
v 0.059675 -0.112884 -0.300723
v 0.059675 -0.130330 -0.300723
vn 1.0000 -0.0000 0.0000
usemtl None
s off
f 10//3 11//3 9//3
f 10//3 12//3 11//3
o dot1
v 0.059675 -0.112884 -0.136277
v 0.059675 -0.130330 -0.136277
v 0.059675 -0.112884 -0.153723
v 0.059675 -0.130330 -0.153723
vn 1.0000 -0.0000 0.0000
usemtl None
s off
f 14//4 15//4 13//4
f 14//4 16//4 15//4
o dot2
v 0.059675 -0.112884 0.008723
v 0.059675 -0.130330 0.008723
v 0.059675 -0.112884 -0.008723
v 0.059675 -0.130330 -0.008723
vn 1.0000 -0.0000 0.0000
usemtl None
s off
f 18//5 19//5 17//5
f 18//5 20//5 19//5
o colon3
v 0.059675 0.047116 0.153723
v 0.059675 0.029670 0.153723
v 0.059675 0.047116 0.136277
v 0.059675 0.029670 0.136277
v 0.059675 -0.072884 0.153723
v 0.059675 -0.090330 0.153723
v 0.059675 -0.072884 0.136277
v 0.059675 -0.090330 0.136277
vn 1.0000 0.0000 0.0000
usemtl None
s off
f 22//6 23//6 21//6
f 26//6 27//6 25//6
f 22//6 24//6 23//6
f 26//6 28//6 27//6
o colon1
v 0.059675 0.047116 -0.136277
v 0.059675 0.029670 -0.136277
v 0.059675 0.047116 -0.153723
v 0.059675 0.029670 -0.153723
v 0.059675 -0.072884 -0.136277
v 0.059675 -0.090330 -0.136277
v 0.059675 -0.072884 -0.153723
v 0.059675 -0.090330 -0.153723
vn 1.0000 0.0000 0.0000
usemtl None
s off
f 30//7 31//7 29//7
f 34//7 35//7 33//7
f 30//7 32//7 31//7
f 34//7 36//7 35//7
o colon2
v 0.059675 0.047116 0.008723
v 0.059675 0.029670 0.008723
v 0.059675 0.047116 -0.008723
v 0.059675 0.029670 -0.008723
v 0.059675 -0.072884 0.008723
v 0.059675 -0.090330 0.008723
v 0.059675 -0.072884 -0.008723
v 0.059675 -0.090330 -0.008723
vn 1.0000 0.0000 0.0000
usemtl None
s off
f 38//8 39//8 37//8
f 42//8 43//8 41//8
f 38//8 40//8 39//8
f 42//8 44//8 43//8
o base
v -0.000325 0.165893 0.375000
v -0.000325 0.165893 -0.375000
v -0.000325 -0.209107 -0.375000
v 0.062175 -0.209107 -0.375000
v 0.062175 0.165893 -0.375000
v 0.062175 0.165893 -0.312500
v -0.000325 -0.209107 0.375000
v 0.062175 -0.209107 0.375000
v 0.062175 0.165893 0.375000
v 0.062175 0.103393 0.312500
v 0.062175 -0.146607 0.312500
v 0.030925 -0.146607 0.312500
v 0.030925 -0.146607 -0.312500
v 0.062175 -0.146607 -0.312500
v 0.062175 0.103393 -0.312500
v 0.030925 0.103393 0.312500
v 0.030925 0.103393 -0.312500
v 0.062175 -0.209107 0.312500
v 0.062175 0.165893 0.312500
v 0.062175 -0.209107 -0.312500
vt 0.6250 0.3750
vt 1.0000 0.3750
vt 1.0000 0.0000
vt 0.4375 0.5625
vt 0.4375 0.9375
vt 0.4062 0.9375
vt 0.0312 0.5625
vt 0.0625 0.5625
vt 0.0625 0.9375
vt 0.4375 0.5000
vt 0.0625 1.0000
vt 0.4688 0.9375
vt 0.5625 0.8750
vt 0.5625 0.6250
vt 0.5938 0.6250
vt 0.9062 0.6250
vt 0.9375 0.6250
vt 0.9375 0.8750
vt 0.5938 0.8750
vt 0.9062 0.8750
vt 0.9062 0.9375
vt 0.5938 0.5625
vt 0.9062 0.5625
vt 0.0938 0.5625
vt 0.0938 0.9375
vt 0.4062 0.8750
vt 0.4062 0.5625
vt 0.4062 0.6250
vt 0.6250 0.0000
vt 0.0312 0.9375
vt 0.0625 0.5000
vt 0.4375 1.0000
vt 0.4688 0.5625
vt 0.5938 0.9375
vt 0.0938 0.8750
vt 0.0938 0.6250
vn -1.0000 0.0000 0.0000
vn 1.0000 -0.0000 0.0000
vn 0.0000 0.0000 1.0000
vn 0.0000 -1.0000 -0.0000
vn 0.0000 1.0000 0.0000
vn 0.0000 0.0000 -1.0000
usemtl None_DigitalWallClock.png
s off
f 45/1/9 46/2/9 47/3/9
f 48/4/10 49/5/10 50/6/10
f 51/7/11 52/8/11 53/9/11
f 47/10/12 48/4/12 52/8/12
f 45/11/13 53/9/13 49/5/13
f 46/12/14 49/5/14 48/4/14
f 54/13/14 55/14/14 56/15/14
f 57/16/11 58/17/11 59/18/11
f 60/19/12 61/20/12 59/21/12
f 56/15/10 57/16/10 61/20/10
f 55/22/13 58/23/13 57/16/13
f 62/24/10 63/25/10 53/9/10
f 59/26/10 50/6/10 63/25/10
f 62/24/10 64/27/10 58/28/10
f 51/29/9 45/1/9 47/3/9
f 64/27/10 48/4/10 50/6/10
f 45/30/11 51/7/11 53/9/11
f 51/31/12 47/10/12 52/8/12
f 46/32/13 45/11/13 49/5/13
f 47/33/14 46/12/14 48/4/14
f 60/19/14 54/13/14 56/15/14
f 61/20/11 57/16/11 59/18/11
f 54/34/12 60/19/12 59/21/12
f 60/19/10 56/15/10 61/20/10
f 56/15/13 55/22/13 57/16/13
f 52/8/10 62/24/10 53/9/10
f 54/35/10 59/26/10 63/25/10
f 55/36/10 62/24/10 58/28/10
o digit3
v 0.059675 -0.146607 0.156250
v 0.059675 0.103393 0.156250
v 0.059675 0.103393 0.281250
v 0.059675 -0.146607 0.281250
vt 0.0625 0.0000
vt 0.0625 1.0000
vt 0.0000 1.0000
vt 0.0000 0.0000
vn 1.0000 -0.0000 -0.0000
usemtl None_Digits.png
s off
f 65/37/15 66/38/15 67/39/15
f 68/40/15 65/37/15 67/39/15
o digit2
v 0.059675 -0.146607 0.010417
v 0.059675 0.103393 0.010417
v 0.059675 0.103393 0.135417
v 0.059675 -0.146607 0.135417
vt 0.0625 0.0000
vt 0.0625 1.0000
vt 0.0000 1.0000
vt 0.0000 0.0000
vn 1.0000 -0.0000 -0.0000
usemtl None_Digits.png
s off
f 69/41/16 70/42/16 71/43/16
f 72/44/16 69/41/16 71/43/16
o digit1
v 0.059675 -0.146607 -0.135417
v 0.059675 0.103393 -0.135417
v 0.059675 0.103393 -0.010417
v 0.059675 -0.146607 -0.010417
vt 0.0625 0.0000
vt 0.0625 1.0000
vt 0.0000 1.0000
vt 0.0000 0.0000
vn 1.0000 -0.0000 -0.0000
usemtl None_Digits.png
s off
f 73/45/17 74/46/17 75/47/17
f 76/48/17 73/45/17 75/47/17
o digit0
v 0.059675 -0.146607 -0.281250
v 0.059675 0.103393 -0.281250
v 0.059675 0.103393 -0.156250
v 0.059675 -0.146607 -0.156250
vt 0.0625 0.0000
vt 0.0625 1.0000
vt 0.0000 1.0000
vt 0.0000 0.0000
vn 1.0000 -0.0000 -0.0000
usemtl None_Digits.png
s off
f 77/49/18 78/50/18 79/51/18
f 80/52/18 77/49/18 79/51/18
o glass
v 0.062175 -0.146607 -0.312500
v 0.062175 0.103393 -0.312500
v 0.062175 0.103393 0.312500
v 0.062175 -0.146607 0.312500
vt 0.6562 0.4375
vt 0.6562 0.5625
vt 0.3438 0.5625
vt 0.3438 0.4375
vn 1.0000 -0.0000 -0.0000
usemtl None_Reflection.png
s off
f 81/53/19 82/54/19 83/55/19
f 84/56/19 81/53/19 83/55/19
