# Blender v2.76 (sub 0) OBJ File: 'ModernStreetLight.blend'
# www.blender.org
mtllib ModernStreetLight.mtl
o socket
v 3.682397 0.066256 -0.246921
v 3.814909 0.066256 -0.246921
v 3.682397 -0.066256 -0.246921
v 3.814909 -0.066256 -0.246921
v 3.682397 0.066256 -0.043551
v 3.814909 0.066256 -0.043551
v 3.682397 -0.066256 -0.043551
v 3.814909 -0.066256 -0.043551
v 3.814909 -0.066256 0.718987
v 3.682397 -0.066256 0.718987
v 3.682397 0.066256 0.718987
v 3.814909 0.066256 0.718987
v 3.814909 -0.156887 0.808278
v 3.682397 -0.156887 0.808278
v 3.682397 0.156888 0.808278
v 3.814909 0.156888 0.808278
v 3.814909 -0.156887 1.295568
v 3.682397 -0.156887 1.295568
v 3.682397 0.156888 1.295568
v 3.814909 0.156888 1.295568
v 3.682397 0.106739 0.886158
v 3.682397 -0.106739 0.886158
v 3.682397 0.106739 1.217688
v 3.682397 -0.106739 1.217688
v 3.723694 0.106739 0.886158
v 3.723694 -0.106739 0.886158
v 3.723694 0.106739 1.217688
v 3.723694 -0.106739 1.217688
v -0.000000 0.480000 -0.480000
v 0.163200 0.480000 -0.480000
v -0.000000 -0.480000 -0.480000
v 0.163200 -0.480000 -0.480000
v -0.000000 0.480000 0.480000
v 0.163200 0.480000 0.480000
v -0.000000 -0.480000 0.480000
v 0.163200 -0.480000 0.480000
v 0.163200 0.480000 -0.480000
v 0.163200 -0.480000 -0.480000
v 0.163200 -0.480000 0.480000
v 0.163200 0.480000 0.480000
v 0.291381 0.136948 -0.136948
v 0.291381 -0.136948 -0.136948
v 0.291381 -0.136948 0.136948
v 0.291381 0.136948 0.136948
v 3.568883 0.136948 -0.136948
v 3.568883 -0.136948 -0.136948
v 3.568883 -0.136948 0.136948
v 3.568883 0.136948 0.136948
v 3.919947 0.095587 -0.095587
v 3.919947 -0.095587 -0.095587
v 3.919947 -0.095587 0.095587
v 3.919947 0.095587 0.095587
vt 0.000000 1.000000
vt 0.000000 0.750000
vt 0.046875 0.796875
vt 0.265625 0.750000
vt 0.218750 0.796875
vt 0.265625 1.000000
vt 0.218750 0.953125
vt 0.046875 0.953125
vt 0.000000 0.000000
vt 1.000000 0.000000
vt 1.000000 1.000000
vt 0.250000 -0.000000
vt 0.250000 0.750000
vt 0.000103 0.999897
vt 0.250000 0.500000
vt 0.500000 0.500000
vt 0.500000 0.750000
vt 0.234375 0.000000
vt 0.234375 0.750000
vt 0.265625 0.515625
vt 0.453125 0.515625
vt 0.468750 0.578125
vt 0.437500 0.640625
vt 0.484375 0.734375
vt 0.484375 0.515625
vt 0.468750 0.546875
vt 0.390625 0.593750
vt 0.328125 0.609375
vt 0.406250 0.640625
vt 0.375000 0.734375
vt 0.359375 0.734375
vt 0.328125 0.734375
vt 0.375000 0.640625
vt 0.390625 0.734375
vt 0.421875 0.718750
vt 0.375000 0.562500
vt 0.453125 0.718750
vt 0.250000 0.250000
vt 0.281250 0.218750
vt 0.468750 0.218750
vt 0.437500 0.703125
vt 0.281250 0.734375
vt 0.281250 0.031250
vt 0.468750 0.031250
vt 0.500000 0.250000
vt 0.500000 0.000000
vn 0.000000 -0.000000 -1.000000
vn 0.000000 -1.000000 0.000000
vn 0.000000 0.000000 1.000000
vn 0.000000 1.000000 -0.000000
vn -1.000000 0.000000 0.000000
vn 0.936700 0.000000 0.350000
vn 0.936700 -0.000000 -0.350000
vn 0.936700 0.350000 0.000000
vn 0.936700 -0.350000 0.000000
vn 0.117000 -0.993100 0.000000
vn 1.000000 0.000000 0.000000
vn 0.117000 0.000000 0.993100
vn 0.117000 0.000000 -0.993100
vn 0.117000 0.993100 -0.000000
vn 0.000000 0.701800 -0.712400
vn 0.000000 -0.701800 -0.712400
usemtl Material.001
s off
f 30/1/1 32/2/1 31/3/1
f 32/2/2 36/4/2 35/5/2
f 36/4/3 34/6/3 33/7/3
f 34/6/4 30/1/4 29/8/4
f 35/5/5 33/7/5 29/8/5
f 36/9/3 32/10/3 38/11/3
f 39/6/6 43/7/6 44/5/6
f 34/9/3 36/10/3 39/11/3
f 32/9/3 30/10/3 37/11/3
f 30/9/3 34/10/3 40/11/3
f 44/12/4 48/13/4 45/2/4
f 37/2/7 41/3/7 42/8/7
f 40/4/8 44/5/8 41/3/8
f 38/14/9 42/8/9 43/7/9
f 47/15/10 46/16/10 50/17/10
f 42/2/2 46/9/2 47/12/2
f 43/9/3 47/18/3 48/19/3
f 41/12/1 45/13/1 46/2/1
f 50/16/11 49/17/11 52/13/11
f 48/15/12 47/16/12 51/17/12
f 46/15/13 45/16/13 49/17/13
f 45/15/14 48/16/14 52/17/14
f 29/8/1 30/1/1 31/3/1
f 31/3/2 32/2/2 35/5/2
f 35/5/3 36/4/3 33/7/3
f 33/7/4 34/6/4 29/8/4
f 31/3/5 35/5/5 29/8/5
f 39/1/3 36/9/3 38/11/3
f 40/4/6 39/6/6 44/5/6
f 40/1/3 34/9/3 39/11/3
f 38/1/3 32/9/3 37/11/3
f 37/1/3 30/9/3 40/11/3
f 41/9/4 44/12/4 45/2/4
f 38/14/7 37/2/7 42/8/7
f 37/2/8 40/4/8 41/3/8
f 39/6/9 38/14/9 43/7/9
f 51/13/10 47/15/10 50/17/10
f 43/13/2 42/2/2 47/12/2
f 44/2/3 43/9/3 48/19/3
f 42/9/1 41/12/1 46/2/1
f 51/15/11 50/16/11 52/13/11
f 52/13/12 48/15/12 51/17/12
f 50/13/13 46/15/13 49/17/13
f 49/13/14 45/15/14 52/17/14
usemtl Material.002
f 2/17/1 4/13/1 3/20/1
f 4/13/2 8/15/2 7/21/2
f 8/15/2 9/22/2 10/23/2
f 6/16/4 2/17/4 1/24/4
f 7/21/5 5/25/5 1/24/5
f 4/13/11 2/17/11 6/16/11
f 11/26/15 15/27/15 16/28/15
f 5/25/4 11/26/4 12/29/4
f 7/21/5 10/23/5 11/26/5
f 6/16/11 12/29/11 9/22/11
f 16/28/11 20/30/11 17/31/11
f 10/23/5 14/32/5 15/27/5
f 9/22/11 12/29/11 16/28/11
f 9/22/16 13/33/16 14/32/16
f 17/31/3 20/30/3 19/34/3
f 13/33/2 17/31/2 18/35/2
f 15/27/4 19/34/4 20/30/4
f 15/27/5 21/36/5 23/37/5
f 21/38/2 25/39/2 27/40/2
f 18/35/5 19/34/5 23/37/5
f 18/35/5 24/41/5 22/42/5
f 15/27/5 14/32/5 22/42/5
f 25/39/5 26/43/5 28/44/5
f 23/45/1 27/40/1 28/44/1
f 24/46/4 28/44/4 26/43/4
f 22/12/3 26/43/3 25/39/3
f 1/24/1 2/17/1 3/20/1
f 3/20/2 4/13/2 7/21/2
f 7/21/2 8/15/2 10/23/2
f 5/25/4 6/16/4 1/24/4
f 3/20/5 7/21/5 1/24/5
f 8/15/11 4/13/11 6/16/11
f 12/29/15 11/26/15 16/28/15
f 6/16/4 5/25/4 12/29/4
f 5/25/5 7/21/5 11/26/5
f 8/15/11 6/16/11 9/22/11
f 13/33/11 16/28/11 17/31/11
f 11/26/5 10/23/5 15/27/5
f 13/33/11 9/22/11 16/28/11
f 10/23/16 9/22/16 14/32/16
f 18/35/3 17/31/3 19/34/3
f 14/32/2 13/33/2 18/35/2
f 16/28/4 15/27/4 20/30/4
f 19/34/5 15/27/5 23/37/5
f 23/45/2 21/38/2 27/40/2
f 24/41/5 18/35/5 23/37/5
f 14/32/5 18/35/5 22/42/5
f 21/36/5 15/27/5 22/42/5
f 27/40/5 25/39/5 28/44/5
f 24/46/1 23/45/1 28/44/1
f 22/12/4 24/46/4 26/43/4
f 21/38/3 22/12/3 25/39/3
o Minecraft_Block.004_Cube.004
v 3.000000 0.500000 0.500000
v 3.000000 -0.500000 0.500000
v 3.000000 -0.500000 1.500001
v 3.000000 0.500000 1.500000
v 4.000000 0.500000 0.500000
v 4.000000 -0.500000 0.500001
v 4.000000 -0.500000 1.500001
v 4.000000 0.500000 1.500000
vn -1.000000 -0.000000 0.000000
vn 1.000000 0.000000 0.000000
vn 0.000000 -0.000000 -1.000000
vn 0.000000 -1.000000 0.000000
vn -0.000000 0.000000 1.000000
vn 0.000000 1.000000 -0.000000
usemtl Material
s off
f 54//17 55//17 56//17
f 60//18 59//18 58//18
f 57//19 58//19 54//19
f 58//20 59//20 55//20
f 55//21 59//21 60//21
f 53//22 56//22 60//22
f 53//17 54//17 56//17
f 57//18 60//18 58//18
f 53//19 57//19 54//19
f 54//20 58//20 55//20
f 56//21 55//21 60//21
f 57//22 53//22 60//22
o Minecraft_Block.003_Cube.003
v 3.000000 0.500000 -0.500000
v 3.000000 -0.500000 -0.500000
v 3.000000 -0.500000 0.500000
v 3.000000 0.500000 0.500000
v 4.000000 0.500000 -0.500000
v 4.000000 -0.500000 -0.500000
v 4.000000 -0.500000 0.500000
v 4.000000 0.500000 0.500000
vn -1.000000 -0.000000 0.000000
vn 1.000000 0.000000 0.000000
vn 0.000000 -0.000000 -1.000000
vn 0.000000 -1.000000 0.000000
vn -0.000000 0.000000 1.000000
vn 0.000000 1.000000 -0.000000
usemtl Material
s off
f 62//23 63//23 64//23
f 68//24 67//24 66//24
f 65//25 66//25 62//25
f 66//26 67//26 63//26
f 63//27 67//27 68//27
f 61//28 64//28 68//28
f 61//23 62//23 64//23
f 65//24 68//24 66//24
f 61//25 65//25 62//25
f 62//26 66//26 63//26
f 64//27 63//27 68//27
f 65//28 61//28 68//28
o Minecraft_Block.002_Cube.002
v 2.000000 0.500000 -0.500000
v 2.000000 -0.500000 -0.500000
v 2.000000 -0.500000 0.500000
v 2.000000 0.500000 0.500000
v 3.000000 0.500000 -0.500000
v 3.000000 -0.500000 -0.500000
v 3.000000 -0.500000 0.500000
v 3.000000 0.500000 0.500000
vn -1.000000 0.000000 0.000000
vn 1.000000 -0.000000 0.000000
vn 0.000000 -0.000000 -1.000000
vn 0.000000 -1.000000 0.000000
vn -0.000000 0.000000 1.000000
vn 0.000000 1.000000 -0.000000
usemtl Material
s off
f 70//29 71//29 72//29
f 76//30 75//30 74//30
f 73//31 74//31 70//31
f 74//32 75//32 71//32
f 71//33 75//33 76//33
f 69//34 72//34 76//34
f 69//29 70//29 72//29
f 73//30 76//30 74//30
f 69//31 73//31 70//31
f 70//32 74//32 71//32
f 72//33 71//33 76//33
f 73//34 69//34 76//34
o Minecraft_Block.001_Cube.001
v 1.000000 0.500000 -0.500000
v 1.000000 -0.500000 -0.500000
v 1.000000 -0.500000 0.500000
v 1.000000 0.500000 0.500000
v 2.000000 0.500000 -0.500000
v 2.000000 -0.500000 -0.500000
v 2.000000 -0.500000 0.500000
v 2.000000 0.500000 0.500000
vn -1.000000 0.000000 0.000000
vn 1.000000 0.000000 0.000000
vn 0.000000 -0.000000 -1.000000
vn 0.000000 -1.000000 0.000000
vn -0.000000 0.000000 1.000000
vn 0.000000 1.000000 -0.000000
usemtl Material
s off
f 78//35 79//35 80//35
f 84//36 83//36 82//36
f 81//37 82//37 78//37
f 82//38 83//38 79//38
f 79//39 83//39 84//39
f 77//40 80//40 84//40
f 77//35 78//35 80//35
f 81//36 84//36 82//36
f 77//37 81//37 78//37
f 78//38 82//38 79//38
f 80//39 79//39 84//39
f 81//40 77//40 84//40
o Minecraft_Block_Cube
v 0.000000 0.500000 -0.500000
v 0.000000 -0.500000 -0.500000
v 0.000000 -0.500000 0.500000
v 0.000000 0.500000 0.500000
v 1.000000 0.500000 -0.500000
v 1.000000 -0.500000 -0.500000
v 1.000000 -0.500000 0.500000
v 1.000000 0.500000 0.500000
vn -1.000000 0.000000 0.000000
vn 1.000000 0.000000 0.000000
vn 0.000000 -0.000000 -1.000000
vn 0.000000 -1.000000 0.000000
vn -0.000000 0.000000 1.000000
vn 0.000000 1.000000 -0.000000
usemtl Material
s off
f 86//41 87//41 88//41
f 92//42 91//42 90//42
f 89//43 90//43 86//43
f 90//44 91//44 87//44
f 87//45 91//45 92//45
f 85//46 88//46 92//46
f 85//41 86//41 88//41
f 89//42 92//42 90//42
f 85//43 89//43 86//43
f 86//44 90//44 87//44
f 88//45 87//45 92//45
f 89//46 85//46 92//46
