# Blender v2.76 (sub 0) OBJ File: 'RelaySmall.blend'
# www.blender.org
mtllib RelaySmall.mtl
o backplate
v 0.125000 -0.500000 -0.312500
v 0.125000 -0.500000 0.312500
v 0.125000 0.500000 0.312500
v 0.125000 0.500000 -0.312500
vt 0.281250 0.937500
vt 0.031250 0.937500
vt 0.031250 0.625000
vt 0.281250 0.625000
vn 1.000000 0.000000 0.000000
usemtl None
s off
f 3/1/1 2/2/1 1/3/1
f 4/4/1 3/1/1 1/3/1
o relay0
v 0.181395 -0.007285 -0.062500
v 0.181395 -0.007285 0.062500
v 0.338462 0.100310 0.090000
v 0.338462 0.100310 -0.090000
v 0.217996 -0.159630 0.062500
v 0.217996 -0.159630 -0.062500
v 0.321392 0.003501 -0.062500
v 0.321392 0.003501 0.062500
v 0.388386 0.383442 0.081250
v 0.388386 0.383442 -0.081250
v 0.363424 0.241876 0.167063
v 0.363424 0.241876 -0.167063
vt 0.296875 0.750000
vt 0.328125 0.750000
vt 0.328125 0.812500
vt 0.328125 1.000000
vt 0.312500 1.000000
vt 0.312500 0.968750
vt 0.328125 0.843750
vt 0.296875 0.843750
vt 0.296875 0.781250
vt 0.296875 0.812500
vt 0.328125 0.968750
vt 0.328125 0.781250
vn -0.076800 0.997000 0.000000
vn 0.984800 -0.173600 0.000000
vn 0.972300 0.233600 0.000000
usemtl None
s off
f 5/5/2 6/6/2 12/7/2
f 8/8/3 7/9/3 12/10/3
f 9/11/4 10/12/4 5/13/4
f 15/8/3 7/9/3 8/10/3
f 13/8/3 15/9/3 16/10/3
f 11/14/2 5/5/2 12/7/2
f 11/15/3 8/8/3 12/10/3
f 6/16/4 9/11/4 5/13/4
f 16/15/3 15/8/3 8/10/3
f 14/15/3 13/8/3 16/10/3
o relay1
v 0.125000 -0.187500 -0.062500
v 0.125000 -0.187500 0.062500
v 0.187500 -0.187500 -0.062500
v 0.187500 -0.187500 0.062500
v 0.250000 -0.250000 -0.062500
v 0.250000 -0.250000 0.062500
v 0.312500 -0.187500 -0.062500
v 0.312500 -0.187500 0.062500
vt 0.328125 1.000000
vt 0.359375 1.000000
vt 0.359375 0.968750
vt 0.328125 0.937500
vt 0.296875 0.750000
vt 0.328125 0.750000
vt 0.328125 0.843750
vt 0.343750 0.968750
vt 0.343750 1.000000
vt 0.328125 0.968750
vt 0.359375 0.937500
vt 0.296875 0.843750
vn 0.707100 -0.707100 0.000000
vn -0.707100 -0.707100 0.000000
vn 0.000000 1.000000 0.000000
vn 0.000000 0.000000 -1.000000
vn 0.000000 0.000000 1.000000
usemtl None
s off
f 23/17/5 24/18/5 22/19/5
f 21/18/6 22/17/6 20/20/6
f 17/21/7 18/22/7 24/23/7
f 21/19/8 19/18/8 23/24/8
f 24/25/9 20/18/9 22/19/9
f 21/26/5 23/17/5 22/19/5
f 19/27/6 21/18/6 20/20/6
f 23/28/7 17/21/7 24/23/7
o main
v 0.000000 -0.500000 -0.312500
v 0.000000 -0.500000 0.312500
v 0.000000 0.500000 0.312500
v 0.000000 0.500000 -0.312500
v 0.125000 -0.500000 -0.312500
v 0.125000 -0.500000 0.312500
v 0.125000 0.500000 0.312500
v 0.125000 0.500000 -0.312500
v 0.125000 0.062500 0.187500
v 0.125000 -0.062500 0.187500
v 0.125000 0.268750 0.187500
v 0.312500 0.268750 0.187500
v 0.125000 0.431130 0.093750
v 0.312500 0.431130 0.093750
v 0.125000 0.431130 -0.093750
v 0.312500 0.431130 -0.093750
v 0.125000 0.268750 -0.187500
v 0.312500 0.268750 -0.187500
v 0.125000 0.106370 -0.093750
v 0.312500 0.106370 -0.093750
v 0.125000 0.106370 0.093750
v 0.312500 0.106370 0.093750
v 0.125000 0.062500 -0.187500
v 0.125000 -0.062500 -0.187500
v 0.187500 0.062500 0.187500
v 0.187500 -0.062500 0.187500
v 0.187500 0.062500 -0.187500
v 0.187500 -0.062500 -0.187500
v 0.125000 0.062500 -0.125000
v 0.125000 -0.062500 -0.125000
v 0.187500 0.062500 -0.125000
v 0.187500 -0.062500 -0.125000
v 0.125000 0.062500 0.125000
v 0.125000 -0.062500 0.125000
v 0.187500 0.062500 0.125000
v 0.187500 -0.062500 0.125000
v 0.437500 -0.500000 -0.312500
v 0.437500 -0.500000 0.312500
v 0.437500 0.500000 0.312500
v 0.437500 0.500000 -0.312500
v 0.125000 -0.347288 -0.062500
v 0.125000 -0.347288 0.062500
v 0.187500 -0.347288 -0.062500
v 0.187500 -0.347288 0.062500
v 0.250000 -0.284788 -0.062500
v 0.250000 -0.284788 0.062500
v 0.312500 -0.347288 -0.062500
v 0.312500 -0.347288 0.062500
v 0.187500 0.062500 -0.062500
v 0.187500 -0.062500 -0.062500
v 0.187500 0.062500 0.062500
v 0.187500 -0.062500 0.062500
v 0.312500 0.062500 0.187500
v 0.312500 -0.062500 0.187500
v 0.312500 0.062500 -0.187500
v 0.312500 -0.062500 -0.187500
v 0.312500 0.062500 -0.062500
v 0.312500 -0.062500 -0.062500
v 0.312500 0.062500 0.062500
v 0.312500 -0.062500 0.062500
vt 0.031250 0.937500
vt 0.000000 0.937500
vt 0.000000 0.625000
vt 0.281250 0.937500
vt 0.281250 1.000000
vt 0.031250 1.000000
vt 0.031250 0.625000
vt 0.281250 0.625000
vt 0.281250 0.312500
vt 0.328125 0.343750
vt 0.328125 0.375000
vt 0.296875 0.375000
vt 0.343750 0.343750
vt 0.343750 0.375000
vt 0.125000 0.125000
vt 0.078125 0.125000
vt 0.078125 0.031250
vt 0.312500 0.343750
vt 0.312500 0.375000
vt 0.328125 0.312500
vt 0.359375 0.343750
vt 0.078125 0.281250
vt 0.031250 0.281250
vt 0.031250 0.187500
vt 0.312500 0.125000
vt 0.265625 0.125000
vt 0.265625 0.031250
vt 0.296875 0.343750
vt 0.218750 0.125000
vt 0.218750 0.031250
vt 0.171875 0.000000
vt 0.187500 0.000000
vt 0.187500 0.031250
vt 0.171875 0.125000
vt 0.125000 0.031250
vt 0.171875 0.031250
vt 0.625000 1.000000
vt 0.375000 1.000000
vt 0.375000 0.687500
vt 0.625000 0.687500
vt 0.625000 0.843750
vt 0.781250 1.000000
vt 0.781250 0.687500
vt 0.703125 0.687500
vt 0.375000 0.843750
vt 0.359375 0.968750
vt 0.359375 1.000000
vt 0.328125 1.000000
vt 0.359375 0.937500
vt 0.328125 0.968750
vt 0.296875 0.906250
vt 0.328125 0.906250
vt 0.343750 1.000000
vt 0.328125 0.562500
vt 0.296875 0.562500
vt 0.296875 0.500000
vt 0.296875 0.625000
vt 0.328125 0.625000
vt 0.312500 0.562500
vt 0.343750 0.562500
vt 0.343750 0.500000
vt 0.359375 0.562500
vt 0.328125 0.500000
vt 0.312500 0.500000
vt 0.359375 0.468750
vt 0.328125 0.468750
vt 0.031250 0.312500
vt 0.359375 0.312500
vt 0.078125 0.187500
vt 0.312500 0.031250
vt 0.703125 1.000000
vt 0.328125 0.937500
vt 0.296875 1.000000
vt 0.359375 0.500000
vn 0.000000 -1.000000 0.000000
vn 0.000000 0.000000 1.000000
vn 0.000000 1.000000 0.000000
vn 0.000000 0.000000 -1.000000
vn -1.000000 0.000000 0.000000
vn 0.000000 0.500000 0.866000
vn 0.000000 0.500000 -0.866000
vn 0.000000 -0.500000 -0.866000
vn 1.000000 0.000000 0.000000
vn 0.000000 -0.500000 0.866000
vn 0.707100 0.707100 0.000000
vn -0.707100 0.707100 0.000000
usemtl None
s off
f 30/29/10 26/30/10 25/31/10
f 31/32/11 27/33/11 26/34/11
f 32/31/12 28/35/12 27/29/12
f 29/29/13 25/34/13 28/33/13
f 26/35/14 27/36/14 28/37/14
f 47/38/13 51/39/13 52/40/13
f 33/41/12 49/42/12 59/39/12
f 36/43/15 38/44/15 37/45/15
f 54/38/10 48/46/10 52/47/10
f 54/48/11 56/38/11 55/49/11
f 38/50/12 40/51/12 39/52/12
f 55/42/12 51/39/12 47/38/12
f 40/53/16 42/54/16 41/55/16
f 34/56/11 50/40/11 49/39/11
f 42/54/17 44/57/17 43/58/17
f 46/59/18 44/60/18 40/61/18
f 46/62/19 36/43/19 35/63/19
f 44/57/10 46/62/10 45/64/10
f 63/65/18 62/66/18 61/67/18
f 58/38/10 60/39/10 50/47/10
f 59/49/13 60/38/13 58/48/13
f 61/67/11 64/68/11 32/69/11
f 62/70/12 61/71/12 29/72/12
f 63/65/13 62/66/13 30/73/13
f 64/70/10 63/71/10 31/72/10
f 70/74/20 72/75/20 71/76/20
f 68/77/21 70/74/21 69/78/21
f 65/79/12 66/80/12 72/76/12
f 69/75/13 71/74/13 67/81/13
f 72/74/11 70/81/11 68/75/11
f 79/82/13 80/83/13 52/84/13
f 82/85/11 81/86/11 73/82/11
f 79/83/18 81/85/18 82/86/18
f 78/83/18 84/85/18 83/86/18
f 80/87/10 82/88/10 74/89/10
f 77/90/12 83/82/12 75/91/12
f 83/90/13 84/82/13 76/91/13
f 78/83/11 77/82/11 49/91/11
f 81/90/12 79/82/12 51/91/12
f 84/88/10 78/87/10 50/92/10
f 55/93/14 56/94/14 74/91/14
f 76/91/14 60/94/14 59/93/14
f 29/35/10 30/29/10 25/31/10
f 30/29/11 31/32/11 26/34/11
f 31/30/12 32/31/12 27/29/12
f 32/32/13 29/29/13 28/33/13
f 25/95/14 26/35/14 28/37/14
f 48/56/13 47/38/13 52/40/13
f 57/38/12 33/41/12 59/39/12
f 35/63/15 36/43/15 37/45/15
f 56/39/10 54/38/10 52/47/10
f 53/96/11 54/48/11 55/49/11
f 37/97/12 38/50/12 39/52/12
f 53/41/12 55/42/12 47/38/12
f 39/98/16 40/53/16 41/55/16
f 33/38/11 34/56/11 49/39/11
f 41/55/17 42/54/17 43/58/17
f 40/61/18 38/64/18 36/59/18
f 36/59/18 46/59/18 40/61/18
f 44/60/18 42/60/18 40/61/18
f 45/64/19 46/62/19 35/63/19
f 43/58/10 44/57/10 45/64/10
f 64/68/18 63/65/18 61/67/18
f 34/46/10 58/38/10 50/47/10
f 57/96/13 59/49/13 58/48/13
f 29/73/11 61/67/11 32/69/11
f 30/99/12 62/70/12 29/72/12
f 31/69/13 63/65/13 30/73/13
f 32/99/10 64/70/10 31/72/10
f 69/78/20 70/74/20 71/76/20
f 67/100/21 68/77/21 69/78/21
f 71/101/12 65/79/12 72/76/12
f 51/91/13 79/82/13 52/84/13
f 74/83/11 82/85/11 73/82/11
f 80/82/18 79/83/18 82/86/18
f 77/82/18 78/83/18 83/86/18
f 52/92/10 80/87/10 74/89/10
f 49/102/12 77/90/12 75/91/12
f 75/102/13 83/90/13 76/91/13
f 50/84/11 78/83/11 49/91/11
f 73/102/12 81/90/12 51/91/12
f 76/89/10 84/88/10 50/92/10
f 73/102/14 55/93/14 74/91/14
f 75/102/14 76/91/14 59/93/14
o Minecraft_2_Edge_Connectivity_Cube.002
v 0.000000 0.500000 0.500000
v 0.000000 0.500000 -0.500000
v 0.000000 -0.500000 -0.500000
v 0.000000 -0.500000 0.500000
v 0.500000 0.500000 -0.000000
v 0.500000 -0.500000 0.000000
vn -1.000000 0.000000 0.000000
vn 0.707100 -0.000000 -0.707100
vn 0.000000 1.000000 0.000000
vn -0.000000 -1.000000 0.000000
vn 0.707100 0.000000 0.707100
usemtl Material
s off
f 86//22 87//22 88//22
f 89//23 90//23 87//23
f 85//24 89//24 86//24
f 87//25 90//25 88//25
f 85//26 88//26 90//26
f 85//22 86//22 88//22
f 86//23 89//23 87//23
f 89//26 85//26 90//26
o Minecraft_4_Edge_Connectivity_Cube.001
v 0.000000 0.500000 0.500000
v 0.000000 0.500000 -0.500000
v 0.000000 -0.500000 -0.500000
v 0.000000 -0.500000 0.500000
v 0.500000 -0.000000 -0.000000
vn -1.000000 0.000000 0.000000
vn 0.707100 0.707100 0.000000
vn 0.707100 -0.000000 -0.707100
vn 0.707100 -0.707100 0.000000
vn 0.707100 0.000000 0.707100
usemtl Material
s off
f 92//27 93//27 94//27
f 91//28 95//28 92//28
f 92//29 95//29 93//29
f 93//30 95//30 94//30
f 95//31 91//31 94//31
f 91//27 92//27 94//27
o Minecraft_Block_Cube
v 0.000000 0.500000 0.500000
v 0.000000 0.500000 -0.500000
v 0.000000 -0.500000 -0.500000
v 0.000000 -0.500000 0.500000
v 1.000000 0.500000 0.500000
v 1.000000 0.500000 -0.500000
v 1.000000 -0.500000 -0.500000
v 1.000000 -0.500000 0.500000
vn -1.000000 0.000000 0.000000
vn 1.000000 0.000000 0.000000
vn 0.000000 1.000000 -0.000000
vn -0.000000 -0.000000 -1.000000
vn -0.000000 -1.000000 0.000000
vn 0.000000 0.000000 1.000000
usemtl Material
s off
f 97//32 98//32 99//32
f 103//33 102//33 101//33
f 100//34 101//34 97//34
f 101//35 102//35 98//35
f 98//36 102//36 103//36
f 96//37 99//37 103//37
f 96//32 97//32 99//32
f 100//33 103//33 101//33
f 96//34 100//34 97//34
f 97//35 101//35 98//35
f 99//36 98//36 103//36
f 100//37 96//37 103//37
