# Blender v2.76 (sub 0) OBJ File: 'transformator.blend'
# www.blender.org
mtllib transformator.mtl
o sbire
v -0.086800 0.000000 -0.396800
v 0.086800 0.000000 -0.396800
v 0.086800 0.000000 -0.223200
v -0.086800 0.000000 -0.223200
v -0.086800 0.031000 -0.396800
v 0.086800 0.031000 -0.396800
v 0.086800 0.031000 -0.223200
v -0.086800 0.031000 -0.223200
vt 0.125000 1.000000
vt 0.125000 0.968750
vt 0.000000 0.968750
vt 0.125000 0.937500
vt 0.125000 0.906250
vt 0.000000 0.906250
vt 0.000000 0.937500
vt 0.000000 0.875000
vt 0.125000 0.875000
vt 0.250000 1.000000
vt 0.250000 0.875000
vt 0.000000 0.750000
vt 0.000000 1.000000
vt 0.125000 0.750000
vn 0.000000 0.000000 -1.000000
vn 1.000000 0.000000 0.000000
vn 0.000000 0.000000 1.000000
vn -1.000000 0.000000 0.000000
vn 0.000000 -1.000000 0.000000
vn 0.000000 1.000000 0.000000
usemtl None
s off
f 6/1/1 2/2/1 1/3/1
f 7/4/2 3/5/2 2/6/2
f 8/3/3 4/7/3 3/4/3
f 5/6/4 1/8/4 4/9/4
f 2/1/5 3/10/5 4/11/5
f 7/9/6 6/8/6 5/12/6
f 5/13/1 6/1/1 1/3/1
f 6/7/2 7/4/2 2/6/2
f 7/2/3 8/3/3 3/4/3
f 8/5/4 5/6/4 4/9/4
f 1/9/5 2/1/5 4/11/5
f 8/14/6 7/9/6 5/12/6
o fero
v -0.062500 -0.440500 -0.375000
v 0.062500 -0.440500 -0.375000
v 0.062500 -0.440500 0.375000
v -0.062500 -0.440500 0.375000
v -0.062500 0.437500 -0.375000
v 0.062500 0.437500 -0.375000
v 0.062500 0.437500 0.375000
v -0.062500 0.437500 0.375000
v -0.062500 -0.315500 -0.250000
v 0.062500 -0.315500 -0.250000
v 0.062500 -0.315500 0.250000
v -0.062500 -0.315500 0.250000
v -0.062500 0.312500 -0.250000
v 0.062500 0.312500 -0.250000
v 0.062500 0.312500 0.250000
v -0.062500 0.312500 0.250000
vn 0.000000 0.000000 -1.000000
vn 0.000000 0.000000 1.000000
vn 0.000000 -1.000000 0.000000
vn 0.000000 1.000000 0.000000
vn 1.000000 0.000000 0.000000
vn -1.000000 0.000000 0.000000
usemtl None_NONE
s off
f 14//7 10//7 9//7
f 19//7 20//7 24//7
f 16//8 12//8 11//8
f 17//8 18//8 22//8
f 10//9 11//9 12//9
f 15//10 14//10 13//10
f 20//10 19//10 18//10
f 21//9 22//9 23//9
f 14//11 15//11 23//11
f 15//11 11//11 19//11
f 11//11 10//11 18//11
f 17//12 21//12 13//12
f 22//11 18//11 10//11
f 12//12 20//12 17//12
f 13//12 21//12 24//12
f 24//12 20//12 12//12
f 13//7 14//7 9//7
f 23//7 19//7 24//7
f 15//8 16//8 11//8
f 21//8 17//8 22//8
f 9//9 10//9 12//9
f 16//10 15//10 13//10
f 17//10 20//10 18//10
f 24//9 21//9 23//9
f 22//11 14//11 23//11
f 23//11 15//11 19//11
f 19//11 11//11 18//11
f 9//12 17//12 13//12
f 14//11 22//11 10//11
f 9//12 12//12 17//12
f 16//12 13//12 24//12
f 16//12 24//12 12//12
o main
v -0.250000 -0.500000 -0.500000
v 0.250000 -0.500000 -0.500000
v 0.250000 -0.500000 0.500000
v -0.250000 -0.500000 0.500000
v -0.220500 -0.157500 -0.472500
v 0.220500 -0.157500 -0.472500
v 0.220500 -0.157500 0.472500
v -0.220500 -0.157500 0.472500
v -0.250000 -0.187500 -0.500000
v 0.250000 -0.187500 -0.500000
v 0.250000 -0.187500 0.500000
v -0.250000 -0.187500 0.500000
v -0.220500 -0.252000 -0.472500
v 0.220500 -0.252000 -0.472500
v 0.220500 -0.252000 0.472500
v -0.220500 -0.252000 0.472500
v -0.147237 -0.248000 0.040650
v -0.147237 -0.155000 0.040650
v 0.023237 -0.248000 0.040650
v 0.023237 -0.155000 0.040650
v -0.147237 -0.248000 0.099642
v -0.147237 -0.155000 0.099642
v 0.023237 -0.248000 0.099642
v 0.023237 -0.155000 0.099642
v -0.496000 -0.336270 0.251008
v -0.035492 -0.229519 -0.055400
v -0.035492 -0.229519 -0.155400
v -0.041350 -0.215377 -0.055400
v -0.041350 -0.215377 -0.155400
v -0.055493 -0.209519 -0.055400
v -0.055493 -0.209519 -0.155400
v -0.069635 -0.215377 -0.055400
v -0.069635 -0.215377 -0.155400
v -0.075492 -0.229519 -0.055400
v -0.075492 -0.229519 -0.155400
v -0.069635 -0.243661 -0.055400
v -0.069635 -0.243661 -0.155400
v -0.055493 -0.249519 -0.055400
v -0.055493 -0.249519 -0.155400
v -0.041350 -0.243661 -0.055400
v -0.041350 -0.243661 -0.155400
v -0.061149 -0.235176 -0.173600
v -0.049836 -0.223862 -0.018600
v -0.049836 -0.235176 -0.173600
v -0.061149 -0.223862 -0.018600
v -0.061149 -0.223862 -0.186000
v -0.061149 -0.235176 -0.031000
v -0.049836 -0.223862 -0.186000
v -0.049836 -0.235176 -0.031000
v -0.061149 -0.284301 -0.173600
v -0.049836 -0.284301 -0.173600
v -0.049836 -0.272987 -0.186000
v -0.061149 -0.272987 -0.186000
v -0.061149 -0.272987 -0.018600
v -0.061149 -0.284301 -0.031000
v -0.049836 -0.272987 -0.018600
v -0.049836 -0.284301 -0.031000
v 0.118800 -0.055800 -0.087551
v 0.110360 -0.055800 -0.056051
v 0.125800 -0.248800 -0.087551
v 0.125800 -0.062000 -0.087551
v 0.116422 -0.248800 -0.052551
v 0.116422 -0.062000 -0.052551
v 0.090800 -0.248800 -0.026929
v 0.090800 -0.062000 -0.026929
v 0.055800 -0.248800 -0.017551
v 0.055800 -0.062000 -0.017551
v 0.020800 -0.248800 -0.026929
v 0.020800 -0.062000 -0.026929
v -0.004822 -0.248800 -0.052551
v -0.004822 -0.062000 -0.052551
v -0.014200 -0.248800 -0.087551
v -0.014200 -0.062000 -0.087551
v -0.004822 -0.248800 -0.122551
v -0.004822 -0.062000 -0.122551
v 0.020800 -0.248800 -0.148173
v 0.020800 -0.062000 -0.148173
v 0.055800 -0.248800 -0.157551
v 0.055800 -0.062000 -0.157551
v 0.090800 -0.248800 -0.148173
v 0.090800 -0.062000 -0.148173
v 0.116422 -0.248800 -0.122551
v 0.116422 -0.062000 -0.122551
v 0.087300 -0.055800 -0.032991
v 0.055800 -0.055800 -0.024551
v 0.024300 -0.055800 -0.032991
v 0.001240 -0.055800 -0.056051
v -0.007200 -0.055800 -0.087551
v 0.001240 -0.055800 -0.119051
v 0.024300 -0.055800 -0.142110
v 0.055800 -0.055800 -0.150551
v 0.087300 -0.055800 -0.142110
v 0.110360 -0.055800 -0.119051
v 0.104252 -0.244900 -0.156605
v 0.104252 -0.151900 -0.156605
v 0.104252 -0.244900 -0.272800
v 0.104252 -0.151900 -0.272800
v 0.163244 -0.244900 -0.156605
v 0.163244 -0.151900 -0.156605
v 0.163244 -0.244900 -0.272800
v 0.163244 -0.151900 -0.272800
vt 0.343750 0.468750
vt 0.343750 0.312500
vt 0.093750 0.312500
vt 1.000000 0.343750
vt 1.000000 0.187500
vt 0.500000 0.187500
vt 0.093750 0.468750
vt 0.500000 0.156250
vt 0.500000 0.000000
vt 1.000000 0.000000
vt 0.500000 1.000000
vt 0.500000 0.937500
vt 1.000000 0.937500
vt 0.875000 0.562500
vt 0.875000 0.593750
vt 0.625000 0.593750
vt 0.968750 0.500000
vt 0.968750 0.531250
vt 0.468750 0.531250
vt 0.625000 0.656250
vt 0.625000 0.625000
vt 0.875000 0.625000
vt 0.468750 0.500000
vt 0.484375 0.234375
vt 0.015625 0.234375
vt 0.015625 0.015625
vt 1.000000 1.000000
vt 0.750000 1.000000
vt 0.750000 0.937500
vt 1.000000 0.804688
vt 1.000000 0.757812
vt 0.914062 0.757812
vt 0.937500 0.906250
vt 0.937500 0.859375
vt 0.906250 0.859375
vt 0.914062 0.804688
vt 0.906250 0.906250
vt 0.968750 0.906250
vt 1.000000 0.906250
vt 1.000000 0.820312
vt 0.968750 0.820312
vt 0.695312 0.750000
vt 0.695312 0.757812
vt 0.750000 0.757812
vt 0.695312 0.789062
vt 0.695312 0.781250
vt 0.750000 0.781250
vt 0.695312 0.773438
vt 0.750000 0.773438
vt 0.695312 0.765625
vt 0.750000 0.765625
vt 0.695312 0.796875
vt 0.750000 0.796875
vt 0.742188 0.710938
vt 0.734375 0.718750
vt 0.742188 0.726562
vt 0.695312 0.742188
vt 0.750000 0.750000
vt 0.695312 0.804688
vt 0.750000 0.804688
vt 0.734375 0.710938
vt 0.750000 0.710938
vt 0.648438 0.765625
vt 0.648438 0.742188
vt 0.656250 0.750000
vt 0.578125 0.765625
vt 0.570312 0.773438
vt 0.570312 0.750000
vt 0.656250 0.773438
vt 0.656250 0.718750
vt 0.570312 0.718750
vt 0.570312 0.726562
vt 0.656250 0.734375
vt 0.585938 0.734375
vt 0.585938 0.726562
vt 0.578125 0.726562
vt 0.578125 0.734375
vt 0.570312 0.734375
vt 0.585938 0.765625
vt 0.585938 0.742188
vt 0.578125 0.742188
vt 0.593750 0.742188
vt 0.601562 0.765625
vt 0.601562 0.742188
vt 0.609375 0.742188
vt 0.938725 0.683211
vt 0.940475 0.680180
vt 0.956225 0.684400
vt 0.796875 0.804688
vt 0.812500 0.804688
vt 0.812500 0.710938
vt 0.973725 0.683211
vt 0.971975 0.680180
vt 0.983504 0.668650
vt 0.828125 0.804688
vt 0.828125 0.710938
vt 0.991225 0.652900
vt 0.987725 0.652900
vt 0.983504 0.637150
vt 0.875000 0.804688
vt 0.859375 0.804688
vt 0.859375 0.710938
vt 0.956225 0.617900
vt 0.973725 0.622589
vt 0.971975 0.625620
vt 0.843750 0.804688
vt 0.843750 0.710938
vt 0.925914 0.635400
vt 0.938725 0.622589
vt 0.940475 0.625620
vt 0.925914 0.670400
vt 0.921225 0.652900
vt 0.924725 0.652900
vt 0.796875 0.710938
vt 0.986535 0.670400
vt 0.781250 0.804688
vt 0.781250 0.710938
vt 0.986535 0.635400
vt 0.765625 0.804688
vt 0.765625 0.710938
vt 0.956225 0.621400
vt 0.956225 0.687900
vt 0.928945 0.668650
vt 0.875000 0.710938
vt 0.928945 0.637150
vt 0.890625 0.804688
vt 0.890625 0.710938
vt 0.241225 0.902900
vt 0.188725 0.872589
vt 0.188725 0.933211
vt 0.828125 0.906250
vt 0.828125 0.859375
vt 0.882812 0.859375
vt 0.812500 0.906250
vt 0.812500 0.859375
vt 0.781250 0.859375
vt 0.882812 0.906250
vt 0.781250 0.906250
vt 0.710938 0.875000
vt 0.710938 0.906250
vt 0.765625 0.906250
vt 0.500000 0.343750
vt 1.000000 0.156250
vt 0.625000 0.562500
vt 0.875000 0.656250
vt 0.484375 0.015625
vt 0.750000 0.789062
vt 0.750000 0.726562
vt 0.750000 0.718750
vt 0.734375 0.726562
vt 0.750000 0.742188
vt 0.656250 0.726562
vt 0.593750 0.765625
vt 0.609375 0.765625
vt 0.206225 0.937900
vt 0.223725 0.933211
vt 0.236535 0.920400
vt 0.236535 0.885400
vt 0.223725 0.872589
vt 0.206225 0.867900
vt 0.175914 0.885400
vt 0.171225 0.902900
vt 0.175914 0.920400
vt 0.765625 0.875000
vn 0.000000 0.000000 -1.000000
vn 1.000000 0.000000 0.000000
vn 0.000000 0.000000 1.000000
vn -1.000000 0.000000 0.000000
vn 0.000000 -1.000000 0.000000
vn 0.000000 0.675700 -0.737200
vn 0.713000 0.701100 0.000000
vn 0.000000 0.675700 0.737200
vn -0.713000 0.701100 0.000000
vn 0.000000 1.000000 0.000000
vn 0.923900 0.382700 0.000000
vn 0.382700 0.923900 0.000000
vn -0.382700 0.923900 0.000000
vn -0.923900 0.382700 0.000000
vn -0.923900 -0.382700 0.000000
vn -0.382700 -0.923900 0.000000
vn 0.923900 -0.382700 0.000000
vn 0.382700 -0.923900 0.000000
vn 0.000000 0.738700 0.674000
vn 0.000000 0.738700 -0.674000
vn 0.652800 0.737000 -0.174900
vn 0.965900 0.000000 0.258800
vn 0.477900 0.737000 0.477900
vn 0.707100 0.000000 0.707100
vn -0.174900 0.737000 0.652800
vn 0.258800 0.000000 0.965900
vn -0.652800 0.737000 0.174900
vn -0.258800 0.000000 0.965900
vn -0.477900 0.737000 -0.477900
vn -0.707100 0.000000 0.707100
vn 0.174900 0.737000 -0.652800
vn -0.965900 0.000000 0.258800
vn 0.174900 0.737000 0.652800
vn -0.965900 0.000000 -0.258800
vn -0.477900 0.737000 0.477900
vn -0.707100 0.000000 -0.707100
vn -0.652800 0.737000 -0.174900
vn -0.258800 0.000000 -0.965900
vn 0.652800 0.737000 0.174900
vn 0.258800 0.000000 -0.965900
vn -0.174900 0.737000 -0.652800
vn 0.965900 0.000000 -0.258800
vn 0.707100 0.000000 -0.707100
vn 0.477900 0.737000 -0.477900
usemtl None
s off
f 34/15/13 26/16/13 25/17/13
f 35/18/14 27/19/14 26/20/14
f 36/21/15 28/17/15 27/16/15
f 33/22/16 25/23/16 28/24/16
f 26/20/17 27/19/17 28/24/17
f 30/25/16 38/26/16 39/27/16
f 30/28/18 34/29/18 33/30/18
f 31/31/19 35/32/19 34/33/19
f 32/34/20 36/35/20 35/36/20
f 29/37/21 33/33/21 36/32/21
f 39/38/22 38/39/22 37/40/22
f 31/27/13 39/41/13 40/42/13
f 29/43/15 37/42/15 38/41/15
f 32/27/14 40/41/14 37/25/14
f 44/44/13 43/45/13 41/46/13
f 48/47/14 47/48/14 43/49/14
f 46/50/15 45/46/15 47/45/15
f 42/51/16 41/49/16 45/48/16
f 43/52/17 47/53/17 45/54/17
f 48/53/22 44/52/22 42/55/22
f 51/56/23 53/57/23 52/58/23
f 53/59/24 55/60/24 54/61/24
f 55/60/25 57/62/25 56/63/25
f 57/62/26 59/64/26 58/65/26
f 59/64/27 61/57/27 60/58/27
f 61/59/28 63/66/28 62/67/28
f 63/68/13 59/69/13 55/70/13
f 65/71/29 51/56/29 50/72/29
f 63/66/30 65/73/30 64/74/30
f 58/69/15 60/75/15 64/76/15
f 73/77/16 81/78/16 80/79/16
f 68/80/16 72/81/16 76/82/16
f 67/83/16 72/81/16 68/80/16
f 69/84/17 70/85/17 72/86/17
f 71/77/14 66/80/14 70/81/14
f 73/87/22 68/88/22 66/89/22
f 74/90/31 75/91/31 76/92/31
f 68/93/13 75/94/13 74/95/13
f 66/80/14 74/95/14 77/82/14
f 70/93/15 77/94/15 76/96/15
f 80/91/32 81/92/32 79/86/32
f 67/97/13 80/98/13 78/96/13
f 71/77/14 69/83/14 78/79/14
f 71/97/15 79/98/15 81/99/15
f 107/100/33 117/101/33 82/102/33
f 85/103/34 87/104/34 86/105/34
f 87/106/35 83/107/35 108/108/35
f 87/104/36 89/109/36 88/110/36
f 91/111/37 109/112/37 110/113/37
f 89/114/38 91/115/38 90/116/38
f 97/117/39 95/118/39 111/119/39
f 91/115/40 93/120/40 92/121/40
f 101/122/41 99/123/41 113/124/41
f 93/120/42 95/109/42 94/110/42
f 105/125/43 103/126/43 115/127/43
f 95/104/44 97/103/44 96/128/44
f 89/129/45 108/108/45 109/112/45
f 97/103/46 99/130/46 98/131/46
f 93/132/47 110/113/47 111/119/47
f 99/130/48 101/133/48 100/134/48
f 99/123/49 97/117/49 112/135/49
f 101/120/50 103/115/50 102/116/50
f 85/136/51 82/102/51 83/107/51
f 116/137/22 112/135/22 108/108/22
f 103/115/52 105/114/52 104/138/52
f 101/122/53 114/139/53 115/127/53
f 107/130/54 85/103/54 84/128/54
f 105/114/55 107/140/55 106/141/55
f 105/125/56 116/137/56 117/101/56
f 90/142/17 98/143/17 106/144/17
f 121/145/16 120/146/16 118/147/16
f 125/148/13 124/149/13 120/150/13
f 123/151/14 122/147/14 124/146/14
f 119/152/15 118/150/15 122/149/15
f 120/153/17 124/154/17 122/155/17
f 123/155/22 125/154/22 121/153/22
f 33/21/13 34/15/13 25/17/13
f 34/156/14 35/18/14 26/20/14
f 35/15/15 36/21/15 27/16/15
f 36/157/16 33/22/16 28/24/16
f 25/23/17 26/20/17 28/24/17
f 31/41/16 30/25/16 39/27/16
f 29/158/18 30/28/18 33/30/18
f 30/37/19 31/31/19 34/33/19
f 31/159/20 32/34/20 35/36/20
f 32/31/21 29/37/21 36/32/21
f 40/160/22 39/38/22 37/40/22
f 32/43/13 31/27/13 40/42/13
f 30/27/15 29/43/15 38/41/15
f 29/26/14 32/27/14 37/25/14
f 42/50/13 44/44/13 41/46/13
f 44/51/14 48/47/14 43/49/14
f 48/44/15 46/50/15 47/45/15
f 46/47/16 42/51/16 45/48/16
f 41/55/17 43/52/17 45/54/17
f 46/54/22 48/53/22 42/55/22
f 50/72/23 51/56/23 52/58/23
f 52/161/24 53/59/24 54/61/24
f 54/61/25 55/60/25 56/63/25
f 56/63/26 57/62/26 58/65/26
f 58/65/27 59/64/27 60/58/27
f 60/161/28 61/59/28 62/67/28
f 55/70/13 53/162/13 51/163/13
f 51/163/13 65/76/13 55/70/13
f 63/68/13 61/75/13 59/69/13
f 59/69/13 57/164/13 55/70/13
f 55/70/13 65/76/13 63/68/13
f 64/165/29 65/71/29 50/72/29
f 62/67/30 63/66/30 64/74/30
f 64/76/15 50/163/15 52/162/15
f 52/162/15 54/70/15 56/164/15
f 56/164/15 58/69/15 64/76/15
f 60/75/15 62/68/15 64/76/15
f 64/76/15 52/162/15 56/164/15
f 67/83/16 73/77/16 80/79/16
f 75/95/16 68/80/16 76/82/16
f 73/77/16 67/83/16 68/80/16
f 67/166/17 69/84/17 72/86/17
f 69/83/14 71/77/14 70/81/14
f 71/166/22 73/87/22 66/89/22
f 77/86/31 74/90/31 76/92/31
f 66/80/13 68/93/13 74/95/13
f 70/81/14 66/80/14 77/82/14
f 72/167/15 70/93/15 76/96/15
f 78/90/32 80/91/32 79/86/32
f 69/167/13 67/97/13 78/96/13
f 79/78/14 71/77/14 78/79/14
f 73/168/15 71/97/15 81/99/15
f 85/136/33 107/100/33 82/102/33
f 84/128/34 85/103/34 86/105/34
f 89/129/35 87/106/35 108/108/35
f 86/105/36 87/104/36 88/110/36
f 93/132/37 91/111/37 110/113/37
f 88/138/38 89/114/38 90/116/38
f 112/135/39 97/117/39 111/119/39
f 90/116/40 91/115/40 92/121/40
f 114/139/41 101/122/41 113/124/41
f 92/121/42 93/120/42 94/110/42
f 116/137/43 105/125/43 115/127/43
f 94/105/44 95/104/44 96/128/44
f 91/111/45 89/129/45 109/112/45
f 96/128/46 97/103/46 98/131/46
f 95/118/47 93/132/47 111/119/47
f 98/131/48 99/130/48 100/134/48
f 113/124/49 99/123/49 112/135/49
f 100/121/50 101/120/50 102/116/50
f 87/106/51 85/136/51 83/107/51
f 108/108/22 83/107/22 116/137/22
f 82/102/22 117/101/22 116/137/22
f 116/137/22 115/127/22 114/139/22
f 114/139/22 113/124/22 112/135/22
f 112/135/22 111/119/22 110/113/22
f 110/113/22 109/112/22 108/108/22
f 83/107/22 82/102/22 116/137/22
f 116/137/22 114/139/22 112/135/22
f 112/135/22 110/113/22 108/108/22
f 102/116/52 103/115/52 104/138/52
f 103/126/53 101/122/53 115/127/53
f 106/131/54 107/130/54 84/128/54
f 104/138/55 105/114/55 106/141/55
f 107/100/56 105/125/56 117/101/56
f 106/144/17 84/169/17 86/170/17
f 86/170/17 88/171/17 106/144/17
f 90/142/17 92/172/17 98/143/17
f 94/173/17 96/174/17 98/143/17
f 98/143/17 100/175/17 102/176/17
f 102/176/17 104/177/17 98/143/17
f 106/144/17 88/171/17 90/142/17
f 92/172/17 94/173/17 98/143/17
f 98/143/17 104/177/17 106/144/17
f 119/151/16 121/145/16 118/147/16
f 121/152/13 125/148/13 120/150/13
f 125/145/14 123/151/14 124/146/14
f 123/148/15 119/152/15 122/149/15
f 118/178/17 120/153/17 122/155/17
f 119/178/22 123/155/22 121/153/22
o Minecraft_Block_Cube
v 0.500000 -0.500000 0.500000
v -0.500000 -0.500000 0.500000
v -0.500000 -0.500000 -0.500000
v 0.500000 -0.500000 -0.500000
v 0.500000 0.500000 0.500000
v -0.500000 0.500000 0.500000
v -0.500000 0.500000 -0.500000
v 0.500000 0.500000 -0.500000
vn 0.000000 -1.000000 0.000000
vn 0.000000 1.000000 0.000000
vn -0.000000 0.000000 1.000000
vn -1.000000 -0.000000 -0.000000
vn 0.000000 -0.000000 -1.000000
vn 1.000000 0.000000 0.000000
usemtl Material
s off
f 127//57 128//57 129//57
f 133//58 132//58 131//58
f 130//59 131//59 127//59
f 131//60 132//60 128//60
f 128//61 132//61 133//61
f 126//62 129//62 133//62
f 126//57 127//57 129//57
f 130//58 133//58 131//58
f 126//59 130//59 127//59
f 127//60 131//60 128//60
f 129//61 128//61 133//61
f 130//62 126//62 133//62
