# Blender v2.76 (sub 0) OBJ File: 'transformator.blend'
# www.blender.org
mtllib transformator.mtl
o sbire
v -0.125000 0.000000 -0.437500
v 0.125000 0.000000 -0.437500
v 0.125000 0.000000 -0.187500
v -0.125000 0.000000 -0.187500
v -0.125000 0.062500 -0.437500
v 0.125000 0.062500 -0.437500
v 0.125000 0.062500 -0.187500
v -0.125000 0.062500 -0.187500
vt 0.125000 1.000000
vt 0.125000 0.968750
vt 0.000000 0.968750
vt 0.125000 0.937500
vt 0.125000 0.906250
vt 0.000000 0.906250
vt 0.000000 0.937500
vt 0.000000 0.875000
vt 0.125000 0.875000
vt 0.250000 1.000000
vt 0.250000 0.875000
vt 0.000000 0.750000
vt 0.000000 1.000000
vt 0.125000 0.750000
vn 0.000000 0.000000 -1.000000
vn 1.000000 0.000000 0.000000
vn 0.000000 0.000000 1.000000
vn -1.000000 0.000000 0.000000
vn 0.000000 -1.000000 0.000000
vn 0.000000 1.000000 0.000000
usemtl None
s off
f 6/1/1 2/2/1 1/3/1
f 7/4/2 3/5/2 2/6/2
f 8/3/3 4/7/3 3/4/3
f 5/6/4 1/8/4 4/9/4
f 2/1/5 3/10/5 4/11/5
f 7/9/6 6/8/6 5/12/6
f 5/13/1 6/1/1 1/3/1
f 6/7/2 7/4/2 2/6/2
f 7/2/3 8/3/3 3/4/3
f 8/5/4 5/6/4 4/9/4
f 1/9/5 2/1/5 4/11/5
f 8/14/6 7/9/6 5/12/6
o fero
v -0.062500 -0.440500 -0.375000
v 0.062500 -0.440500 -0.375000
v 0.062500 -0.440500 0.375000
v -0.062500 -0.440500 0.375000
v -0.062500 0.437500 -0.375000
v 0.062500 0.437500 -0.375000
v 0.062500 0.437500 0.375000
v -0.062500 0.437500 0.375000
v -0.062500 -0.315500 -0.250000
v 0.062500 -0.315500 -0.250000
v 0.062500 -0.315500 0.250000
v -0.062500 -0.315500 0.250000
v -0.062500 0.312500 -0.250000
v 0.062500 0.312500 -0.250000
v 0.062500 0.312500 0.250000
v -0.062500 0.312500 0.250000
vn 0.000000 0.000000 -1.000000
vn 0.000000 0.000000 1.000000
vn 0.000000 -1.000000 0.000000
vn 0.000000 1.000000 0.000000
vn 1.000000 0.000000 0.000000
vn -1.000000 0.000000 0.000000
usemtl None_NONE
s off
f 14//7 10//7 9//7
f 19//7 20//7 24//7
f 16//8 12//8 11//8
f 17//8 18//8 22//8
f 10//9 11//9 12//9
f 15//10 14//10 13//10
f 20//10 19//10 18//10
f 21//9 22//9 23//9
f 14//11 15//11 23//11
f 15//11 11//11 19//11
f 11//11 10//11 18//11
f 17//12 21//12 13//12
f 22//11 18//11 10//11
f 12//12 20//12 17//12
f 13//12 21//12 24//12
f 24//12 20//12 12//12
f 13//7 14//7 9//7
f 23//7 19//7 24//7
f 15//8 16//8 11//8
f 21//8 17//8 22//8
f 9//9 10//9 12//9
f 16//10 15//10 13//10
f 17//10 20//10 18//10
f 24//9 21//9 23//9
f 22//11 14//11 23//11
f 23//11 15//11 19//11
f 19//11 11//11 18//11
f 9//12 17//12 13//12
f 14//11 22//11 10//11
f 9//12 12//12 17//12
f 16//12 13//12 24//12
f 16//12 24//12 12//12
o main
v -0.250000 -0.500000 -0.500000
v 0.250000 -0.500000 -0.500000
v 0.250000 -0.500000 0.500000
v -0.250000 -0.500000 0.500000
v -0.220500 -0.157500 -0.472500
v 0.220500 -0.157500 -0.472500
v 0.220500 -0.157500 0.472500
v -0.220500 -0.157500 0.472500
v -0.250000 -0.187500 -0.500000
v 0.250000 -0.187500 -0.500000
v 0.250000 -0.187500 0.500000
v -0.250000 -0.187500 0.500000
v -0.220500 -0.252000 -0.472500
v 0.220500 -0.252000 -0.472500
v 0.220500 -0.252000 0.472500
v -0.220500 -0.252000 0.472500
vt 0.343750 0.468750
vt 0.343750 0.312500
vt 0.093750 0.312500
vt 1.000000 0.343750
vt 1.000000 0.187500
vt 0.500000 0.187500
vt 0.093750 0.468750
vt 0.500000 0.156250
vt 0.500000 0.000000
vt 1.000000 0.000000
vt 0.500000 1.000000
vt 0.500000 0.937500
vt 1.000000 0.937500
vt 0.875000 0.562500
vt 0.875000 0.593750
vt 0.625000 0.593750
vt 0.968750 0.500000
vt 0.968750 0.531250
vt 0.468750 0.531250
vt 0.625000 0.656250
vt 0.625000 0.625000
vt 0.875000 0.625000
vt 0.468750 0.500000
vt 0.484375 0.234375
vt 0.015625 0.234375
vt 0.015625 0.015625
vt 1.000000 1.000000
vt 0.750000 1.000000
vt 0.750000 0.937500
vt 0.500000 0.343750
vt 1.000000 0.156250
vt 0.625000 0.562500
vt 0.875000 0.656250
vt 0.484375 0.015625
vn 0.000000 0.000000 -1.000000
vn 1.000000 0.000000 0.000000
vn 0.000000 0.000000 1.000000
vn -1.000000 0.000000 0.000000
vn 0.000000 -1.000000 0.000000
vn 0.000000 0.675700 -0.737200
vn 0.713000 0.701100 0.000000
vn 0.000000 0.675700 0.737200
vn -0.713000 0.701100 0.000000
vn 0.000000 1.000000 0.000000
usemtl None
s off
f 34/15/13 26/16/13 25/17/13
f 35/18/14 27/19/14 26/20/14
f 36/21/15 28/17/15 27/16/15
f 33/22/16 25/23/16 28/24/16
f 26/20/17 27/19/17 28/24/17
f 30/25/16 38/26/16 39/27/16
f 30/28/18 34/29/18 33/30/18
f 31/31/19 35/32/19 34/33/19
f 32/34/20 36/35/20 35/36/20
f 29/37/21 33/33/21 36/32/21
f 39/38/22 38/39/22 37/40/22
f 31/27/13 39/41/13 40/42/13
f 29/43/15 37/42/15 38/41/15
f 32/27/14 40/41/14 37/25/14
f 33/21/13 34/15/13 25/17/13
f 34/44/14 35/18/14 26/20/14
f 35/15/15 36/21/15 27/16/15
f 36/45/16 33/22/16 28/24/16
f 25/23/17 26/20/17 28/24/17
f 31/41/16 30/25/16 39/27/16
f 29/46/18 30/28/18 33/30/18
f 30/37/19 31/31/19 34/33/19
f 31/47/20 32/34/20 35/36/20
f 32/31/21 29/37/21 36/32/21
f 40/48/22 39/38/22 37/40/22
f 32/43/13 31/27/13 40/42/13
f 30/27/15 29/43/15 38/41/15
f 29/26/14 32/27/14 37/25/14
o Minecraft_Block_Cube
v 0.500000 -0.500000 0.500000
v -0.500000 -0.500000 0.500000
v -0.500000 -0.500000 -0.500000
v 0.500000 -0.500000 -0.500000
v 0.500000 0.500000 0.500000
v -0.500000 0.500000 0.500000
v -0.500000 0.500000 -0.500000
v 0.500000 0.500000 -0.500000
vn 0.000000 -1.000000 0.000000
vn 0.000000 1.000000 0.000000
vn -0.000000 0.000000 1.000000
vn -1.000000 -0.000000 -0.000000
vn 0.000000 -0.000000 -1.000000
vn 1.000000 0.000000 0.000000
usemtl Material
s off
f 42//23 43//23 44//23
f 48//24 47//24 46//24
f 45//25 46//25 42//25
f 46//26 47//26 43//26
f 43//27 47//27 48//27
f 41//28 44//28 48//28
f 41//23 42//23 44//23
f 45//24 48//24 46//24
f 41//25 45//25 42//25
f 42//26 46//26 43//26
f 44//27 43//27 48//27
f 45//28 41//28 48//28
