# Blender v2.76 (sub 0) OBJ File: 'transformatorCase.blend'
# www.blender.org
mtllib transformatorCase.mtl
o DoorL
v -0.378348 -0.498093 -0.000226
v -0.378348 0.582903 -0.000226
v -0.393227 -0.498093 -0.000451
v -0.393227 0.582903 -0.000451
v -0.378348 -0.498093 -0.499265
v -0.378348 0.582903 -0.499265
v -0.393227 -0.498093 -0.499489
v -0.393227 0.582903 -0.499489
vt 0.007812 0.992188
vt 0.070312 0.992188
vt 0.070312 0.929688
vt 0.007812 0.609375
vt 0.164062 0.609375
vt 0.164062 0.296875
vt 0.007812 0.929688
vt 0.335938 0.609375
vt 0.179688 0.609375
vt 0.179688 0.296875
vt 0.007812 0.960938
vt 0.039062 0.992188
vt 0.039062 0.929688
vt 0.007812 0.898438
vt 0.007812 0.296875
vt 0.335938 0.296875
vn -0.015100 0.000000 0.999900
vn -1.000000 0.000000 -0.000000
vn 0.015100 0.000000 -0.999900
vn 1.000000 0.000000 0.000000
vn 0.000000 -1.000000 0.000000
vn 0.000000 1.000000 -0.000000
usemtl None
s off
f 2/1/1 4/2/1 3/3/1
f 4/4/2 8/5/2 7/6/2
f 8/2/3 6/1/3 5/7/3
f 6/8/4 2/9/4 1/10/4
f 3/11/5 7/12/5 5/13/5
f 4/11/6 2/14/6 6/13/6
f 1/7/1 2/1/1 3/3/1
f 3/15/2 4/4/2 7/6/2
f 7/3/3 8/2/3 5/7/3
f 5/16/4 6/8/4 1/10/4
f 1/14/5 3/11/5 5/13/5
f 8/12/6 4/11/6 6/13/6
o DoorR
v -0.378348 -0.498093 0.499151
v -0.378348 0.582903 0.499151
v -0.393227 -0.498093 0.498926
v -0.393227 0.582903 0.498926
v -0.378348 -0.498093 0.000112
v -0.378348 0.582903 0.000112
v -0.393227 -0.498093 -0.000112
v -0.393227 0.582903 -0.000112
vt 0.007812 0.992188
vt 0.070312 0.992188
vt 0.070312 0.929688
vt 0.164062 0.609375
vt 0.007812 0.609375
vt 0.007812 0.296875
vt 0.007812 0.929688
vt 0.179688 0.609375
vt 0.335938 0.609375
vt 0.335938 0.296875
vt 0.007812 0.960938
vt 0.039062 0.992188
vt 0.039062 0.929688
vt 0.007812 0.898438
vt 0.039062 0.937500
vt 0.164062 0.296875
vt 0.179688 0.296875
vn -0.015100 0.000000 0.999900
vn -1.000000 0.000000 -0.000000
vn 0.015100 0.000000 -0.999900
vn 1.000000 0.000000 0.000000
vn 0.000000 -1.000000 0.000000
vn 0.000000 1.000000 -0.000000
usemtl None
s off
f 10/17/7 12/18/7 11/19/7
f 12/20/8 16/21/8 15/22/8
f 16/18/9 14/17/9 13/23/9
f 14/24/10 10/25/10 9/26/10
f 11/27/11 15/28/11 13/29/11
f 12/27/12 10/30/12 14/31/12
f 9/23/7 10/17/7 11/19/7
f 11/32/8 12/20/8 15/22/8
f 15/19/9 16/18/9 13/23/9
f 13/33/10 14/24/10 9/26/10
f 9/30/11 11/27/11 13/29/11
f 16/28/12 12/27/12 14/31/12
o Case
v 0.250000 -0.187500 -0.499943
v -0.250000 -0.187500 -0.499943
v -0.250000 -0.124000 -0.499943
v 0.250000 -0.124000 -0.499943
v 0.250000 -0.500000 -0.499943
v -0.250000 -0.500000 -0.499943
v 0.250000 -0.498483 0.500495
v -0.250000 -0.498483 0.500495
v 0.250000 -0.185983 0.500495
v -0.250000 -0.185983 0.500495
v 0.250000 -0.124000 0.500495
v -0.250000 -0.124000 0.500495
v 0.378348 -0.498093 0.499151
v 0.378348 0.582903 0.499151
v -0.378348 -0.498093 0.499151
v -0.378348 0.582903 0.499151
v 0.378348 -0.498093 -0.499151
v 0.378348 0.582903 -0.499151
v -0.378348 -0.498093 -0.499151
v -0.378348 0.582903 -0.499151
v -0.378348 0.572885 0.489900
v -0.378348 -0.488075 0.489900
v -0.378348 -0.488075 -0.489900
v -0.378348 0.572885 -0.489900
v 0.346057 0.572885 0.489900
v 0.346057 -0.488075 0.489900
v 0.346057 -0.488075 -0.489900
v 0.346057 0.572885 -0.489900
vt 0.250000 0.656250
vt 0.250000 0.625000
vt -0.000000 0.625000
vt 0.000000 0.843750
vt 0.000000 0.687500
vt 0.250000 0.687500
vt 0.250000 0.843750
vt -0.000000 0.656250
vt 0.257812 0.906250
vt 0.445312 0.906250
vt 0.445312 0.632812
vt 0.015625 0.960938
vt 0.007812 0.960938
vt 0.007812 0.992188
vt 0.257812 0.632812
vt 0.507812 0.906250
vt 0.125000 0.875000
vt 0.125000 1.000000
vt 0.000000 1.000000
vt 0.257812 0.718750
vt 0.507812 0.718750
vt 0.976562 0.523438
vt 0.976562 0.710938
vt 0.726562 0.710938
vt 0.015625 0.992188
vt 0.726562 0.992188
vt 0.976562 0.992188
vt 0.976562 0.726562
vt 0.726562 0.507812
vt 0.976562 0.507812
vt 0.976562 0.320312
vt 0.710938 0.992188
vt 0.523438 0.992188
vt 0.523438 0.726562
vt 0.710938 0.726562
vt 0.507812 0.632812
vt 0.000000 0.875000
vt 0.726562 0.523438
vt 0.726562 0.726562
vt 0.726562 0.320312
vn 0.000000 0.000000 -1.000000
vn -0.000000 0.000000 1.000000
vn -1.000000 0.000000 -0.000000
vn 1.000000 0.000000 0.000000
vn 0.000000 -1.000000 0.000000
vn 0.000000 1.000000 0.000000
usemtl Material.001
s off
f 18/34/13 19/35/13 20/36/13
f 17/37/13 21/38/13 22/39/13
f 26/40/14 24/39/14 23/38/14
f 25/38/14 27/41/14 28/34/14
f 30/42/14 32/43/14 31/44/14
f 36/45/15 40/46/15 37/47/15
f 36/43/13 34/42/13 33/48/13
f 34/49/16 30/42/16 29/48/16
f 35/50/17 33/51/17 29/52/17
f 32/42/18 30/53/18 34/54/18
f 38/55/18 42/56/18 43/57/18
f 32/47/15 37/58/15 38/45/15
f 35/45/15 39/46/15 40/47/15
f 31/47/15 38/58/15 39/45/15
f 41/59/15 44/60/15 43/61/15
f 37/62/17 40/63/17 44/64/17
f 37/65/13 41/66/13 42/67/13
f 39/68/14 43/67/14 44/66/14
f 17/41/13 18/34/13 20/36/13
f 18/40/13 17/37/13 22/39/13
f 25/37/14 26/40/14 23/38/14
f 26/39/14 25/38/14 28/34/14
f 29/48/14 30/42/14 31/44/14
f 32/58/15 36/45/15 37/47/15
f 35/44/13 36/43/13 33/48/13
f 33/69/16 34/49/16 29/48/16
f 31/70/17 35/50/17 29/52/17
f 36/49/18 32/42/18 34/54/18
f 39/71/18 38/55/18 43/57/18
f 31/46/15 32/47/15 38/45/15
f 36/58/15 35/45/15 40/47/15
f 35/46/15 31/47/15 39/45/15
f 42/72/15 41/59/15 43/61/15
f 41/73/17 37/62/17 44/64/17
f 38/68/13 37/65/13 42/67/13
f 40/65/14 39/68/14 44/66/14
o Minecraft_Block_Cube
v 0.500000 -0.500000 0.500000
v -0.500000 -0.500000 0.500000
v -0.500000 -0.500000 -0.500000
v 0.500000 -0.500000 -0.500000
v 0.500000 0.500000 0.500000
v -0.500000 0.500000 0.500000
v -0.500000 0.500000 -0.500000
v 0.500000 0.500000 -0.500000
vn 0.000000 -1.000000 0.000000
vn 0.000000 1.000000 0.000000
vn -0.000000 0.000000 1.000000
vn -1.000000 -0.000000 -0.000000
vn 0.000000 -0.000000 -1.000000
vn 1.000000 0.000000 0.000000
usemtl Material
s off
f 46//19 47//19 48//19
f 52//20 51//20 50//20
f 49//21 50//21 46//21
f 50//22 51//22 47//22
f 47//23 51//23 52//23
f 45//24 48//24 52//24
f 45//19 46//19 48//19
f 49//20 52//20 50//20
f 45//21 49//21 46//21
f 46//22 50//22 47//22
f 48//23 47//23 52//23
f 49//24 45//24 52//24
